{"glyphs":{"\u0000":{"ha":0,"x_min":0,"x_max":0,"o":""},"\r":{"ha":347,"x_min":0,"x_max":0,"o":""}," ":{"ha":210,"x_min":0,"x_max":0,"o":""},"A":{"ha":663,"x_min":-87,"x_max":811,"o":"m 522 1019 q 565 993 547 1010 q 596 958 583 976 q 619 903 608 938 q 640 830 631 868 q 658 755 650 792 q 669 693 665 718 q 692 570 682 631 q 710 465 703 510 l 721 460 q 746 452 731 458 q 776 434 761 446 q 801 403 790 422 q 811 357 811 385 q 788 269 811 314 q 735 196 765 224 l 735 178 q 698 20 735 90 q 582 -94 661 -50 q 547 -108 564 -104 q 515 -111 531 -111 q 468 -103 489 -111 l 404 -76 q 350 -25 368 -60 q 310 -44 331 -39 q 274 -50 289 -50 q 244 -47 258 -50 q 218 -39 229 -43 l 217 -37 l 215 -37 l 156 -12 q 61 56 94 11 q 10 149 28 100 q -39 184 -19 160 q -69 236 -58 208 q -83 289 -79 264 q -87 325 -87 314 q -66 399 -87 367 q -3 444 -44 432 q 14 521 4 483 q 36 594 24 558 q 60 665 47 631 q 85 735 72 700 l 129 857 q 131 864 131 860 q 135 871 132 868 l 143 897 q 158 935 150 917 q 175 971 167 953 q 217 1021 194 1000 q 279 1042 239 1042 q 301 1039 290 1042 q 322 1033 313 1036 q 360 1050 339 1043 q 406 1057 381 1057 q 458 1046 433 1057 l 522 1019 m 642 411 q 619 414 631 414 q 594 414 607 414 q 576 433 578 414 q 540 656 558 546 q 493 875 521 765 q 483 910 489 892 q 466 944 476 929 q 441 970 456 960 q 406 981 426 981 q 364 969 382 981 q 329 942 346 957 q 306 957 319 949 q 279 965 292 965 q 243 935 257 965 q 232 913 236 924 q 224 892 228 903 l 135 647 q 100 541 117 594 q 72 431 83 488 q 69 413 71 422 l 69 404 q 64 385 69 393 q 49 375 58 375 q 44 375 47 375 q 39 375 42 375 q 24 374 31 375 q -3 356 4 367 q -11 325 -11 346 q -8 299 -11 315 q 3 267 -4 283 q 19 238 10 250 q 39 221 28 225 q 66 203 57 215 q 82 174 75 192 q 101 134 89 156 q 129 94 113 113 q 167 65 146 76 q 210 53 188 53 q 236 60 222 53 q 253 90 253 69 q 253 93 253 92 q 250 132 250 113 q 250 171 250 151 q 261 186 250 185 q 322 193 292 189 q 383 201 351 197 q 389 203 386 203 q 400 186 400 203 q 403 165 403 172 q 410 98 407 132 q 414 29 413 64 q 451 -8 415 -8 q 493 5 472 -8 q 532 38 514 18 q 564 81 550 58 q 583 119 578 103 q 594 178 594 149 q 594 238 594 208 q 608 269 594 260 q 646 313 632 288 q 668 367 660 338 q 669 382 669 375 q 642 411 669 407 m 339 406 q 306 403 324 404 q 269 400 289 403 q 294 556 281 479 q 324 711 308 632 q 333 689 331 700 q 336 668 335 678 q 348 548 343 607 q 357 428 353 489 q 358 415 358 421 q 356 409 358 411 q 339 406 354 407 m 329 88 q 330 101 329 96 q 331 108 331 106 q 329 118 331 114 l 328 118 q 329 103 329 111 q 329 88 329 96 z "},"B":{"ha":574,"x_min":-67,"x_max":711,"o":"m 489 1013 q 560 973 529 999 q 610 913 590 947 q 639 840 629 879 q 649 760 649 800 q 632 655 649 704 q 588 558 615 606 q 678 457 646 518 q 711 322 711 396 q 669 156 711 236 q 559 13 626 75 q 408 -86 492 -49 q 240 -124 324 -124 q 199 -120 218 -124 q 164 -110 181 -117 l 100 -83 q 37 -40 63 -68 q -5 20 11 -12 q -28 87 -21 53 q -36 150 -36 121 q -28 216 -36 183 q -1 281 -21 249 q 1 285 0 283 q 6 290 3 288 q -1 304 1 297 q -24 388 -19 344 q -29 463 -29 431 q -1 621 -29 542 q -31 647 -21 632 q -43 664 -40 661 q -60 720 -54 688 q -67 778 -67 753 q -56 858 -67 818 q -24 931 -44 897 q 27 992 -3 965 q 94 1036 57 1019 q 178 1060 135 1053 q 263 1068 221 1068 q 357 1058 310 1068 q 447 1029 404 1049 l 489 1013 m 443 543 q 426 550 435 546 q 406 560 417 554 q 433 591 421 576 q 457 622 446 606 q 499 716 489 675 q 508 783 508 757 q 499 854 508 817 q 468 917 488 890 q 417 960 449 944 q 263 992 338 992 q 125 965 192 992 q 67 924 92 951 q 27 864 42 897 q 11 808 13 831 q 10 778 10 786 q 18 719 10 749 q 38 688 28 688 q 65 703 46 688 q 140 742 104 733 q 207 751 176 751 q 238 750 222 751 q 286 729 276 744 q 296 697 296 714 q 289 658 296 681 q 254 600 276 626 q 208 550 232 574 q 202 544 206 547 q 196 540 199 540 q 190 542 193 540 q 186 595 188 574 q 185 629 185 617 q 186 665 185 647 l 186 675 l 188 692 l 188 701 q 172 721 186 721 q 164 719 168 721 q 117 685 138 711 q 47 463 47 582 q 58 365 47 415 q 101 291 69 313 q 167 269 133 269 q 190 271 178 269 q 225 288 218 276 q 232 313 232 299 q 229 338 232 324 q 222 370 226 354 q 214 401 218 386 q 212 410 213 407 q 211 413 211 413 q 218 418 211 417 q 245 424 232 421 q 274 426 258 426 q 315 417 296 426 q 339 378 339 403 q 338 367 339 372 q 326 327 335 346 q 301 294 317 308 q 235 249 269 267 q 160 225 200 232 q 144 224 151 224 q 93 244 115 224 q 76 257 79 257 q 64 242 72 257 q 51 218 57 231 q 40 149 40 182 q 43 110 40 138 q 69 43 46 83 q 117 -7 89 7 q 174 -21 144 -21 q 185 -21 179 -21 q 306 8 247 -17 q 415 71 365 32 q 503 161 465 110 q 558 272 540 213 q 569 350 569 313 q 569 376 569 354 q 553 434 568 399 q 510 498 538 469 q 443 543 482 526 z "},"C":{"ha":547,"x_min":-69,"x_max":675,"o":"m 331 1022 q 371 1040 347 1032 q 426 1049 394 1049 q 462 1045 443 1049 q 500 1033 481 1042 l 565 1007 q 630 959 601 992 q 658 869 658 926 l 657 843 q 644 742 650 793 q 632 642 638 692 l 625 569 q 624 560 625 565 l 622 543 q 621 533 622 539 q 613 482 618 503 q 592 450 607 461 q 630 431 611 446 q 660 386 649 417 q 666 360 664 372 q 671 336 668 347 q 674 292 674 313 q 675 264 675 271 q 658 143 675 201 q 608 36 642 85 q 526 -48 575 -12 q 413 -97 476 -83 q 388 -101 400 -100 q 361 -103 375 -103 q 318 -98 339 -103 q 278 -86 297 -93 l 214 -60 q 84 33 138 -26 q -3 166 31 93 q -53 319 -37 239 q -69 478 -69 400 q -56 622 -69 551 q -12 758 -42 693 q 62 878 17 822 q 169 975 107 933 q 237 1010 206 999 q 313 1022 268 1022 l 329 1018 l 336 1018 l 331 1022 m 528 368 q 519 393 526 381 q 510 400 515 400 q 500 394 506 400 q 449 356 476 367 q 390 344 421 344 q 307 363 346 344 q 246 422 268 382 q 224 485 229 454 q 219 538 219 515 q 223 583 219 554 q 242 647 226 611 q 281 708 257 683 q 297 724 289 717 q 317 736 306 732 q 322 726 322 732 l 324 722 l 324 719 q 364 589 336 653 q 411 543 378 556 q 431 538 421 539 q 451 538 440 538 q 460 538 456 538 q 476 542 472 538 q 481 567 479 546 q 485 603 483 585 l 492 675 q 496 711 494 693 q 504 796 499 754 q 517 881 510 838 q 518 897 518 889 q 497 947 518 926 q 465 966 485 960 q 426 972 446 972 q 390 967 407 972 q 361 950 374 961 q 340 942 350 942 q 336 942 339 942 q 304 946 319 946 q 263 939 286 946 q 213 913 240 932 q 102 806 146 868 q 35 664 58 743 q 7 486 7 575 q 28 308 7 397 q 94 143 49 215 q 218 24 139 71 q 297 0 257 0 q 397 29 349 0 q 475 99 446 58 q 526 209 519 160 q 533 292 533 258 q 528 368 533 329 m 297 551 q 296 535 296 546 l 297 551 m 444 447 l 443 447 l 383 472 q 372 477 378 475 q 363 482 367 479 q 385 421 367 440 q 410 424 400 421 q 431 435 419 426 l 444 447 z "},"D":{"ha":565,"x_min":-67,"x_max":697,"o":"m 14 386 q -10 472 -1 429 q -19 561 -19 515 q -16 608 -19 585 q -4 654 -12 631 q -40 715 -29 682 q -50 779 -50 749 q -24 887 -50 836 q 43 975 1 938 q 138 1035 85 1013 q 247 1057 192 1057 q 358 1038 304 1057 l 424 1011 q 565 927 511 981 q 647 808 618 874 q 687 670 676 742 q 697 531 697 599 q 681 370 697 450 q 631 216 664 290 q 550 77 599 142 q 436 -37 501 13 q 351 -88 401 -64 q 243 -112 301 -112 q 195 -108 218 -112 q 151 -94 172 -103 l 88 -68 q -26 31 14 -37 q -67 175 -67 99 q -51 276 -67 231 q -3 367 -35 322 q 6 377 1 372 q 14 386 10 382 m 540 719 q 333 965 503 906 q 247 981 288 981 q 75 899 151 981 q 39 843 51 872 q 26 782 26 814 q 26 769 26 776 q 58 700 29 728 q 67 694 64 696 q 72 693 71 693 q 81 699 76 693 q 105 723 89 713 q 140 741 121 733 q 178 752 158 749 q 214 756 199 756 q 335 700 279 756 q 377 635 363 672 q 395 570 392 599 q 399 524 399 542 q 395 478 399 504 q 379 425 392 451 q 319 340 356 375 q 232 290 282 306 q 214 285 221 288 q 203 283 207 283 q 188 288 196 283 q 201 333 201 311 q 218 481 203 410 q 268 619 233 553 q 275 644 275 633 q 274 657 275 649 q 261 679 272 665 q 231 703 249 696 q 192 711 213 711 q 103 678 139 711 q 60 593 67 646 q 57 561 57 578 q 58 538 57 550 q 82 422 63 478 q 124 310 101 365 q 102 318 110 313 q 86 329 94 324 q 75 333 79 333 q 60 322 65 333 q 19 244 31 285 q 10 175 10 208 q 17 118 10 153 q 53 50 25 83 q 117 3 82 17 q 179 -10 151 -10 q 206 -7 193 -10 q 288 25 247 1 q 362 81 328 49 q 424 150 396 113 q 472 224 453 188 q 547 425 536 340 q 557 556 557 510 q 540 719 557 636 m 279 358 q 278 344 278 351 q 278 331 278 338 l 279 358 z "},"E":{"ha":508,"x_min":-57,"x_max":640,"o":"m 558 993 q 616 944 596 978 q 636 872 636 910 q 606 767 636 817 q 533 683 575 717 q 569 659 556 675 q 591 626 583 643 q 601 592 599 608 q 604 564 604 575 q 574 458 604 507 q 500 375 543 408 l 561 350 q 622 294 604 332 q 640 214 640 256 q 623 125 640 167 q 576 50 606 83 q 507 -9 546 17 q 426 -51 468 -35 q 338 -81 388 -67 q 238 -94 289 -94 q 153 -78 190 -94 l 89 -51 q -13 34 24 -25 q -50 164 -50 93 q -43 223 -50 194 q -25 276 -36 251 q 17 333 -11 313 q -42 406 -28 361 q -57 500 -57 451 q -48 586 -57 544 q -4 660 -39 628 q -47 739 -36 694 q -57 829 -57 783 q -49 909 -57 871 q -21 976 -40 947 q 32 1023 -1 1006 q 114 1040 65 1040 q 165 1036 140 1040 q 244 1025 206 1029 q 322 1021 282 1021 q 374 1023 349 1021 q 426 1028 400 1025 l 444 1028 q 494 1019 472 1028 l 558 993 m 315 707 q 372 734 343 718 q 424 771 400 750 q 465 817 447 792 q 492 874 483 843 q 496 900 496 888 q 483 935 496 918 q 446 951 471 951 q 436 951 442 951 q 379 946 408 947 q 322 944 350 944 q 151 961 238 944 q 113 964 131 964 q 100 964 106 964 q 51 944 68 961 q 26 893 33 928 q 19 838 19 865 q 22 783 19 811 q 53 711 26 742 q 68 700 60 704 q 79 689 76 696 q 81 679 81 685 q 78 666 81 674 q 75 649 76 658 q 75 643 75 646 q 75 636 75 640 q 75 633 75 635 q 60 611 75 619 q 35 590 43 604 q 24 556 26 575 q 19 496 19 525 q 19 482 19 489 q 34 425 22 449 q 76 390 46 401 q 89 374 89 386 q 107 285 92 326 q 69 274 86 282 q 44 246 53 265 q 26 183 26 204 q 25 161 25 163 q 47 83 25 122 q 107 22 74 36 q 174 8 140 8 q 197 10 185 8 q 265 22 229 13 q 335 45 300 31 q 401 80 371 60 q 453 125 432 100 q 488 181 476 153 q 499 240 499 210 q 499 254 499 247 q 451 310 494 301 q 435 311 443 311 q 414 308 424 311 q 363 299 388 304 q 311 292 338 294 q 280 285 294 289 q 254 282 265 282 q 239 283 247 282 q 244 321 244 303 q 244 335 244 324 q 242 365 243 346 q 242 378 242 372 q 244 396 242 390 q 268 407 247 401 q 322 426 296 415 q 372 451 349 436 q 415 485 396 465 q 447 531 435 504 q 460 561 456 547 q 464 588 464 575 q 463 601 464 594 q 424 642 458 642 q 408 642 415 642 q 393 639 400 642 l 282 628 q 273 627 276 628 q 269 626 269 626 q 263 636 264 626 q 251 664 260 653 q 231 686 242 675 q 239 693 235 690 l 246 693 q 249 694 249 694 q 281 699 265 696 q 313 708 297 703 q 303 721 307 715 l 292 732 q 285 740 289 736 l 314 710 l 314 708 l 313 708 l 314 707 l 315 707 z "},"F":{"ha":613,"x_min":-71,"x_max":767,"o":"m 3 604 q -54 693 -37 642 q -71 797 -71 744 q -59 884 -71 842 q -23 960 -47 926 q 38 1017 1 994 q 122 1040 74 1039 q 174 1039 150 1040 q 225 1028 199 1038 q 308 1008 265 1015 q 397 997 351 1000 q 492 994 444 994 q 585 993 539 993 q 633 985 613 993 l 697 958 q 730 937 717 950 q 751 908 743 924 q 763 875 760 892 q 767 843 767 858 q 749 762 767 800 q 703 691 731 724 q 640 633 675 658 q 568 588 604 607 q 603 548 589 572 q 617 486 617 524 q 605 429 617 457 q 574 376 593 401 q 530 332 554 351 q 481 300 506 313 q 495 271 488 285 q 511 242 503 257 l 533 197 q 545 165 540 183 q 550 125 550 147 q 527 40 550 81 q 468 -30 504 0 q 388 -77 432 -60 q 301 -94 343 -94 q 232 -82 264 -94 l 168 -56 q 113 -17 133 -42 q 81 38 92 8 q 66 102 69 68 q 63 169 63 136 q 63 208 63 189 q 65 246 64 226 q 9 278 32 257 q -28 328 -14 300 q -48 389 -42 357 q -54 453 -54 421 q -41 535 -54 493 q 3 604 -28 576 m 582 917 q 535 915 558 915 q 488 917 517 915 q 417 921 458 918 q 308 931 361 924 q 201 956 254 938 q 169 964 183 963 q 146 965 156 965 q 126 964 136 965 q 25 892 57 963 q 6 797 6 847 q 10 751 6 775 q 32 688 17 711 q 69 649 47 664 q 119 627 92 635 q 181 613 147 619 q 182 604 182 608 q 179 594 182 600 q 176 579 176 588 q 157 560 175 560 q 151 560 154 560 q 126 562 139 561 q 103 563 114 563 q 29 501 43 563 q 22 451 22 476 q 29 399 22 425 q 60 335 39 354 q 124 313 82 315 q 141 308 139 311 q 143 290 143 306 q 140 226 140 254 q 139 179 139 199 q 139 142 139 161 q 141 106 139 124 q 149 71 143 88 q 214 11 167 21 q 236 8 225 8 q 272 14 250 8 q 321 34 294 19 q 368 68 347 49 q 399 107 389 88 q 410 151 410 129 q 401 188 410 169 q 392 210 397 199 q 379 232 386 221 q 351 288 364 260 q 331 347 339 317 q 328 364 328 358 q 328 367 328 365 q 342 375 329 369 q 450 453 408 399 q 475 501 468 474 q 476 514 476 508 q 444 561 476 549 q 411 568 431 568 q 399 567 406 568 q 356 564 378 564 q 313 563 335 564 q 307 563 310 563 q 287 567 296 563 q 275 590 278 572 q 271 602 274 597 q 265 614 268 607 l 269 618 q 360 638 314 625 q 449 672 406 651 q 531 722 493 693 q 597 788 569 750 q 626 869 626 825 q 586 917 626 917 q 582 917 585 917 z "},"G":{"ha":582,"x_min":-69,"x_max":718,"o":"m 565 1007 q 630 960 601 992 q 658 874 658 929 q 656 842 658 858 q 651 810 654 826 q 648 783 650 796 q 644 758 646 771 q 642 731 643 744 l 635 676 q 632 649 633 663 l 628 631 q 697 591 676 624 q 718 515 718 558 q 706 426 718 463 q 667 347 694 390 q 673 307 671 326 q 675 264 675 288 q 658 143 675 201 q 608 37 642 85 q 526 -46 575 -11 q 414 -96 478 -81 q 361 -103 386 -103 q 317 -98 339 -103 q 276 -86 296 -93 l 213 -60 q 84 33 138 -26 q -3 166 31 93 q -53 320 -37 239 q -69 478 -69 401 q -56 623 -69 551 q -12 759 -42 694 q 63 879 18 824 q 171 978 108 935 q 230 1008 196 994 q 304 1022 264 1022 q 317 1022 311 1022 q 331 1019 324 1021 q 328 1021 329 1021 q 368 1040 344 1032 q 425 1049 392 1049 q 460 1045 440 1049 q 501 1033 481 1042 l 565 1007 m 267 606 l 254 672 q 266 689 258 679 q 283 709 274 699 q 301 727 292 719 q 319 736 311 735 q 322 724 321 729 q 325 713 324 718 q 389 644 333 656 q 413 642 400 642 q 435 644 421 642 q 468 653 449 646 q 492 685 490 661 q 517 889 503 788 q 517 900 517 894 q 499 946 517 928 q 466 965 486 958 q 425 972 446 972 q 363 951 386 972 q 342 940 351 940 q 335 942 338 940 q 303 946 318 946 q 264 940 286 946 q 214 914 242 933 q 32 654 79 824 q 8 528 8 572 q 7 478 7 483 q 24 324 7 401 q 89 151 43 228 q 217 24 135 74 q 297 0 257 0 q 368 14 335 0 q 429 51 401 28 q 478 103 457 74 q 511 167 499 133 q 532 249 531 217 q 533 290 533 281 q 525 375 533 333 q 524 385 524 381 q 532 407 524 397 q 576 522 572 453 q 576 540 576 532 q 569 574 576 567 q 538 582 563 582 q 522 582 531 582 q 453 577 482 579 q 406 575 425 575 q 365 576 386 575 q 358 576 361 576 q 334 567 344 576 q 317 542 324 558 q 310 501 310 524 q 310 481 310 497 q 322 440 311 465 q 351 396 332 415 q 393 372 369 376 q 424 367 413 368 q 442 367 436 367 q 467 368 454 367 q 419 347 439 350 q 388 344 399 344 q 349 349 368 344 q 270 390 301 360 q 228 474 239 419 q 221 538 221 506 q 224 581 221 558 q 235 628 228 606 q 253 672 242 651 l 246 715 l 246 717 q 244 722 244 718 l 265 606 l 267 606 z "},"H":{"ha":729,"x_min":-79,"x_max":869,"o":"m 681 1040 q 742 1003 717 1029 q 768 938 768 978 l 768 901 l 765 826 l 765 710 q 768 629 765 669 q 839 574 808 611 q 869 482 869 536 q 849 406 869 439 q 788 356 828 372 l 790 333 q 797 252 793 293 q 804 171 800 211 q 810 112 807 142 q 818 53 813 82 l 821 17 q 803 -52 821 -24 q 758 -99 786 -81 q 697 -125 731 -117 q 628 -133 663 -133 q 535 -117 572 -133 l 469 -90 q 422 -61 442 -79 q 386 -22 401 -43 q 351 -44 371 -36 q 308 -53 332 -53 q 281 -49 293 -53 q 258 -43 268 -46 q 256 -42 257 -43 q 254 -42 256 -42 l 246 -37 q 242 -36 243 -37 l 193 -17 q 124 27 151 -1 q 80 91 97 56 q 53 166 63 126 q 36 244 43 206 q -16 278 6 254 q -51 332 -37 301 q -72 396 -65 363 q -79 458 -79 429 q -7 606 -79 549 l -7 617 l -8 642 q -6 706 -8 667 q 0 789 -4 746 q 11 871 4 832 q 29 933 18 910 q 58 986 40 961 q 99 1031 75 1011 q 155 1062 124 1050 q 225 1074 186 1074 q 274 1069 249 1074 q 322 1056 299 1065 l 407 1019 q 464 1064 429 1050 q 543 1078 499 1078 q 577 1076 557 1078 q 617 1067 597 1074 l 681 1040 m 711 556 q 683 580 701 569 q 649 593 665 590 q 632 601 636 594 q 628 621 628 608 q 624 745 625 699 q 624 807 624 792 q 626 931 624 868 q 626 947 626 939 q 628 964 626 956 q 615 985 628 979 q 574 999 592 996 q 544 1003 557 1003 q 519 1000 532 1003 q 472 978 488 994 q 451 926 457 963 q 430 781 440 853 q 415 633 419 708 q 411 622 414 626 q 400 617 408 617 l 317 617 q 324 676 321 647 l 336 794 q 343 854 340 825 q 347 879 346 869 q 347 894 347 889 q 346 914 347 904 q 320 968 342 947 q 267 993 299 989 q 229 997 247 997 q 162 983 196 997 q 99 903 128 968 q 86 857 89 882 q 71 738 74 790 q 68 650 68 686 q 69 590 68 619 q 66 568 69 576 q 51 553 63 560 q -3 460 -3 521 q -1 442 -3 450 q 4 401 0 421 q 18 364 8 382 q 43 328 29 343 q 78 314 57 314 q 82 314 81 314 q 106 290 101 314 q 115 241 110 265 q 125 192 119 217 q 164 100 133 144 q 198 65 175 81 q 244 50 221 50 q 275 69 268 50 q 282 107 282 88 l 283 118 l 283 172 l 285 183 q 287 269 285 226 q 292 356 289 313 q 314 382 293 378 q 349 388 332 385 q 383 394 367 392 q 394 396 390 396 q 399 394 397 396 q 401 378 400 393 l 401 361 q 403 259 403 310 q 407 157 403 208 q 416 101 410 131 q 435 45 422 71 q 468 0 447 19 q 519 -26 489 -19 q 564 -31 542 -31 q 631 -19 599 -31 q 672 8 663 -8 q 681 42 681 24 q 678 67 681 53 q 669 128 672 97 q 664 190 667 158 q 664 193 664 192 l 663 201 q 663 204 663 203 l 660 231 q 659 238 660 235 q 658 244 658 242 l 650 354 q 650 357 650 356 l 649 365 q 649 368 649 367 l 646 394 q 645 402 646 399 q 644 408 644 406 q 643 428 643 421 q 645 438 643 435 q 653 443 647 442 q 671 446 660 444 q 703 456 689 449 q 724 483 717 464 q 728 507 728 496 q 725 526 728 514 q 711 556 722 539 z "},"I":{"ha":322,"x_min":-60,"x_max":454,"o":"m 350 990 q 430 918 406 967 q 454 799 454 869 q 453 755 454 776 q 449 713 451 733 l 411 442 q 390 271 400 356 q 369 101 381 186 q 358 38 365 71 q 335 -24 350 4 q 294 -69 319 -51 q 229 -87 269 -87 q 189 -79 206 -87 l 125 -53 q 100 -40 110 -47 q 85 -28 90 -32 q 33 44 56 -1 q -5 146 11 90 q -31 263 -21 201 q -48 383 -42 324 q -57 497 -54 443 q -60 589 -60 550 q -59 681 -60 625 q -50 793 -58 736 q -26 892 -43 847 q 20 967 -8 936 q 90 1016 49 999 q 189 1033 132 1033 q 286 1015 243 1033 l 350 990 m 311 865 q 271 938 306 919 q 189 957 236 957 q 117 944 146 957 q 70 909 89 932 q 42 856 51 886 q 26 788 32 825 q 18 689 19 739 q 17 589 17 639 q 21 472 17 535 q 33 344 25 408 q 55 217 42 279 q 88 104 68 156 q 100 80 92 94 q 119 51 108 65 q 141 26 129 36 q 165 15 153 15 q 197 31 185 15 q 214 61 208 46 q 223 99 219 81 q 229 138 226 118 q 268 443 249 292 q 308 749 288 594 q 313 797 311 778 q 314 826 314 817 q 311 865 314 846 z "},"J":{"ha":553,"x_min":-71,"x_max":689,"o":"m 254 525 q 217 521 238 521 q 149 533 178 521 l 85 560 q 24 605 47 575 q -14 668 0 635 q -33 734 -28 701 q -37 788 -37 767 q -28 873 -37 829 q 3 953 -18 917 q 58 1015 25 989 q 139 1046 92 1040 q 241 1060 190 1053 q 343 1067 292 1067 q 482 1054 414 1067 l 546 1028 q 652 963 615 1014 q 689 849 689 911 q 663 749 689 796 q 593 674 638 701 q 601 653 597 663 q 608 632 606 643 l 619 590 q 642 475 633 532 q 650 357 650 418 q 636 208 650 286 q 589 62 622 131 q 501 -56 556 -7 q 364 -117 446 -104 q 333 -121 349 -119 q 301 -122 317 -122 q 172 -96 236 -122 l 107 -69 q -19 27 32 -39 q -71 192 -71 93 q -46 316 -71 254 q 26 418 -21 378 q 56 436 40 429 q 90 443 72 443 l 149 418 l 156 417 q 185 410 167 417 q 220 422 207 410 q 241 451 233 433 q 251 488 249 468 q 254 525 253 508 m 467 979 q 393 988 425 986 q 340 990 361 990 q 299 989 319 990 q 224 981 261 986 q 150 971 188 975 q 104 953 124 967 q 72 919 85 939 q 53 874 60 899 q 42 826 46 850 q 39 786 39 807 q 41 751 39 774 q 57 696 43 728 q 97 642 72 660 q 153 624 121 624 q 192 631 168 624 q 216 643 204 636 q 240 657 228 650 q 270 677 256 667 q 304 696 285 688 q 329 596 328 632 q 331 550 331 560 q 318 442 331 497 q 260 355 301 376 q 157 333 218 333 q 128 340 142 335 q 106 357 115 344 q 92 367 99 367 q 86 366 90 367 q 75 358 82 365 q 57 340 65 350 q 18 267 31 307 q 6 193 6 228 q 8 152 6 182 q 38 80 11 122 q 117 10 64 38 q 188 -16 157 -12 q 238 -19 218 -19 q 289 -15 263 -19 q 378 23 340 -7 q 442 95 417 53 q 483 187 468 138 q 503 282 497 236 q 510 383 510 332 q 506 465 510 411 q 481 597 501 519 q 457 672 471 636 q 404 729 443 708 q 438 742 422 736 q 469 754 454 747 q 539 826 519 776 q 549 874 549 850 q 548 889 549 875 q 538 924 547 903 q 510 960 528 944 q 467 979 492 975 z "},"K":{"ha":626,"x_min":-61,"x_max":760,"o":"m 617 1003 q 681 951 657 988 q 720 868 706 914 q 740 775 735 822 q 744 690 744 728 q 738 651 744 669 q 720 623 731 635 q 699 604 710 611 q 646 569 672 586 q 592 538 619 553 q 550 508 572 526 q 507 468 528 489 q 557 421 533 440 q 608 386 581 401 q 611 385 610 386 l 617 385 q 619 383 618 383 l 683 357 q 735 324 718 346 q 757 278 753 301 q 760 254 760 267 q 760 229 760 242 q 734 94 760 160 q 658 -19 708 29 q 622 -45 644 -32 q 568 -58 600 -58 q 522 -49 543 -58 q 489 -33 500 -40 l 425 -7 q 376 28 393 11 q 366 36 371 32 q 356 46 361 40 l 356 8 q 326 -65 356 -36 q 251 -93 296 -93 q 194 -82 221 -93 l 131 -56 q 63 -1 90 -39 q 24 78 35 36 q -9 201 7 140 q -36 322 -25 261 q -54 445 -47 382 q -61 578 -61 508 q -59 669 -61 619 q -49 770 -57 719 q -24 868 -40 821 q 19 952 -8 915 q 88 1011 47 989 q 186 1033 129 1033 q 238 1028 210 1033 q 292 1010 267 1022 l 331 993 q 355 983 346 988 q 378 968 364 979 q 432 1018 401 997 q 503 1039 463 1039 q 530 1036 518 1039 q 553 1029 542 1033 l 617 1003 m 618 286 q 599 310 617 306 q 467 369 525 326 q 360 471 410 413 l 349 485 q 344 494 344 490 q 345 499 344 496 q 351 508 346 501 q 416 573 383 540 q 489 629 449 606 q 540 661 515 644 q 590 693 565 678 q 601 702 597 697 q 604 717 604 707 q 600 780 604 739 q 585 862 596 821 q 556 933 575 903 q 503 963 536 963 q 467 950 486 963 q 431 911 443 932 q 381 829 403 874 q 324 722 354 774 q 268 614 293 669 q 260 606 265 606 l 268 668 q 280 751 274 710 q 288 836 286 793 q 288 851 288 844 q 285 885 288 867 q 272 926 283 904 q 233 951 261 946 q 186 957 206 957 q 124 942 150 957 q 78 903 97 926 q 48 849 60 879 q 32 786 36 818 q 15 578 15 683 q 22 443 15 511 q 52 269 32 354 q 97 99 72 183 q 122 46 104 68 q 188 10 147 10 q 215 38 214 10 q 217 185 215 113 q 226 333 218 258 q 228 350 228 342 q 239 364 229 358 q 243 354 242 358 q 281 269 257 314 q 335 181 304 224 q 403 104 367 139 q 479 50 440 69 q 504 44 490 44 q 540 61 524 44 q 619 256 619 144 q 618 286 619 271 z "},"L":{"ha":496,"x_min":-64,"x_max":649,"o":"m 383 1000 q 389 997 386 997 q 448 951 424 982 q 472 871 472 919 q 471 848 472 860 q 467 825 469 836 q 431 662 447 743 q 401 497 415 581 l 393 438 q 390 422 390 431 q 388 407 389 414 q 410 409 399 408 q 435 410 422 410 q 499 397 468 410 l 563 371 q 624 324 599 356 q 649 240 649 293 q 633 171 649 206 q 553 63 610 113 q 432 -21 497 14 q 304 -75 367 -56 q 204 -94 242 -94 q 125 -79 160 -94 l 60 -53 q -3 -8 21 -37 q -41 57 -28 22 q -59 126 -54 92 q -64 186 -64 161 q -55 269 -64 225 q -12 339 -46 314 q -39 583 -39 457 q -35 702 -39 631 q -10 843 -31 774 q -7 853 -8 849 l 0 871 q 3 881 1 876 q 34 940 15 911 q 80 990 53 968 q 142 1026 107 1013 q 222 1040 176 1040 q 269 1038 242 1040 q 325 1024 297 1035 l 383 1000 m 443 333 q 431 333 438 333 q 399 331 417 333 q 360 324 381 328 q 295 310 328 317 q 229 300 263 303 q 226 309 226 304 q 228 318 226 314 q 272 594 249 457 q 328 868 296 732 q 332 897 332 883 q 283 957 332 944 q 222 964 251 964 q 135 937 169 964 q 81 869 101 910 q 53 781 61 829 q 42 690 44 732 q 38 583 38 638 q 42 473 38 542 q 71 311 46 404 q 74 294 74 300 q 72 291 74 293 q 56 286 71 289 q 29 274 38 283 q 18 246 21 265 q 13 186 13 217 q 17 131 13 158 q 64 35 28 61 q 139 8 100 8 q 175 13 156 8 q 265 42 214 21 q 366 93 317 63 q 453 161 415 124 q 504 242 492 199 q 508 268 508 256 q 494 310 508 289 q 443 333 479 331 z "},"M":{"ha":836,"x_min":-60,"x_max":960,"o":"m 769 1032 q 820 1002 794 1022 q 867 956 846 982 q 901 900 888 929 q 914 842 914 871 q 910 814 914 826 q 903 790 907 801 q 918 738 914 763 q 949 535 938 636 q 960 329 960 433 q 953 194 960 256 q 919 61 947 132 q 886 -3 906 28 q 840 -60 867 -35 q 778 -103 813 -86 q 699 -126 743 -121 l 675 -126 q 618 -115 644 -126 l 554 -89 q 503 -51 525 -78 q 482 21 482 -25 q 482 28 482 25 l 483 40 q 483 47 483 44 l 486 67 q 460 68 472 67 q 436 75 449 69 l 399 90 q 398 58 399 71 q 390 28 397 46 q 362 -12 381 4 q 320 -40 343 -29 q 272 -55 297 -50 q 222 -60 246 -60 q 132 -42 179 -60 l 68 -15 q 10 21 32 1 q -25 64 -12 40 q -43 117 -37 88 q -53 182 -49 146 q -58 259 -57 222 q -60 315 -60 296 q -56 453 -60 378 q -42 604 -51 528 q -18 754 -33 681 q 19 888 -3 828 q 12 910 15 899 q 8 933 8 921 q 28 991 8 967 q 76 1031 47 1015 q 140 1055 106 1047 q 201 1063 174 1063 q 244 1058 224 1063 l 310 1032 q 355 1017 336 1028 q 388 992 374 1007 q 415 960 403 978 q 439 922 426 943 q 472 978 453 951 q 515 1026 490 1006 q 568 1060 539 1047 q 632 1072 597 1072 q 706 1057 671 1072 l 769 1032 m 779 749 q 772 779 776 764 q 757 808 767 794 q 753 822 753 815 q 758 835 753 829 q 774 865 774 850 q 773 874 774 865 q 764 900 772 882 q 711 967 746 938 q 632 996 676 996 q 592 986 611 996 q 558 962 574 976 q 531 929 543 947 q 510 894 518 911 q 465 785 485 840 q 431 669 444 729 q 428 660 428 665 q 421 651 428 654 q 363 792 393 722 q 297 931 333 863 q 232 983 272 975 q 200 986 215 986 q 156 981 182 986 q 103 957 131 976 q 87 942 89 947 q 85 935 85 938 q 89 915 85 928 l 93 900 q 97 883 97 892 q 93 864 97 874 q 67 790 78 833 q 49 700 57 746 q 37 610 42 654 q 29 532 32 565 q 19 397 21 450 q 17 315 17 343 q 21 207 17 261 q 28 157 24 182 q 39 108 32 132 q 58 79 44 92 q 88 59 71 67 q 122 47 104 51 q 157 43 140 43 q 231 60 193 43 q 257 97 257 69 q 257 106 257 101 q 256 126 256 117 q 253 147 256 136 q 243 260 247 204 q 238 374 239 317 l 238 528 l 244 529 l 249 522 q 291 418 271 469 q 326 311 311 367 q 338 269 332 290 q 353 226 344 247 q 365 202 358 214 q 383 182 372 190 q 415 168 401 168 q 454 208 443 168 q 455 210 454 210 q 456 214 456 211 q 508 392 476 306 q 575 565 540 479 q 578 576 576 571 q 589 583 581 582 q 583 310 589 444 q 560 38 576 175 q 558 21 558 29 q 567 -9 558 3 q 604 -24 576 -21 q 611 -25 608 -25 q 616 -24 613 -25 q 625 -24 619 -24 q 710 13 675 -15 q 767 80 744 40 q 802 165 790 119 q 817 256 814 211 q 819 356 819 306 q 811 528 819 431 q 779 749 803 626 m 333 104 l 335 117 l 335 124 q 332 125 332 125 q 333 111 333 118 l 333 104 z "},"N":{"ha":678,"x_min":-58,"x_max":806,"o":"m 650 1007 q 727 959 697 989 q 774 892 757 929 q 799 811 792 854 q 806 722 806 768 l 804 686 q 794 524 800 606 q 776 362 788 443 q 744 199 764 281 q 693 38 725 118 q 676 0 686 22 q 649 -43 665 -22 q 604 -85 633 -65 q 531 -106 575 -106 q 475 -94 501 -106 l 411 -68 q 374 -47 390 -60 q 350 -26 360 -37 q 315 -68 339 -50 q 253 -86 292 -86 q 194 -75 221 -86 l 129 -49 q 45 15 81 -28 q -8 106 10 57 q -35 206 -25 151 q -50 315 -44 260 q -57 424 -56 371 q -58 519 -58 476 q -57 611 -58 558 q -49 721 -56 664 q -30 834 -43 778 q 8 934 -17 890 q 72 1006 33 978 q 168 1033 111 1033 q 221 1031 192 1033 q 279 1015 250 1028 l 340 990 q 413 1036 372 1021 q 494 1051 454 1051 q 585 1033 544 1051 l 650 1007 m 654 850 q 633 901 649 878 q 597 940 618 924 q 549 966 575 957 q 494 975 522 975 q 440 965 467 975 q 389 931 413 954 q 378 904 378 919 q 379 892 378 899 q 400 819 392 856 q 414 747 408 783 q 427 615 426 664 q 428 553 428 567 q 422 414 428 483 q 419 367 421 390 q 411 319 418 344 q 399 339 401 329 q 393 358 396 349 q 369 458 378 407 q 351 558 360 508 q 328 708 338 633 q 317 858 319 782 q 303 906 317 888 q 267 936 289 925 q 221 952 246 947 q 172 957 196 957 q 169 957 171 957 q 99 926 129 957 q 47 831 63 888 q 28 724 32 775 q 19 519 19 622 q 28 315 19 418 q 36 243 31 281 q 52 169 42 206 q 80 99 63 132 q 125 43 97 67 q 181 17 153 21 q 188 17 185 17 q 213 26 203 17 q 222 54 222 35 q 222 58 222 56 l 222 74 l 224 107 q 229 303 224 204 q 246 497 235 401 q 246 510 246 504 q 254 522 246 517 q 266 417 257 479 q 290 289 275 354 q 326 164 306 224 q 372 67 347 104 q 419 14 390 39 q 467 -3 444 -3 q 499 6 485 -3 q 525 30 514 15 q 544 61 536 44 q 557 92 551 78 q 605 244 586 167 q 635 399 624 321 q 653 558 646 478 q 664 717 660 638 q 665 749 665 733 q 654 850 665 801 z "},"O":{"ha":507,"x_min":-68,"x_max":635,"o":"m 399 999 q 456 961 429 988 q 503 903 483 935 q 536 835 524 871 q 550 769 549 800 q 597 694 579 746 q 622 583 614 643 q 633 464 631 522 q 635 367 635 406 q 618 225 635 296 q 578 88 601 154 q 543 22 564 54 q 493 -37 522 -11 q 424 -79 464 -62 q 335 -96 385 -96 q 280 -90 306 -96 q 231 -75 254 -85 l 167 -49 q 56 32 101 -22 q -17 153 11 86 q -56 294 -44 221 q -68 431 -68 367 q -58 568 -68 497 q -26 708 -47 639 q 26 843 -6 778 q 96 963 57 908 q 167 1022 125 1003 q 254 1040 210 1040 q 294 1037 274 1040 q 335 1025 315 1033 l 399 999 m 493 422 q 493 451 493 436 q 492 501 493 472 q 486 565 490 529 q 476 639 482 603 q 454 710 469 675 q 438 736 447 725 q 411 750 429 747 q 400 757 400 750 q 403 765 400 761 q 410 789 410 778 q 409 799 410 792 q 404 821 408 807 q 384 874 397 849 q 352 919 371 900 q 309 951 333 939 q 254 964 285 964 q 201 953 226 964 q 158 918 175 942 q 122 861 139 890 q 90 800 104 832 q 10 479 22 644 q 8 429 8 454 q 57 179 8 297 q 126 67 85 114 q 239 10 168 21 q 269 8 254 8 q 341 22 304 8 q 410 82 378 36 q 437 130 425 106 q 456 181 449 154 q 485 294 475 242 q 494 390 494 346 q 493 422 494 406 m 335 293 q 330 274 333 283 q 322 254 326 264 q 299 239 314 239 q 274 254 281 239 q 264 283 267 269 q 258 342 258 313 q 259 367 258 347 q 267 422 260 388 q 304 560 282 493 q 313 552 311 557 q 317 543 315 547 q 340 442 338 482 q 343 383 343 401 q 335 293 343 338 z "},"P":{"ha":588,"x_min":-82,"x_max":729,"o":"m 449 304 l 513 279 l 526 240 q 560 172 540 204 l 565 161 q 580 127 572 146 q 588 93 588 108 q 563 25 588 57 q 510 -26 538 -7 q 426 -82 472 -58 q 329 -106 381 -106 q 261 -92 293 -106 l 197 -65 q 119 -3 149 -46 q 75 91 90 39 q 55 198 60 143 q 50 297 50 253 q 72 539 50 424 l 33 556 q -4 580 10 565 q -25 601 -18 594 q -67 680 -53 638 q -82 769 -82 722 q -65 873 -82 825 q -15 957 -47 921 q 62 1017 17 993 q 164 1047 107 1040 q 242 1051 204 1051 q 352 1042 294 1051 q 463 1011 410 1033 l 528 985 q 606 942 569 968 q 670 878 643 915 q 713 791 697 840 q 729 679 729 742 q 672 453 729 553 q 514 279 614 354 l 450 306 q 449 304 449 306 m 371 347 q 406 368 388 354 q 544 524 500 439 q 589 706 589 608 q 588 735 589 719 q 533 871 581 814 q 407 951 486 928 q 240 975 328 975 q 172 971 207 975 q 54 921 96 964 q 0 819 13 878 q -6 769 -6 794 q 0 719 -6 750 q 36 649 6 689 q 75 624 56 624 q 108 636 90 624 l 136 656 q 160 672 147 664 q 186 683 172 679 q 189 676 189 681 q 188 671 189 674 q 139 481 151 572 q 126 303 126 389 q 126 268 126 286 q 132 189 126 235 q 152 100 138 143 q 194 27 167 57 q 265 -3 221 -3 q 313 6 289 -3 q 358 30 336 15 q 400 61 381 44 q 435 94 419 78 q 447 119 447 107 q 442 136 447 128 q 440 138 442 138 l 440 140 q 439 142 439 142 l 433 153 q 432 154 433 154 l 432 157 q 391 240 406 197 q 361 325 376 282 q 358 336 358 332 q 359 341 358 338 q 371 347 360 344 m 335 415 q 303 549 313 478 q 294 686 294 619 q 299 708 294 706 q 314 711 303 711 q 324 711 318 711 q 421 635 401 707 q 425 601 425 618 q 424 585 425 597 q 418 553 424 574 q 388 481 408 514 q 335 415 367 447 m 449 304 q 455 285 451 294 q 463 267 458 276 l 449 304 z "},"Q":{"ha":507,"x_min":-68,"x_max":636,"o":"m 399 1014 q 456 977 429 1003 q 504 919 483 951 q 538 851 525 886 q 550 786 550 817 q 594 713 578 761 q 620 608 611 664 q 633 499 629 553 q 636 411 636 446 q 631 313 636 364 q 613 213 625 263 q 583 115 601 163 q 536 28 564 68 l 517 36 l 532 22 q 522 11 529 18 l 547 1 q 563 -34 557 -14 q 568 -78 568 -54 q 549 -140 568 -114 q 499 -181 531 -167 q 485 -187 492 -185 q 467 -193 478 -190 q 427 -204 444 -197 q 392 -221 410 -211 q 358 -244 375 -231 q 318 -274 340 -257 q 284 -292 303 -285 q 244 -300 265 -300 q 206 -293 224 -300 l 142 -267 q 97 -233 115 -256 q 67 -182 79 -210 q 50 -124 56 -154 q 44 -67 44 -93 q 69 29 44 -11 q 3 120 29 67 q -40 232 -24 174 q -62 348 -56 290 q -68 450 -68 406 q -58 585 -68 515 q -26 724 -47 656 q 25 858 -6 793 q 94 975 56 922 q 166 1037 124 1018 q 253 1056 208 1056 q 293 1052 272 1056 q 335 1040 314 1049 l 399 1014 m 483 603 q 477 644 482 618 q 464 697 472 671 q 443 743 456 724 q 411 764 431 763 q 400 774 400 765 q 403 782 400 776 q 410 804 410 793 q 409 813 410 806 q 406 832 408 819 q 385 886 399 860 q 353 933 372 913 q 310 967 335 954 q 253 979 285 979 q 199 968 225 979 q 157 932 174 957 q 82 797 110 863 q 35 650 54 732 q 8 447 8 549 q 9 388 8 443 q 44 228 10 332 q 100 114 65 164 q 194 36 135 64 q 194 36 194 36 q 199 31 194 35 l 175 22 q 121 -65 121 -4 q 121 -75 121 -71 q 130 -130 122 -97 q 153 -181 138 -162 q 181 -197 165 -197 q 207 -186 192 -197 q 291 -128 247 -154 q 386 -92 335 -101 q 401 -86 397 -89 q 428 -50 428 -75 q 425 -33 428 -42 q 403 5 418 -10 q 365 28 388 19 q 356 30 361 29 q 344 38 350 31 q 408 96 382 58 q 450 178 433 133 q 476 268 467 222 q 490 353 486 314 q 494 436 494 394 q 492 499 494 457 q 483 603 490 540 m 333 306 q 324 274 329 288 q 299 254 317 254 q 281 261 288 254 q 269 277 274 268 q 264 297 265 286 q 261 317 263 308 q 258 357 258 338 q 261 402 258 375 q 272 465 264 429 q 306 582 285 524 q 332 510 325 546 q 342 439 339 475 q 344 385 344 413 q 344 358 344 378 q 333 306 343 338 z "},"R":{"ha":606,"x_min":-72,"x_max":739,"o":"m 490 1001 q 602 940 558 978 q 671 856 646 903 q 706 756 696 810 q 715 644 715 701 q 696 527 715 585 q 639 422 676 469 q 688 400 668 415 q 718 364 707 385 q 734 318 729 343 q 739 267 739 293 q 722 180 739 222 q 676 104 706 138 q 608 50 647 71 q 522 29 568 29 q 482 33 501 29 l 482 22 q 465 -35 482 -14 q 435 -64 447 -56 q 402 -83 422 -75 q 360 -99 382 -92 q 317 -109 339 -106 q 279 -112 296 -112 q 235 -108 256 -112 q 197 -96 215 -103 l 132 -69 q 65 -25 93 -53 q 17 38 36 3 q -10 114 -1 74 q -19 193 -19 154 q -13 288 -19 240 q 3 382 -7 335 q 10 410 7 396 l 21 464 q 28 492 25 478 l 96 539 l 42 561 q -8 597 13 572 q -44 651 -29 621 q -65 713 -58 681 q -72 775 -72 746 q -58 869 -72 824 q -17 952 -44 915 q 49 1015 10 989 q 139 1049 88 1040 q 191 1056 165 1053 q 244 1058 217 1058 q 426 1028 339 1058 l 490 1001 m 593 338 q 550 376 588 369 q 485 388 518 381 q 424 411 451 396 q 449 431 438 422 q 471 450 460 440 q 535 526 510 485 q 571 621 561 568 q 576 669 576 646 q 574 702 576 681 q 568 757 572 724 q 529 863 560 819 q 454 932 499 906 q 356 970 410 958 q 244 982 301 982 q 138 971 186 982 q 49 914 89 960 q 19 860 31 892 q 6 807 7 828 q 4 778 4 786 q 10 724 4 753 q 33 669 17 694 q 59 640 49 650 q 81 631 69 631 q 128 653 97 631 q 142 665 135 658 q 160 674 149 671 q 115 522 135 599 q 78 365 94 444 q 61 276 67 317 q 56 200 56 235 q 57 169 56 185 q 69 108 58 139 q 97 53 79 78 q 142 13 115 29 q 200 -8 168 -4 q 217 -10 208 -10 q 259 -3 236 -10 q 307 14 282 3 q 338 33 335 25 q 342 47 342 42 q 333 79 342 60 q 319 117 325 94 q 307 163 313 139 q 298 209 301 186 q 292 249 294 232 q 307 235 303 242 q 318 221 311 228 q 378 160 342 189 q 458 132 414 132 q 519 151 489 132 q 583 222 568 183 q 597 294 597 260 q 593 338 597 315 m 303 456 q 290 448 296 451 q 274 444 283 444 q 272 485 272 465 q 273 514 272 494 q 276 561 274 533 q 284 628 278 597 q 290 689 290 660 q 290 701 290 696 q 295 714 290 711 q 310 718 300 717 q 385 690 356 718 q 414 617 414 661 q 379 522 411 564 q 303 456 347 481 z "},"S":{"ha":599,"x_min":-62,"x_max":725,"o":"m 568 989 q 678 904 635 963 q 721 768 721 846 q 701 647 721 706 q 636 544 681 589 q 701 452 678 507 q 725 324 725 397 q 701 182 725 249 q 625 61 678 115 q 561 1 596 31 q 485 -50 526 -28 q 397 -86 443 -72 q 299 -100 350 -100 q 189 -78 242 -100 l 125 -53 q 46 -3 81 -35 q -12 67 11 28 q -49 152 -36 107 q -61 243 -61 197 q -46 349 -61 300 q 18 432 -31 397 q -47 542 -31 481 q -62 669 -62 603 l -60 682 q -24 829 -60 763 q 72 944 13 896 q 205 1019 131 992 q 354 1046 279 1046 q 432 1037 390 1046 q 503 1015 474 1028 l 568 989 m 485 540 q 433 565 460 556 q 378 582 406 575 q 313 592 346 589 q 247 599 279 594 q 208 611 228 600 q 197 631 197 618 q 199 639 197 635 q 232 685 208 671 q 354 724 290 724 q 358 724 356 724 q 481 636 446 724 q 497 611 489 611 q 515 622 504 611 q 531 639 526 632 q 581 794 581 706 q 552 885 581 844 q 475 944 524 926 q 413 962 444 957 q 354 969 382 967 q 233 948 292 967 q 128 894 175 929 q 51 808 81 858 q 17 689 21 757 l 17 681 l 14 663 q 30 555 14 600 q 77 481 46 510 q 153 435 108 451 q 257 413 199 419 l 271 413 q 278 411 274 411 l 336 406 q 343 404 340 406 l 357 404 q 385 398 371 401 q 410 385 399 394 q 422 363 422 374 q 410 339 422 351 q 379 324 397 328 q 285 308 335 308 q 232 310 258 308 q 181 319 206 313 q 134 340 156 326 q 96 376 113 354 q 86 382 92 382 q 78 379 82 382 q 18 290 25 351 q 15 244 15 267 q 26 161 15 207 q 81 71 38 115 q 160 17 119 31 q 236 3 201 3 q 268 6 251 3 q 397 51 339 15 q 506 140 456 88 q 565 232 546 182 q 585 340 583 282 q 585 350 585 346 q 485 540 585 476 z "},"T":{"ha":568,"x_min":-81,"x_max":719,"o":"m 92 514 q 86 517 89 514 l 22 542 q -22 573 -4 553 q -52 615 -40 593 q -70 657 -64 636 q -78 689 -76 678 q -80 717 -79 703 q -81 746 -81 731 q -55 885 -81 828 q 17 979 -29 943 q 126 1032 63 1015 q 263 1049 189 1049 q 369 1041 307 1049 q 489 1010 431 1033 l 554 985 q 613 955 583 974 q 665 910 642 936 q 704 849 689 885 q 719 769 719 814 q 713 710 719 742 q 690 653 706 679 q 651 610 675 628 q 594 593 628 593 q 575 594 585 593 q 554 599 565 596 q 526 603 540 601 q 499 604 513 604 q 501 579 500 592 q 501 553 501 567 q 503 458 503 504 q 508 365 504 411 q 521 281 513 322 q 544 194 529 239 l 558 156 q 564 129 561 144 q 567 99 567 114 q 557 47 567 74 q 510 -18 542 10 q 442 -65 478 -46 q 371 -93 406 -83 q 315 -103 336 -103 q 253 -92 282 -103 l 188 -65 q 120 -12 146 -47 q 80 67 94 24 q 60 158 65 111 q 56 243 56 204 q 65 380 56 313 q 92 514 75 447 m 560 863 q 515 911 540 893 q 460 940 490 929 q 356 967 404 960 q 265 974 308 974 q 235 972 250 974 q 161 963 197 971 q 94 938 125 954 q 39 894 63 921 q 6 826 15 867 q -3 775 -3 794 q -4 749 -4 756 q -1 697 -4 722 q 6 669 0 685 q 21 641 11 654 q 43 619 31 628 q 69 610 56 610 q 90 614 81 610 q 110 624 101 618 q 131 635 119 629 q 176 656 153 646 q 226 676 199 667 q 199 602 211 638 q 176 531 188 567 q 132 246 132 393 q 133 204 132 225 q 141 139 136 171 q 157 76 146 107 q 195 22 169 43 q 249 0 221 0 q 274 3 261 0 q 332 23 304 10 q 383 58 360 36 q 411 85 401 74 q 424 108 421 97 q 426 126 426 118 q 424 144 426 132 q 414 179 422 156 l 414 181 l 413 182 l 413 183 l 410 192 l 410 193 l 408 194 q 381 293 390 243 q 367 396 371 343 q 361 476 361 435 q 362 491 361 481 q 363 517 363 501 q 361 578 363 547 q 357 627 361 603 q 339 675 353 651 q 333 685 336 681 q 331 693 331 689 q 332 700 331 696 q 375 706 354 704 q 418 707 396 707 q 460 706 439 707 q 503 700 482 704 q 525 697 519 697 q 532 696 531 696 q 546 700 540 696 q 556 714 551 704 q 568 740 561 724 q 569 743 569 743 l 569 749 q 571 751 571 751 q 578 796 578 774 q 560 863 578 831 z "},"U":{"ha":593,"x_min":-61,"x_max":719,"o":"m 531 994 q 597 949 567 979 q 649 882 626 919 q 687 803 672 844 q 706 726 701 763 q 716 615 713 671 q 719 501 719 560 q 713 362 719 431 q 689 228 707 293 q 640 103 671 163 q 558 -10 608 43 q 476 -74 524 -49 q 367 -99 428 -99 q 267 -79 314 -99 l 203 -53 q 66 47 118 -14 q -14 183 14 108 q -51 340 -42 257 q -61 507 -61 424 q -58 601 -61 547 q -50 710 -56 654 q -36 821 -44 767 q -15 917 -28 875 q 53 1015 4 985 q 161 1044 103 1044 q 254 1026 210 1044 l 318 1000 q 394 1033 347 1033 q 467 1019 433 1033 l 531 994 m 565 744 q 532 850 558 804 q 465 932 506 896 q 432 952 450 947 q 394 957 414 957 q 371 933 371 957 q 371 925 371 929 q 376 906 374 915 q 381 885 378 896 q 422 687 417 767 q 426 567 426 607 q 417 404 426 486 q 412 378 417 396 q 400 343 407 361 q 383 312 393 325 q 361 299 372 299 q 339 310 353 299 q 315 350 322 328 q 304 392 308 371 q 297 438 300 414 q 290 558 290 499 q 294 649 290 589 q 325 797 297 708 q 329 824 329 811 q 318 865 329 844 q 247 946 289 924 q 163 968 206 968 q 139 967 151 968 q 97 951 114 963 q 71 924 81 940 q 56 887 61 907 q 47 846 51 867 q 25 681 32 764 q 15 507 18 599 q 19 406 15 457 q 31 306 24 356 q 85 148 44 215 q 200 35 126 81 q 303 4 249 4 q 374 20 339 4 q 439 68 410 36 q 528 208 497 131 q 569 372 558 285 q 579 529 579 450 q 578 597 579 543 q 565 744 576 651 z "},"V":{"ha":508,"x_min":-69,"x_max":643,"o":"m 511 1007 q 574 962 549 992 q 615 894 599 932 q 637 816 631 857 q 643 739 643 775 q 638 651 643 694 q 626 565 632 608 q 574 320 610 439 q 500 89 539 201 q 487 53 496 75 q 467 9 478 32 q 443 -34 456 -14 q 419 -64 431 -54 q 385 -90 406 -79 q 335 -100 364 -100 q 283 -90 307 -100 q 247 -74 258 -81 l 183 -47 q 140 -14 158 -33 q 111 22 122 6 q 51 144 78 78 q 2 281 24 210 q -34 423 -19 351 q -57 560 -49 494 q -69 693 -69 626 q -59 808 -69 747 q -23 921 -49 869 q 47 1006 3 972 q 160 1039 92 1039 q 203 1035 179 1039 q 250 1018 226 1031 l 281 1006 q 282 1004 282 1006 l 286 1004 q 324 1034 301 1022 q 379 1046 346 1046 q 446 1033 417 1046 l 511 1007 m 501 785 q 494 844 500 813 q 475 902 489 875 q 439 949 461 929 q 383 969 417 968 q 379 969 381 969 q 339 922 339 969 q 339 882 339 903 l 340 801 q 340 761 340 782 q 329 569 338 664 q 301 381 321 475 q 299 372 300 376 q 293 367 299 368 q 279 433 285 399 q 267 500 274 467 q 244 643 250 579 q 239 757 239 707 q 240 817 239 786 l 240 839 l 242 885 l 242 907 q 234 933 242 922 q 214 951 226 944 q 187 960 201 957 q 160 963 172 963 q 101 947 126 963 q 59 908 76 932 q 31 855 42 885 q 15 797 19 825 q 8 732 8 757 q 7 697 7 707 q 10 636 7 667 q 23 543 14 589 q 40 451 32 497 q 53 392 44 429 q 75 310 63 354 q 103 219 88 265 q 138 132 119 172 q 178 61 157 92 q 219 19 199 31 q 271 3 251 3 q 303 19 288 3 q 330 58 318 36 q 351 104 342 81 q 364 140 360 128 q 436 367 403 253 q 486 601 469 481 q 497 686 492 647 q 503 757 503 725 q 501 785 503 771 z "},"W":{"ha":981,"x_min":-60,"x_max":1107,"o":"m 521 -44 q 453 -83 490 -68 q 368 -99 417 -99 q 317 -93 342 -99 q 268 -78 292 -87 l 204 -51 q 156 -26 178 -40 q 38 87 81 22 q -27 223 -6 151 q -54 368 -49 294 q -60 507 -60 442 q -57 606 -60 553 q -49 712 -54 658 q -35 817 -44 765 q -14 917 -26 869 q 15 978 -4 953 q 58 1017 33 1003 q 110 1038 82 1032 q 164 1044 138 1044 q 211 1040 189 1044 q 254 1026 233 1035 l 318 1000 q 414 931 375 978 q 425 938 422 936 q 485 964 454 957 q 543 971 515 971 q 590 966 563 971 q 644 950 617 961 l 682 935 q 711 1005 682 976 q 783 1033 740 1033 q 856 1019 822 1033 l 919 993 q 971 961 947 982 q 1056 852 1024 913 q 1094 718 1088 792 q 1103 611 1100 665 q 1107 503 1107 557 q 1101 363 1107 431 q 1077 232 1094 296 q 1030 109 1060 168 q 951 -6 1000 50 q 872 -72 918 -44 q 763 -99 826 -99 q 706 -93 732 -99 q 656 -78 679 -87 l 592 -51 q 542 -26 565 -42 l 521 -44 m 954 738 q 922 845 949 799 q 856 931 896 892 q 824 950 840 944 q 788 957 807 956 q 785 957 786 957 q 758 929 758 957 q 758 921 758 925 q 766 891 761 906 q 775 861 771 876 q 810 678 806 753 q 814 565 814 604 q 807 422 814 494 q 801 393 806 414 q 790 351 797 372 q 772 315 782 331 q 749 299 761 299 q 726 308 736 299 q 708 332 715 318 q 695 361 700 346 q 688 386 690 376 q 669 572 669 479 q 670 625 669 575 q 686 772 671 675 q 688 788 688 781 q 683 814 688 800 q 667 843 679 828 q 612 881 644 868 q 543 894 579 894 q 467 874 503 894 q 428 810 432 854 q 425 792 428 803 l 421 757 q 419 753 421 754 l 419 743 q 418 739 418 742 q 405 599 407 656 q 403 515 403 543 q 407 403 403 460 q 407 390 407 396 q 388 321 407 354 q 361 299 375 299 q 340 309 349 299 q 324 333 331 319 q 313 363 317 347 q 307 388 310 378 q 290 568 290 478 q 292 633 290 578 q 322 786 293 688 q 329 822 329 806 q 311 881 329 853 q 164 968 256 968 q 140 967 153 968 q 90 947 111 964 q 60 897 69 929 q 57 888 60 893 l 53 869 q 51 867 53 868 l 51 863 q 35 775 40 818 q 26 689 29 732 q 17 507 17 597 q 28 325 17 417 q 81 158 42 231 q 197 38 121 86 q 304 4 250 4 q 362 15 336 4 q 410 42 388 25 q 451 81 432 58 q 488 125 469 103 q 580 40 529 76 q 699 4 631 4 q 774 25 739 4 q 836 78 808 46 q 885 147 864 110 q 919 218 906 185 q 947 308 938 263 q 960 400 956 353 q 967 526 967 464 q 965 600 967 547 q 954 738 963 653 z "},"X":{"ha":640,"x_min":-71,"x_max":788,"o":"m 126 438 q 66 502 96 468 q 12 574 36 536 q -28 652 -12 611 q -43 739 -43 693 q -27 831 -43 786 q 17 912 -11 875 q 85 974 46 949 q 172 1008 125 1000 q 185 1010 179 1010 q 199 1011 192 1011 q 226 1008 214 1011 q 250 1001 239 1006 l 314 975 q 347 953 333 967 q 372 926 361 940 l 374 929 q 424 983 392 957 q 507 1008 456 1008 q 575 996 544 1008 l 639 969 q 705 920 679 953 q 746 851 731 888 q 767 778 761 814 q 774 721 774 743 q 774 699 774 710 q 772 676 774 688 q 767 651 769 661 q 758 635 764 642 q 745 622 753 628 q 726 608 738 617 q 666 560 693 585 q 617 508 639 536 q 678 444 647 478 q 733 372 708 410 q 772 292 757 333 q 788 206 788 251 q 772 114 788 158 q 727 33 756 69 q 659 -30 699 -4 q 572 -64 619 -56 l 546 -67 q 519 -64 531 -67 q 496 -57 507 -61 l 431 -31 q 390 -2 406 -19 q 365 35 375 15 q 336 -17 351 8 q 301 -62 321 -42 q 255 -94 281 -82 q 196 -106 229 -106 q 129 -93 158 -106 l 64 -67 q -2 -17 24 -50 q -43 52 -28 15 q -65 124 -58 89 q -71 182 -71 160 q -71 204 -71 193 q -68 226 -71 215 q -63 251 -67 242 q -55 268 -60 261 q -42 281 -50 275 q -22 294 -35 286 q 126 438 58 356 m 214 456 q 222 442 222 447 q 222 437 222 440 q 214 425 221 433 q 211 422 213 424 l 207 414 q 204 411 206 413 q 119 315 165 358 q 22 233 72 272 q 12 226 17 229 q 7 215 7 224 q 6 185 6 200 q 13 119 6 154 q 47 46 19 83 q 84 12 63 26 q 132 -3 106 -3 q 200 40 174 -3 q 266 159 240 100 q 322 282 292 218 q 354 244 338 269 q 385 189 371 218 q 411 131 400 160 q 428 85 422 103 q 482 36 440 36 q 494 38 488 36 q 552 61 526 44 q 600 103 578 78 q 644 184 640 147 q 647 232 647 221 q 624 325 647 282 q 552 425 594 378 q 467 515 510 472 q 458 529 458 524 q 459 534 458 531 q 467 546 460 538 q 469 549 468 547 l 474 557 q 476 560 475 558 q 510 603 496 586 q 540 635 525 621 q 574 663 556 649 q 617 696 592 676 q 627 703 622 700 q 632 714 632 706 q 633 744 633 729 q 626 810 633 775 q 592 883 619 846 q 555 917 576 903 q 507 932 533 932 q 455 909 478 932 q 415 853 432 886 q 388 787 399 821 q 372 731 376 753 q 367 710 369 719 q 358 689 365 700 q 326 727 343 701 q 295 782 310 753 q 269 840 281 811 q 253 886 258 868 q 199 935 240 935 q 186 933 193 935 q 128 910 154 926 q 81 868 103 893 q 37 787 40 824 q 33 739 33 750 q 57 646 33 689 q 128 546 86 593 q 214 456 171 499 m 326 907 l 333 889 q 340 868 336 879 l 326 907 z "},"Y":{"ha":585,"x_min":-83,"x_max":733,"o":"m 32 529 q -6 576 14 550 q -44 633 -26 601 q -72 699 -61 664 q -83 774 -83 735 q -67 865 -83 821 q -23 947 -51 910 q 45 1009 6 983 q 132 1043 85 1035 q 145 1045 139 1044 q 158 1046 151 1046 q 186 1043 174 1046 q 210 1036 199 1040 l 274 1010 q 307 988 293 1001 q 332 961 321 975 l 333 964 q 383 1017 351 992 q 467 1043 415 1043 q 535 1031 504 1043 l 599 1004 q 665 955 639 988 q 706 885 690 922 q 727 813 721 849 q 733 756 733 778 q 733 733 733 744 q 732 711 733 722 q 726 686 729 696 q 718 669 724 676 q 705 657 713 663 q 686 643 697 651 q 603 574 642 611 q 532 494 565 538 q 540 465 539 479 q 543 439 542 451 q 546 397 546 418 l 549 371 q 551 329 550 350 q 563 240 557 285 q 576 150 569 194 l 579 115 q 567 41 579 76 q 531 -22 554 6 q 476 -68 508 -50 q 403 -92 443 -86 q 392 -93 397 -93 q 379 -96 386 -93 q 340 -100 361 -100 q 272 -87 301 -100 l 207 -61 q 147 -20 172 -47 q 107 38 122 7 q 84 101 92 69 q 75 157 76 133 q 79 307 75 233 q 103 456 83 381 q 88 471 96 464 l 61 499 q 46 514 54 507 l 32 529 m 551 918 q 515 952 536 938 q 467 967 493 967 q 415 944 438 967 q 375 888 392 921 q 347 822 358 856 q 332 765 336 788 q 327 744 329 754 q 318 724 325 735 q 286 762 303 736 q 255 817 269 788 q 229 874 240 846 q 213 921 218 903 q 158 969 200 969 q 146 968 153 969 q 88 944 114 961 q 40 903 63 928 q -3 822 0 858 q -7 774 -7 785 q 17 681 -7 724 q 88 581 46 628 q 174 490 131 533 q 185 465 185 479 q 183 453 185 460 q 156 318 163 381 q 150 203 150 256 q 151 160 150 181 q 178 67 153 113 q 197 40 185 53 q 225 17 210 26 q 253 6 240 8 q 275 3 267 3 q 299 6 286 3 q 313 8 306 8 q 328 10 321 8 q 412 56 386 18 q 438 140 438 94 q 436 167 438 153 q 423 258 429 213 q 411 347 417 303 q 408 389 410 368 l 406 418 q 403 460 406 439 q 399 488 401 475 q 385 508 396 500 q 376 522 376 517 q 377 527 376 524 q 385 539 378 531 q 388 542 386 540 l 392 550 q 394 553 393 551 q 480 649 433 606 q 576 731 526 692 q 587 738 582 735 q 592 749 592 740 q 593 779 593 764 q 586 845 593 810 q 551 918 579 881 m 286 942 l 293 924 q 300 903 296 914 l 286 942 z "},"Z":{"ha":539,"x_min":-67,"x_max":669,"o":"m 515 986 q 624 898 583 958 q 665 756 665 838 q 661 707 665 733 q 649 653 657 681 q 632 601 642 626 q 610 556 622 575 q 573 486 592 521 q 533 417 554 451 l 597 392 q 653 335 638 372 q 669 257 669 299 q 649 158 669 204 q 608 89 635 119 q 491 -23 557 25 q 333 -87 425 -71 l 288 -96 q 232 -100 261 -100 q 140 -83 182 -100 l 76 -57 q 17 -17 42 -43 q -25 40 -8 8 q -50 108 -42 72 q -58 179 -58 144 q -53 228 -58 201 q -40 279 -49 254 q -16 326 -31 304 q 19 360 -1 347 q 41 374 32 367 q 57 389 50 382 l 74 407 l 94 433 q 108 452 101 443 q 122 469 115 461 q 71 492 93 471 l 60 496 q 2 524 26 496 q -37 589 -22 551 q -60 666 -53 626 q -67 731 -67 706 q -61 785 -67 756 q -45 843 -56 814 q -21 899 -35 872 q 10 944 -7 925 q 65 993 35 974 q 127 1024 94 1013 q 192 1041 160 1036 q 254 1046 225 1046 q 299 1043 278 1046 q 344 1036 321 1040 l 372 1032 q 450 1013 413 1028 l 515 986 m 525 315 q 512 343 519 336 q 492 350 504 350 q 482 349 488 350 q 428 340 454 346 q 375 326 403 333 q 331 316 353 321 q 288 308 310 311 l 288 315 q 296 326 293 324 q 360 415 324 363 q 430 525 396 467 q 490 642 464 583 q 522 747 515 700 q 525 783 525 765 q 524 806 525 790 q 515 847 524 822 q 488 894 506 872 q 443 931 471 915 q 405 947 424 940 q 365 956 386 954 q 347 958 356 957 q 328 961 338 958 q 254 969 293 969 q 152 953 203 969 q 68 896 101 936 q 42 853 51 876 q 24 806 32 829 q 11 758 13 776 q 10 731 10 739 q 14 688 10 711 q 28 638 18 664 q 49 585 38 611 q 57 573 54 574 q 60 572 60 572 q 74 581 65 572 q 115 608 93 597 q 160 631 138 619 q 200 638 181 638 q 219 636 210 638 q 265 583 265 629 q 264 568 265 576 q 239 505 263 546 q 183 421 215 464 q 117 342 150 378 q 60 294 83 306 q 48 283 53 290 q 40 269 43 276 q 17 182 17 226 q 17 158 17 181 q 36 89 18 135 q 72 33 49 53 q 129 7 96 14 q 169 3 149 3 q 202 6 181 3 q 256 14 224 8 q 338 42 296 21 q 418 92 381 63 q 484 160 456 122 q 522 239 513 197 q 528 269 528 258 q 529 285 529 281 q 525 315 529 300 m 150 540 l 182 558 q 167 551 175 556 q 150 540 160 546 z "},"a":{"ha":664,"x_min":-86,"x_max":813,"o":"m 525 932 q 601 866 578 910 q 638 771 624 822 q 678 602 661 688 q 708 431 694 517 l 732 421 q 756 413 742 419 q 782 394 769 406 q 803 365 794 383 q 813 322 813 347 q 809 292 813 307 q 800 261 806 276 q 771 210 789 233 q 736 172 753 188 l 736 160 q 582 -96 736 -11 q 549 -107 564 -104 q 514 -110 533 -110 q 468 -101 489 -110 l 404 -75 q 354 -29 371 -61 q 310 -49 332 -44 q 276 -54 288 -54 q 246 -51 260 -54 q 222 -44 232 -47 q 206 -37 211 -39 l 158 -18 q 13 131 51 24 q -36 163 -17 140 q -67 210 -56 185 q -82 259 -78 235 q -86 296 -86 283 q -76 347 -86 328 q -44 390 -65 375 q 0 411 -24 404 q 28 515 11 464 q 65 617 46 567 q 108 728 86 674 q 154 840 131 783 q 174 882 164 861 q 199 919 185 903 q 234 945 214 935 q 281 956 254 956 q 305 953 294 956 q 325 947 315 950 q 363 963 342 957 q 407 969 383 969 q 461 958 436 969 l 525 932 m 643 375 q 624 377 632 376 q 613 378 617 378 q 596 376 604 378 q 578 394 579 376 q 541 596 560 496 q 494 796 522 696 q 483 829 489 813 q 467 860 476 846 q 442 884 457 875 q 407 893 428 893 q 366 883 385 893 q 331 858 347 872 q 319 865 325 861 q 307 872 314 869 q 281 879 290 879 q 244 851 260 879 q 234 831 239 840 q 225 811 229 822 q 181 701 203 756 q 136 589 158 646 q 101 492 118 540 q 74 392 85 443 q 71 369 71 381 q 65 350 71 358 q 50 340 60 340 q 46 341 49 340 q 38 342 43 342 q 25 340 32 342 q -2 324 6 333 q -10 296 -10 315 q -6 272 -10 286 q 5 242 -1 257 q 21 216 11 228 q 40 201 31 204 q 67 185 58 196 q 83 157 76 175 q 103 119 90 139 q 133 84 117 100 q 171 58 150 68 q 213 49 192 49 q 238 54 226 49 q 251 65 247 60 q 254 79 254 71 q 254 85 254 82 q 251 120 251 103 q 251 156 251 138 q 263 169 251 168 q 323 176 293 172 q 385 183 353 181 q 390 185 388 185 q 401 169 401 185 q 404 151 404 158 q 411 89 408 119 q 415 26 414 58 q 449 -7 418 -7 q 453 -7 450 -7 q 494 5 474 -7 q 533 34 515 17 q 564 72 550 51 q 585 110 578 92 q 596 163 596 136 q 596 217 596 189 q 610 246 596 236 q 647 284 633 261 q 669 335 661 307 q 671 349 671 342 q 643 375 671 371 m 340 369 q 308 367 325 368 q 271 365 290 367 q 296 506 282 438 q 325 647 310 575 q 334 627 332 636 q 338 608 336 618 q 358 389 350 501 q 360 378 360 382 q 358 372 360 374 q 340 369 356 371 m 331 86 l 332 96 l 332 101 l 333 101 l 333 103 l 332 101 l 331 101 l 331 86 z "},"b":{"ha":574,"x_min":-67,"x_max":711,"o":"m 510 918 q 575 876 549 903 q 618 819 601 850 q 642 754 635 788 q 649 690 649 721 q 633 595 649 642 q 592 508 618 549 q 676 424 640 476 q 711 292 711 372 q 697 205 711 247 q 660 124 683 163 q 607 51 638 85 q 543 -10 576 18 q 400 -90 479 -60 q 236 -121 321 -121 q 161 -107 193 -121 l 97 -81 q 39 -42 64 -67 q -3 12 14 -18 q -28 74 -19 42 q -36 136 -36 107 q -27 203 -36 172 q 1 265 -18 235 q -23 341 -17 301 q -29 421 -29 381 q -4 561 -29 494 q -30 583 -21 571 q -42 599 -39 594 q -52 622 -49 610 q -58 643 -56 633 q -65 679 -62 661 q -67 708 -67 697 q -55 785 -67 747 q -22 854 -43 822 q 30 911 0 886 q 97 950 60 936 q 179 973 138 965 q 261 981 221 981 q 356 971 310 981 q 444 944 401 961 l 510 918 m 443 494 q 426 501 435 497 q 406 510 417 506 q 433 538 421 525 q 457 567 446 551 q 499 653 489 615 q 508 714 508 690 q 499 778 508 744 q 468 836 488 811 q 417 874 449 861 q 340 897 378 889 q 261 904 301 904 q 125 879 194 904 q 67 842 92 867 q 27 788 42 818 q 11 736 13 757 q 10 708 10 715 q 18 656 10 681 q 39 626 28 626 q 65 639 47 626 q 203 685 128 685 q 238 682 219 685 q 286 664 276 678 q 296 636 296 650 q 289 600 296 621 q 255 547 278 572 q 208 501 232 521 q 202 496 206 499 q 196 493 199 493 q 190 494 193 493 q 186 542 188 522 q 185 574 185 563 q 186 606 185 590 l 186 614 l 188 631 l 188 639 q 172 657 186 657 q 164 656 168 657 q 117 624 133 647 q 58 505 68 557 q 47 421 47 453 q 58 332 47 378 q 101 265 69 283 q 167 246 133 246 q 190 247 178 246 q 225 263 218 251 q 232 286 232 274 q 229 308 232 296 q 222 336 226 322 q 214 365 218 350 q 212 373 213 371 q 211 376 211 375 q 218 381 211 379 q 245 386 232 383 q 272 389 258 389 q 315 379 296 389 q 339 344 339 367 q 338 335 339 340 q 301 268 331 292 q 235 228 269 244 q 160 206 200 211 q 144 204 151 204 q 93 224 115 204 q 76 235 81 235 q 74 234 76 235 q 64 219 72 233 q 51 199 56 210 q 40 135 40 165 q 43 101 40 125 q 69 39 46 76 q 171 -18 106 -18 q 185 -18 178 -18 q 302 6 243 -14 q 411 61 361 26 q 500 143 461 96 q 558 249 539 190 q 569 319 569 285 q 569 343 569 322 q 553 396 568 364 q 510 453 538 428 q 443 494 482 479 z "},"c":{"ha":547,"x_min":-69,"x_max":675,"o":"m 571 919 q 631 875 604 906 q 658 790 658 844 l 657 764 q 645 688 650 725 q 636 613 640 651 q 634 596 635 604 q 632 581 633 588 l 625 514 q 623 499 624 507 q 621 482 622 490 q 615 439 618 457 q 603 410 611 421 q 634 391 619 404 q 658 354 649 378 q 672 297 668 326 q 675 238 675 267 q 652 111 675 172 q 588 2 629 50 q 488 -74 546 -46 q 363 -103 431 -103 q 246 -72 300 -103 l 182 -46 q 65 47 113 -8 q -13 166 17 101 q -56 300 -43 231 q -69 436 -69 369 q -9 698 -69 576 q 172 896 51 819 q 241 928 208 918 q 317 938 274 938 l 333 933 l 343 933 q 378 952 358 942 q 428 963 397 963 q 464 959 443 963 q 506 946 485 956 l 571 919 m 528 335 q 524 347 526 342 q 519 357 522 351 q 510 365 515 365 q 500 360 506 365 q 449 324 476 335 q 393 314 422 314 q 310 330 350 314 q 246 385 269 346 q 224 442 229 414 q 219 489 219 469 q 223 531 219 506 q 242 590 226 557 q 281 644 257 622 q 297 660 289 653 q 317 671 306 667 q 322 661 322 667 l 324 657 l 324 654 q 364 536 335 597 q 383 511 371 521 q 411 494 396 501 q 431 491 421 492 q 451 489 440 490 q 460 489 457 489 q 476 492 472 489 q 481 515 479 496 q 488 582 485 549 q 496 647 492 615 q 504 725 499 688 q 517 801 510 763 q 518 817 518 810 q 497 864 518 846 q 428 886 471 886 q 391 881 408 886 q 361 865 374 876 q 343 857 351 857 q 336 858 339 857 q 306 861 321 861 q 264 855 288 861 q 213 831 240 849 q 35 606 83 753 q 7 443 7 524 q 28 281 7 363 q 94 130 49 196 q 218 21 139 64 q 299 -1 257 -1 q 332 3 315 -1 q 475 90 421 22 q 526 190 519 144 q 533 265 533 235 q 528 335 533 299 m 297 500 q 296 488 296 496 l 297 500 m 433 403 l 386 422 q 363 433 375 426 q 381 390 367 410 l 393 390 q 417 394 407 390 q 433 403 426 397 z "},"d":{"ha":565,"x_min":-67,"x_max":697,"o":"m 11 356 q 7 369 8 364 q -12 436 -4 401 q -19 510 -19 471 q -6 593 -19 556 q -40 649 -29 618 q -50 710 -50 679 q -24 814 -50 767 q 45 896 3 861 q 141 950 88 931 q 247 969 194 969 q 303 965 276 969 q 357 951 331 960 l 421 925 l 424 925 q 560 851 507 899 q 644 743 614 803 q 685 616 674 683 q 697 481 697 549 q 674 303 697 386 q 603 139 650 219 q 544 58 581 101 q 460 -24 507 14 q 359 -85 414 -61 q 243 -110 304 -110 q 194 -106 218 -110 q 147 -92 169 -101 l 83 -65 q -25 22 17 -37 q -67 158 -67 81 q -49 257 -67 208 q 1 343 -32 306 q 4 346 4 346 l 8 353 q 11 356 11 356 m 540 656 q 333 879 503 826 q 247 893 292 893 q 75 818 153 893 q 39 768 51 794 q 26 713 26 742 q 26 701 26 707 q 58 638 29 663 q 67 632 64 633 q 72 631 71 631 q 81 636 76 631 q 105 658 89 649 q 140 675 121 668 q 179 685 160 682 q 214 689 199 689 q 335 638 279 689 q 377 578 363 613 q 395 519 392 544 q 399 476 399 493 q 395 435 399 460 q 379 388 392 411 q 232 264 332 293 q 214 260 221 261 q 203 258 207 258 q 188 261 196 258 q 201 303 201 282 q 218 438 203 374 q 268 564 233 503 q 275 586 275 576 q 274 597 275 589 q 261 618 272 606 q 224 643 247 636 q 193 647 208 647 q 172 645 186 647 q 138 636 158 643 q 60 540 69 611 q 57 515 57 528 q 58 489 57 501 q 71 419 61 453 q 94 353 81 386 q 108 319 101 336 q 124 282 115 301 q 102 290 110 285 q 86 300 94 294 q 75 304 81 304 q 60 294 67 304 q 19 222 31 260 q 10 160 10 189 q 17 108 10 140 q 53 46 25 76 q 116 3 82 15 q 178 -8 150 -8 q 206 -6 192 -8 q 287 22 247 1 q 360 71 326 42 q 423 135 394 100 q 472 204 451 169 q 547 387 536 310 q 557 506 557 464 q 540 656 557 579 m 279 317 l 278 308 l 278 300 l 279 317 z "},"e":{"ha":508,"x_min":-57,"x_max":640,"o":"m 560 906 q 615 863 593 893 q 636 792 636 833 q 608 698 636 743 q 543 622 579 653 q 591 572 578 606 q 604 513 604 539 q 577 417 604 460 q 511 342 550 374 l 561 322 q 619 272 599 307 q 640 192 640 238 q 622 106 640 146 q 574 35 604 67 q 504 -19 543 4 q 425 -57 465 -43 q 337 -83 386 -71 q 239 -96 288 -96 q 192 -91 215 -96 q 149 -78 169 -86 l 83 -51 q -12 24 25 -28 q -50 149 -50 76 q -35 232 -50 186 q 11 303 -21 278 q -24 336 -11 318 q -45 374 -37 354 q -55 415 -53 394 q -57 456 -57 436 q -49 534 -57 494 q -8 601 -40 574 q -36 642 -26 621 q -51 685 -46 664 q -56 724 -56 706 q -57 756 -57 743 q -48 833 -57 797 q -19 897 -39 869 q 34 939 1 924 q 114 954 67 954 q 164 950 139 954 q 246 940 204 943 q 329 936 288 936 q 378 938 354 936 q 428 942 403 939 l 446 942 q 496 932 475 942 l 560 906 m 499 231 q 451 282 494 274 q 435 283 443 283 q 414 281 424 283 q 407 279 411 281 l 394 278 q 388 276 392 278 l 338 269 q 331 268 335 269 l 318 267 q 311 265 315 267 q 281 260 294 263 q 256 257 267 257 q 239 258 247 257 q 244 292 244 275 q 244 304 244 294 q 242 332 243 314 q 242 344 242 339 q 244 360 242 357 q 268 371 247 364 q 319 388 293 378 q 370 410 346 397 q 415 441 394 424 q 447 483 435 458 q 460 512 456 499 q 464 536 464 525 q 463 549 464 542 q 424 585 458 585 q 408 584 415 585 q 393 582 400 583 q 365 579 379 581 l 310 575 q 282 572 296 574 q 270 571 276 571 q 263 579 264 571 q 251 605 260 594 q 231 625 242 615 q 236 629 235 629 q 249 632 244 632 q 321 648 283 635 q 393 682 358 661 q 454 732 428 703 q 492 796 481 761 q 496 819 496 808 q 483 851 496 836 q 446 867 471 867 q 436 865 442 867 q 383 861 408 863 q 329 860 357 860 q 240 864 285 860 q 151 875 196 868 q 113 878 131 878 q 100 878 106 878 q 51 860 68 875 q 26 814 33 846 q 19 764 19 789 q 22 714 19 739 q 32 678 25 694 q 53 649 39 661 q 68 638 60 642 q 79 628 76 635 q 81 619 81 624 q 78 608 81 615 q 75 590 76 600 q 75 585 75 588 q 75 579 75 582 q 75 576 75 578 q 60 557 75 564 q 35 537 43 550 q 24 507 26 524 q 19 453 19 479 q 19 439 19 446 q 34 387 22 408 q 76 356 46 365 q 89 340 89 351 q 107 260 92 297 q 69 250 86 257 q 44 224 53 243 q 26 167 26 186 q 25 146 25 147 q 47 75 25 110 q 108 19 74 32 q 176 7 142 7 q 197 8 186 7 q 263 19 228 11 q 333 42 299 28 q 399 74 368 56 q 453 114 431 92 q 488 164 476 138 q 499 218 499 190 q 499 231 499 224 m 313 651 l 311 651 q 297 668 304 661 q 282 682 289 675 l 306 661 q 313 651 310 657 z "},"f":{"ha":614,"x_min":-71,"x_max":767,"o":"m -3 550 q -54 631 -37 585 q -71 728 -71 676 q -15 891 -71 828 q 143 954 40 954 q 224 943 182 954 q 307 924 264 931 q 396 914 350 917 q 492 911 444 911 q 586 911 539 911 q 633 903 613 911 l 699 876 q 749 831 732 861 q 767 765 767 801 q 753 697 767 726 q 724 647 742 669 q 687 605 707 624 q 648 573 667 586 q 614 551 629 560 l 576 532 q 606 494 594 517 q 617 440 617 472 q 605 387 617 413 q 574 339 593 361 q 533 298 556 317 q 486 267 510 279 l 510 224 q 521 204 515 214 q 532 183 526 194 q 544 153 539 171 q 550 111 550 135 q 539 50 550 81 q 493 -15 524 13 q 428 -60 463 -42 q 360 -87 394 -78 q 301 -96 325 -96 q 231 -82 265 -96 l 167 -56 q 113 -21 133 -43 q 82 31 93 1 q 67 92 71 60 q 63 154 63 124 q 63 185 63 169 q 65 218 64 201 q 11 248 33 228 q -26 294 -11 268 q -47 351 -40 321 q -54 413 -54 382 q -51 453 -54 432 q -37 497 -47 475 q -3 550 -28 525 m 582 835 q 526 833 554 833 q 485 834 513 833 q 417 838 458 835 q 308 847 361 840 q 201 869 254 854 q 169 878 183 876 q 146 879 156 879 q 126 878 136 879 q 25 813 57 876 q 6 726 6 772 q 10 685 6 707 q 33 626 17 649 q 71 590 49 603 q 122 569 93 576 q 181 558 150 563 q 182 551 182 554 q 179 541 182 547 q 176 528 176 535 q 169 513 175 517 q 151 510 163 510 q 126 512 139 511 q 103 513 114 513 q 29 457 43 513 q 22 413 22 436 q 29 363 22 389 q 60 305 39 322 q 124 285 82 288 q 141 281 139 283 q 143 265 143 279 q 140 205 140 231 q 139 163 139 179 q 139 129 139 146 q 154 54 139 89 q 214 10 169 19 q 238 7 225 7 q 273 12 251 7 q 321 30 294 17 q 368 61 347 43 q 399 97 389 79 q 409 126 408 117 q 410 139 410 136 q 401 171 410 154 q 392 191 397 182 q 379 211 386 200 q 351 263 364 236 q 331 317 339 289 q 328 332 328 328 q 328 335 328 333 q 342 342 329 336 q 450 413 404 360 q 475 457 468 431 q 476 467 476 463 q 469 492 476 481 q 444 511 463 504 q 415 517 431 517 q 399 515 407 517 q 365 513 382 513 q 355 513 361 513 q 342 514 349 514 q 313 513 328 514 q 307 513 310 513 q 275 538 281 513 q 271 549 274 544 q 265 560 268 554 q 269 563 268 563 q 358 581 311 569 q 448 612 404 593 q 531 656 492 631 q 597 717 569 682 q 626 792 626 753 q 588 835 626 835 q 582 835 585 835 m 421 293 q 432 272 426 282 q 444 250 438 261 l 421 293 z "},"g":{"ha":581,"x_min":-69,"x_max":718,"o":"m 569 919 q 631 876 604 906 q 658 792 658 846 q 651 732 658 767 q 647 710 649 721 q 644 688 646 699 l 631 579 q 698 540 678 572 q 718 468 718 508 q 700 365 718 411 q 668 310 688 338 q 673 275 671 292 q 675 239 675 258 q 657 123 675 178 q 605 24 639 68 q 522 -52 571 -21 q 413 -97 474 -83 q 387 -101 400 -100 q 361 -103 374 -103 q 298 -94 328 -103 q 243 -71 268 -85 l 179 -44 q 63 49 111 -6 q -14 166 15 103 q -56 298 -43 229 q -69 435 -69 367 q -54 572 -69 504 q -8 699 -39 639 q 68 810 22 760 q 175 897 114 861 q 233 925 200 913 q 306 938 265 938 q 322 936 314 938 q 339 933 331 935 l 333 939 q 372 955 349 947 q 426 963 394 963 q 461 959 440 963 q 506 946 482 956 l 569 919 m 576 476 q 578 494 578 486 q 576 510 578 501 q 569 524 575 518 q 556 530 564 529 q 544 531 549 531 q 522 529 535 531 q 455 525 482 526 q 411 524 428 524 q 365 525 389 524 q 363 525 364 525 q 317 493 332 525 q 310 456 310 476 q 310 438 310 453 q 322 401 311 424 q 351 360 332 378 q 393 339 369 343 q 430 335 413 335 q 467 336 447 335 q 419 317 439 319 q 388 314 399 314 q 349 318 368 314 q 270 355 301 328 q 228 431 239 382 q 221 489 221 460 q 224 528 221 508 q 247 601 231 568 q 296 658 264 633 q 306 666 301 663 q 319 671 311 669 q 339 617 325 639 q 389 588 353 594 q 415 585 401 585 q 435 586 422 585 q 468 594 449 588 q 492 624 490 603 q 499 671 496 647 l 510 763 q 517 810 514 786 q 517 819 517 814 q 499 863 517 844 q 466 880 486 874 q 426 886 446 886 q 363 867 386 886 q 340 858 351 858 q 335 858 338 858 q 306 861 319 861 q 265 855 288 861 q 214 832 242 849 q 100 732 144 792 q 32 596 56 672 q 8 481 8 521 q 7 435 7 440 q 24 294 7 365 q 89 137 43 207 q 217 22 135 67 q 296 0 256 0 q 365 12 332 0 q 426 44 397 24 q 476 92 454 64 q 511 151 497 119 q 532 226 531 197 q 533 264 533 254 q 525 342 533 303 q 524 350 524 346 q 532 369 524 361 q 563 419 551 392 q 576 476 575 446 z "},"h":{"ha":728,"x_min":-79,"x_max":869,"o":"m 39 210 q 38 215 39 214 q -14 247 8 225 q -51 297 -36 268 q -72 356 -65 325 q -79 417 -79 388 q -7 556 -79 506 q -8 576 -8 567 q -8 596 -8 585 q -7 656 -8 622 q -1 724 -6 689 q 10 791 3 758 q 26 849 17 824 q 101 946 50 907 q 226 985 153 985 q 274 981 247 985 q 325 967 300 978 l 389 940 q 407 932 399 939 q 467 976 431 964 q 543 989 503 989 q 598 983 572 989 q 646 965 624 976 l 711 939 q 751 908 733 929 q 768 851 768 888 q 767 785 768 818 q 765 717 765 751 q 765 647 765 682 q 767 576 765 613 q 837 526 804 561 q 869 436 869 492 q 867 408 869 421 q 860 383 864 394 q 830 341 849 357 q 789 317 811 325 l 790 303 q 801 175 796 242 q 817 47 806 108 l 821 13 q 796 -63 821 -32 q 731 -112 771 -94 q 675 -127 703 -124 q 628 -131 647 -131 q 576 -126 600 -131 q 531 -112 551 -121 l 467 -87 q 422 -61 442 -76 q 388 -26 403 -46 q 355 -47 374 -39 q 308 -56 336 -56 q 246 -43 274 -56 l 182 -18 q 128 17 151 -6 q 90 64 106 39 q 64 114 74 89 q 50 157 54 139 l 39 210 m 711 506 q 676 531 699 524 q 663 536 669 533 q 649 540 656 539 q 632 548 636 542 q 628 565 628 554 q 624 678 625 636 q 624 735 624 721 q 626 847 624 790 q 626 863 626 856 q 628 878 626 871 q 615 896 628 892 q 574 910 592 907 q 544 914 557 914 q 519 911 532 914 q 472 892 488 907 q 451 844 457 876 q 435 749 443 796 q 422 653 428 701 q 418 615 419 633 q 415 578 417 597 q 411 566 414 571 q 400 561 408 561 q 374 563 388 563 q 353 562 367 563 q 317 561 340 561 q 324 615 321 589 l 336 724 q 343 778 340 751 q 347 801 346 792 q 347 814 347 810 q 346 832 347 822 q 319 883 340 869 q 267 906 299 896 q 229 908 247 908 q 162 895 196 908 q 99 822 128 882 q 86 781 89 804 q 71 673 74 719 q 68 593 68 626 q 69 538 68 565 q 66 517 69 525 q 51 503 63 510 q -3 418 -3 475 q -1 401 -3 410 q 4 365 0 383 q 18 332 8 347 q 43 299 29 313 q 78 286 57 286 q 82 286 79 286 q 106 265 101 286 q 115 219 110 242 q 125 174 119 197 q 164 92 133 128 q 199 60 176 74 q 244 47 221 47 q 275 63 268 47 q 282 99 282 79 l 283 107 l 283 158 l 285 167 q 287 245 285 207 q 292 324 289 283 q 314 347 293 346 q 349 353 332 350 q 383 360 367 357 q 393 361 390 361 q 399 359 397 361 q 401 344 400 357 l 401 328 q 403 236 403 282 q 407 143 403 190 q 417 90 410 117 q 436 39 424 63 q 469 -1 449 15 q 519 -24 489 -18 q 564 -28 542 -28 q 631 -17 599 -28 q 672 7 663 -7 q 681 38 681 21 q 678 60 681 47 q 669 117 672 88 q 664 174 667 146 q 664 176 664 175 l 663 183 q 663 186 663 185 l 660 210 q 660 213 660 211 l 658 219 q 658 222 658 221 l 650 322 q 650 325 650 324 l 649 332 q 649 335 649 333 l 646 358 q 646 361 646 360 l 644 368 q 644 371 644 369 q 643 390 643 383 q 645 401 643 397 q 671 407 647 404 q 703 415 689 408 q 724 440 717 422 q 728 463 728 451 q 725 479 728 468 q 711 506 722 490 z "},"i":{"ha":322,"x_min":-60,"x_max":454,"o":"m 328 911 q 394 879 369 900 q 433 832 419 858 q 450 778 446 806 q 454 725 454 750 q 453 686 454 706 q 450 656 451 671 l 440 583 l 419 460 q 414 424 417 442 l 406 356 q 400 319 403 338 l 381 165 l 369 88 q 356 27 364 58 q 333 -30 347 -4 q 294 -72 318 -56 q 231 -89 269 -89 q 208 -86 218 -89 q 188 -81 197 -83 l 122 -54 q 103 -43 111 -49 q 88 -33 94 -37 q 35 33 58 -8 q -3 124 13 74 q -31 232 -19 175 q -48 344 -42 289 q -57 449 -54 399 q -60 536 -60 499 q -55 684 -60 608 q -22 826 -50 760 q 19 886 -6 863 q 74 924 44 910 q 133 943 103 938 q 189 949 163 949 q 264 938 226 949 l 328 911 m 311 788 q 269 855 306 838 q 189 872 232 872 q 73 831 108 872 q 26 718 38 790 q 18 627 19 672 q 17 536 17 582 q 21 430 17 488 q 33 313 25 372 q 55 197 42 253 q 88 94 68 140 q 109 58 97 75 q 136 26 121 42 q 167 14 153 14 q 196 27 185 14 q 214 56 207 40 q 223 90 219 72 q 229 125 226 107 q 268 403 249 265 q 308 682 288 542 q 313 726 311 708 q 314 753 314 743 q 311 788 314 769 z "},"j":{"ha":553,"x_min":-71,"x_max":689,"o":"m 254 469 q 215 465 236 465 q 146 478 178 465 l 82 504 q 24 546 47 519 q -12 602 1 572 q -32 663 -26 632 q -37 717 -37 694 q -27 799 -37 758 q 6 874 -17 840 q 61 931 28 907 q 140 960 94 954 q 240 972 190 965 q 339 979 289 979 q 417 977 378 979 q 494 963 457 975 l 560 936 q 606 916 583 929 q 647 883 629 903 q 677 835 665 863 q 689 769 689 807 q 610 617 689 672 l 594 608 l 607 578 l 618 539 q 642 433 633 486 q 650 322 650 379 q 631 158 650 238 q 571 17 613 78 q 463 -82 529 -44 q 301 -119 396 -119 q 233 -113 268 -119 q 163 -93 197 -107 l 99 -67 q 33 -31 64 -53 q -20 21 3 -10 q -57 90 -43 51 q -71 175 -71 128 q -53 274 -71 225 q -1 360 -35 322 q 40 394 18 379 q 90 410 61 410 l 154 383 q 178 381 164 383 l 179 381 q 219 388 203 381 q 243 419 235 396 q 254 469 253 440 m 467 892 q 393 901 425 899 q 340 903 361 903 q 299 901 319 903 q 224 893 261 899 q 150 883 188 888 q 73 839 97 878 q 42 753 49 800 q 39 717 39 735 q 41 683 39 704 q 57 633 43 663 q 151 568 88 568 q 192 575 168 568 q 216 585 204 579 q 240 599 228 592 q 270 617 256 607 q 304 633 285 626 q 329 542 328 575 q 331 500 331 510 q 318 403 331 453 q 238 313 299 338 q 203 305 218 306 q 178 304 188 304 q 157 304 168 304 q 128 309 142 304 q 106 325 115 314 q 90 335 97 335 q 86 334 90 335 q 75 326 82 333 q 57 310 65 321 q 18 243 31 279 q 6 175 6 207 q 8 138 6 165 q 38 72 11 111 q 117 8 64 33 q 188 -14 157 -11 q 239 -17 219 -17 q 289 -14 264 -17 q 376 19 339 -7 q 440 83 414 46 q 481 165 465 121 q 503 256 497 210 q 510 349 510 303 q 506 424 510 375 q 481 544 501 474 q 457 612 471 579 q 404 664 443 644 q 438 676 422 671 q 469 688 454 681 q 510 713 493 697 q 539 753 528 729 q 549 796 549 775 q 533 850 549 818 q 467 892 517 882 z "},"k":{"ha":625,"x_min":-62,"x_max":758,"o":"m 618 917 q 680 867 656 901 q 718 792 704 833 q 738 706 732 750 q 743 626 743 663 q 724 567 743 588 q 692 540 706 547 q 641 510 667 525 q 589 479 615 494 q 550 454 569 468 q 511 424 531 440 l 513 424 q 596 361 554 385 q 617 356 610 358 l 681 329 q 731 301 713 321 q 756 256 749 282 q 758 232 758 244 q 758 207 758 219 q 731 78 758 140 q 654 -28 704 17 q 617 -51 639 -40 q 568 -62 596 -62 q 524 -55 544 -62 q 490 -40 503 -47 l 426 -14 q 399 2 411 -7 q 376 18 386 11 q 366 28 371 24 q 354 38 361 32 l 354 6 q 346 -33 354 -17 q 309 -78 335 -61 q 250 -94 283 -94 q 190 -83 219 -94 l 126 -57 q 62 -6 88 -40 q 22 67 36 28 q -37 290 -11 178 q -62 526 -62 401 q -56 664 -62 590 q -24 801 -49 738 q 51 906 1 864 q 185 947 100 947 q 234 943 204 947 q 289 928 264 939 l 336 907 q 338 906 338 907 q 340 906 339 906 l 349 903 q 351 902 350 903 q 353 901 351 901 q 376 886 365 896 q 426 929 394 906 q 501 953 457 953 q 554 943 528 953 l 618 917 m 617 261 q 597 282 615 278 q 465 339 521 299 q 356 432 408 379 l 347 442 q 343 450 343 446 q 350 463 343 456 q 415 522 382 493 q 488 572 447 551 q 539 602 514 588 q 589 632 564 617 q 603 653 603 639 q 599 713 603 675 q 583 787 594 750 q 553 850 572 824 q 501 876 533 876 q 460 862 478 876 q 429 829 442 847 q 379 754 400 794 q 322 657 353 704 q 267 558 292 610 q 258 551 264 551 q 261 567 260 560 l 264 593 q 267 608 265 601 q 278 685 272 647 q 286 761 285 722 q 286 776 286 768 q 284 807 286 790 q 271 843 282 824 q 255 858 265 853 q 232 867 244 864 q 207 870 219 869 q 185 871 194 871 q 124 858 150 871 q 78 824 97 846 q 48 775 60 803 q 31 717 36 747 q 14 526 14 622 q 21 404 14 465 q 51 245 31 322 q 96 89 71 168 q 128 33 103 57 q 186 8 153 8 q 207 15 201 10 q 214 35 213 19 q 215 170 214 103 q 225 304 217 238 q 227 319 226 311 q 238 331 228 326 q 242 324 239 329 q 280 243 256 285 q 335 163 304 201 q 403 94 367 125 q 478 46 439 64 q 503 40 489 40 q 539 56 521 40 q 618 232 618 131 q 617 261 618 247 m 528 390 q 501 406 517 396 q 507 403 504 404 q 526 389 526 389 q 526 389 526 389 q 525 390 526 389 q 521 393 521 393 q 522 393 521 393 q 528 390 522 393 z "},"l":{"ha":497,"x_min":-64,"x_max":649,"o":"m 385 913 q 444 872 417 901 q 472 790 472 842 q 471 767 472 778 q 467 746 469 756 q 423 563 444 656 q 390 378 401 469 q 416 380 403 379 q 443 381 429 381 q 499 369 469 381 l 563 343 q 624 295 599 328 q 649 217 649 263 q 635 154 649 186 q 588 82 619 115 q 515 21 556 49 q 428 -28 474 -7 q 340 -65 383 -50 q 262 -88 297 -81 q 204 -96 226 -96 q 122 -81 160 -96 l 58 -54 q -1 -14 22 -40 q -39 44 -25 13 q -58 108 -53 75 q -64 169 -64 140 q -55 249 -64 207 q -14 314 -46 290 q -33 421 -26 368 q -39 531 -39 474 q -31 672 -39 597 q 6 808 -22 746 q 85 913 33 871 q 224 954 138 954 q 266 952 239 954 q 321 939 293 950 l 385 913 m 443 304 q 401 301 422 304 q 360 294 381 299 q 295 282 328 289 q 229 272 263 275 q 226 282 226 278 q 228 289 226 286 q 272 541 249 415 q 328 790 296 667 q 332 817 332 806 q 283 871 332 861 q 224 878 251 878 q 138 855 172 878 q 83 796 104 832 q 53 715 63 760 q 42 628 44 671 q 38 531 38 579 q 42 431 38 493 q 71 283 46 368 q 74 268 74 274 q 72 265 74 267 q 56 260 71 263 q 29 250 38 257 q 18 225 21 243 q 13 169 13 197 q 17 119 13 144 q 64 32 28 57 q 139 7 100 7 q 175 11 157 7 q 328 64 258 31 q 461 154 399 97 q 487 185 476 169 q 504 219 497 200 q 508 243 508 232 q 494 283 508 264 q 443 304 479 301 z "},"m":{"ha":836,"x_min":-60,"x_max":960,"o":"m 774 942 q 822 913 797 932 q 867 871 847 894 q 901 819 888 847 q 914 764 914 792 q 904 717 914 739 q 918 672 911 699 q 949 486 938 579 q 960 299 960 393 q 958 216 960 254 q 949 142 956 178 q 928 72 942 107 q 892 -1 915 36 q 808 -85 856 -57 q 701 -122 760 -114 l 679 -125 q 651 -122 669 -125 q 614 -112 633 -119 l 550 -86 q 497 -42 511 -71 q 482 26 482 -14 l 483 39 l 483 44 l 485 51 q 458 53 471 51 q 439 57 447 54 l 397 74 l 399 63 q 396 41 399 51 q 390 21 393 31 q 362 -19 381 -3 q 320 -44 343 -35 q 272 -58 297 -54 q 222 -62 246 -62 q 128 -43 174 -62 l 63 -18 q -1 22 22 1 q -37 88 -24 42 q -56 187 -53 135 q -60 288 -60 239 q -56 410 -60 340 q -42 551 -51 479 q -18 692 -33 624 q 19 810 -3 760 q 12 829 15 821 q 8 850 8 838 q 28 906 8 882 q 78 944 49 929 q 141 967 107 960 q 201 975 175 975 q 244 971 224 975 l 308 944 l 311 944 q 383 913 356 938 q 428 860 410 888 q 433 851 431 856 q 438 842 435 847 q 469 890 450 865 q 511 936 488 915 q 565 970 535 957 q 632 983 594 983 q 710 968 671 983 l 774 942 m 779 682 q 772 710 776 697 q 757 736 767 724 q 753 749 753 743 q 758 760 753 756 q 774 788 774 774 q 773 797 774 789 q 764 819 772 804 q 710 881 746 856 q 632 907 674 907 q 594 899 613 907 q 560 877 576 890 q 531 847 544 864 q 510 815 518 831 q 465 715 485 765 q 431 610 444 664 q 428 601 428 606 q 421 593 428 596 q 363 722 393 658 q 297 847 333 786 q 270 880 286 867 q 232 896 254 893 q 200 899 215 899 q 103 871 149 899 q 87 858 89 863 q 85 850 85 853 q 89 833 85 843 q 90 831 90 832 l 92 824 q 93 821 93 822 q 99 806 99 813 q 98 800 99 804 q 93 788 97 796 q 68 719 79 758 q 49 639 57 681 q 37 557 42 597 q 29 485 32 517 q 19 361 21 410 q 17 288 17 313 q 21 189 17 239 q 28 143 24 165 q 39 99 32 121 q 46 83 42 90 q 57 72 50 76 q 158 40 103 40 q 231 54 194 40 q 257 89 257 64 q 257 96 257 92 q 256 115 256 106 q 253 135 256 125 q 243 237 247 186 q 238 340 239 288 l 238 481 l 244 482 l 249 475 q 291 381 271 428 q 326 283 311 333 q 338 246 331 268 q 355 203 344 224 q 380 167 365 182 q 415 153 394 153 q 454 189 443 153 l 454 190 l 456 193 q 508 357 476 278 q 575 515 540 436 q 578 524 576 519 q 589 532 581 529 q 583 283 589 406 q 560 35 576 160 q 558 19 558 26 q 567 -8 558 3 q 604 -21 576 -18 q 615 -22 610 -22 q 625 -21 621 -22 q 707 10 672 -14 q 765 69 742 35 q 801 147 789 104 q 817 233 814 190 q 819 324 819 279 q 811 481 819 392 q 779 682 803 569 z "},"n":{"ha":676,"x_min":-58,"x_max":806,"o":"m 656 919 q 728 874 700 901 q 774 813 757 847 q 799 738 792 778 q 806 656 806 699 l 804 622 q 793 475 800 550 q 774 324 786 400 q 743 174 763 249 q 692 26 724 99 q 665 -23 679 1 q 631 -65 650 -47 q 587 -94 611 -83 q 531 -106 563 -106 q 471 -94 500 -106 l 407 -68 q 350 -31 376 -54 q 313 -71 338 -54 q 253 -87 289 -87 q 190 -75 218 -87 l 125 -49 q 22 40 58 -24 q -33 180 -15 103 q -55 336 -51 257 q -58 474 -58 415 q -56 579 -58 519 q -44 699 -54 639 q -12 812 -33 758 q 47 899 8 865 q 99 934 69 919 q 168 949 129 949 q 223 946 192 949 q 286 929 254 943 l 342 907 q 414 950 374 936 q 494 964 454 964 q 592 946 546 964 l 656 919 m 317 914 q 313 915 315 915 q 324 908 318 913 q 333 900 329 904 q 317 914 328 907 m 654 774 q 633 819 649 799 q 597 856 618 840 q 549 879 575 871 q 494 888 522 888 q 440 878 467 888 q 389 847 413 869 q 378 835 381 840 q 376 825 376 829 q 379 811 376 818 q 400 747 392 779 q 414 681 408 714 q 427 560 426 604 q 428 503 428 515 q 422 376 428 440 q 419 335 421 356 q 411 292 418 314 q 399 308 401 299 q 393 326 396 318 q 369 417 378 371 q 351 508 360 463 q 328 644 338 576 q 317 781 319 711 q 287 840 317 818 q 224 868 257 863 q 198 871 211 871 q 172 872 185 871 q 168 872 171 872 q 99 843 131 872 q 47 758 63 810 q 28 660 32 707 q 18 474 18 567 q 28 288 18 381 q 40 208 32 253 q 64 122 47 163 q 109 51 81 82 q 181 15 138 21 q 189 15 185 15 q 213 24 203 15 q 222 50 222 32 q 222 54 222 51 q 228 254 222 150 q 246 453 235 358 q 246 465 246 458 q 254 475 246 471 q 266 379 257 436 q 291 263 275 322 q 327 149 307 203 q 372 61 347 94 q 394 35 382 46 q 419 13 406 24 q 467 -3 443 -3 q 526 29 499 -3 q 589 160 564 79 q 629 331 614 242 q 652 506 644 419 q 664 653 660 592 q 665 682 665 668 q 654 774 665 729 z "},"o":{"ha":507,"x_min":-68,"x_max":635,"o":"m 403 913 q 456 877 431 900 q 502 826 482 854 q 535 765 522 797 q 550 704 549 733 q 597 633 579 681 q 622 532 614 586 q 633 424 631 478 q 635 332 635 369 q 622 217 635 271 q 593 114 608 163 q 560 39 581 76 q 508 -28 539 1 q 434 -77 476 -58 q 338 -96 392 -96 q 293 -92 314 -96 q 256 -85 274 -89 q 222 -74 238 -81 l 158 -47 q 48 34 92 -19 q -22 151 4 88 q -58 279 -47 215 q -68 392 -68 343 q -25 651 -68 524 q 97 883 18 778 q 171 939 129 924 q 253 954 213 954 q 294 951 272 954 q 339 939 317 947 l 403 913 m 493 385 q 493 411 493 397 q 492 457 493 431 q 486 515 490 483 q 476 582 482 549 q 454 647 469 615 q 438 671 447 661 q 411 682 429 681 q 400 690 400 683 q 403 697 400 693 q 410 718 410 708 q 409 728 410 721 q 404 747 408 735 q 350 839 389 800 q 253 878 311 878 q 200 868 225 878 q 158 836 175 858 q 56 648 92 744 q 10 436 19 551 q 8 392 8 414 q 18 285 8 343 q 57 163 28 228 q 126 62 85 104 q 239 10 168 19 q 272 7 256 7 q 342 19 306 7 q 410 75 378 32 q 437 118 425 96 q 456 164 449 140 q 485 267 475 219 q 494 356 494 315 q 493 385 494 369 m 335 268 q 330 249 333 258 q 322 232 326 240 q 299 217 314 217 q 274 231 282 217 q 264 258 267 244 q 258 311 258 285 q 259 335 258 317 q 267 385 260 353 q 304 510 282 450 q 313 503 311 507 q 317 494 315 499 q 340 403 338 440 q 343 350 343 367 q 335 268 343 310 z "},"p":{"ha":588,"x_min":-82,"x_max":729,"o":"m 538 897 q 611 857 576 881 q 672 799 646 833 q 714 719 699 764 q 729 617 729 675 q 671 405 729 496 q 515 247 613 314 l 526 221 q 541 189 533 204 q 558 158 549 174 l 572 135 q 588 82 588 107 q 561 15 588 42 q 507 -35 535 -12 q 423 -84 468 -62 q 329 -106 378 -106 q 258 -92 293 -106 l 194 -65 q 120 -8 149 -47 q 76 78 92 31 q 55 177 60 126 q 50 271 50 228 q 55 377 50 324 q 71 483 60 431 l 31 500 q -17 534 4 511 q -52 585 -37 557 q -74 643 -67 613 q -82 701 -82 674 q -64 801 -82 756 q -13 881 -46 847 q 65 935 19 914 q 165 961 111 956 q 203 963 185 963 q 242 964 222 964 q 353 956 292 964 q 474 924 415 947 l 538 897 m 371 317 q 389 324 381 319 q 406 335 397 329 q 544 476 500 400 q 589 643 589 553 q 588 669 589 656 q 533 792 581 740 q 407 867 486 844 q 308 885 349 882 q 240 888 267 888 q 172 885 207 888 q 54 839 96 878 q 0 747 13 800 q -6 700 -6 724 q 0 654 -6 682 q 36 590 6 626 q 75 568 54 568 q 108 579 89 568 l 136 597 q 160 612 147 604 q 186 622 172 619 q 189 617 189 619 q 188 611 189 614 q 139 438 151 521 q 126 276 126 354 q 126 244 126 260 q 132 169 126 211 q 153 88 138 126 q 195 24 168 50 q 265 -3 222 -3 q 358 26 313 -3 q 435 86 403 56 q 447 108 447 96 q 442 124 447 115 q 417 167 428 147 q 397 207 406 188 q 379 248 388 226 q 361 296 371 269 q 358 306 358 301 q 359 310 358 307 q 371 317 360 313 m 335 378 q 304 500 314 433 q 294 625 294 567 q 299 645 294 643 q 313 647 303 647 q 324 647 317 647 q 421 578 401 643 q 425 547 425 563 q 424 533 425 544 q 418 503 424 522 q 388 437 408 467 q 335 378 367 407 z "},"q":{"ha":507,"x_min":-68,"x_max":636,"o":"m 404 925 q 458 891 432 914 q 503 839 483 868 q 535 778 522 810 q 549 718 547 747 q 594 653 576 699 q 620 556 611 608 q 633 453 629 504 q 636 372 636 403 q 614 193 636 282 q 543 28 592 104 l 511 40 l 535 18 q 525 6 529 10 l 551 -6 q 563 -36 558 -19 q 568 -72 568 -53 q 566 -94 568 -85 q 561 -114 564 -104 q 530 -155 550 -140 q 494 -176 510 -169 l 467 -185 q 391 -210 422 -194 q 315 -258 360 -226 q 289 -273 307 -264 q 244 -282 271 -282 q 204 -275 225 -282 l 140 -249 q 96 -215 113 -236 q 57 -142 69 -187 q 44 -60 44 -97 q 68 26 44 -8 q 6 107 32 61 q -36 204 -19 153 q -60 308 -53 256 q -68 410 -68 361 q -49 574 -68 492 q 0 732 -31 657 l 21 779 q 57 841 36 811 q 96 894 78 871 q 169 951 128 935 q 253 968 211 968 q 294 965 272 968 q 340 951 317 961 l 404 925 m 483 549 q 477 588 482 564 q 464 636 472 613 q 443 677 456 660 q 411 696 431 694 q 400 704 400 697 q 403 713 400 708 q 410 733 410 722 q 409 740 410 733 q 406 757 408 746 q 352 852 390 813 q 253 892 314 892 q 199 882 225 892 q 157 849 174 872 q 82 726 110 786 q 35 592 54 667 q 8 408 8 499 q 9 353 8 403 q 44 207 10 303 q 100 103 65 149 q 194 33 135 57 q 196 31 196 32 q 199 28 196 31 l 175 19 q 121 -60 121 -3 q 121 -68 121 -64 q 124 -98 121 -79 q 135 -135 128 -117 q 154 -167 143 -154 q 181 -181 165 -181 q 207 -169 192 -181 q 291 -116 247 -140 q 386 -83 335 -92 q 401 -79 397 -81 q 428 -46 428 -68 q 425 -31 428 -39 q 365 25 411 10 q 356 26 361 26 q 344 33 350 26 q 406 86 381 53 q 449 159 432 119 q 475 241 465 199 q 490 321 485 283 q 494 397 494 360 q 492 454 494 417 q 483 549 490 492 m 333 278 q 331 271 332 275 l 326 257 q 324 250 325 254 q 299 232 317 232 q 296 232 297 232 q 282 237 289 232 q 271 250 275 242 q 261 289 264 267 q 258 326 258 308 q 261 366 258 342 q 272 424 264 390 q 306 529 285 476 q 332 464 325 496 q 342 399 339 432 q 344 350 344 374 q 344 326 344 344 q 333 278 343 308 z "},"r":{"ha":606,"x_min":-72,"x_max":739,"o":"m 489 918 l 489 917 q 597 865 553 897 q 667 789 640 832 q 704 694 693 746 q 715 585 715 643 q 698 481 715 532 q 646 388 681 429 q 719 331 699 371 q 739 240 739 292 q 722 157 739 197 q 674 85 704 117 q 605 36 644 54 q 521 18 565 18 q 504 17 510 18 q 497 17 499 17 q 482 19 490 17 q 461 -41 482 -17 q 409 -81 440 -65 q 342 -104 378 -97 q 276 -111 306 -111 q 193 -96 232 -111 l 129 -69 q 17 30 54 -37 q -19 175 -19 97 q -6 308 -19 243 q 25 438 7 372 l 94 483 l 40 506 q 18 517 28 511 q 3 529 8 524 q -53 610 -35 563 q -72 706 -72 657 q -58 797 -72 754 q -16 874 -43 840 q 51 931 11 908 q 139 961 90 954 q 192 968 167 965 q 246 971 218 971 q 335 965 290 971 q 424 943 381 958 l 489 918 m 593 307 q 550 343 588 336 q 485 353 518 347 q 424 375 451 360 q 449 393 438 385 q 471 410 460 401 q 535 480 510 442 q 571 565 561 518 q 576 610 576 588 q 574 639 576 619 q 568 690 572 658 q 526 789 558 750 q 449 851 494 828 q 351 885 404 875 q 246 894 299 894 q 140 884 193 894 q 49 832 86 874 q 19 782 31 811 q 6 734 7 753 q 4 708 4 715 q 10 658 4 685 q 33 610 17 632 q 81 574 61 574 q 128 594 97 574 q 142 606 135 600 q 160 614 149 611 q 115 474 135 544 q 78 333 94 404 q 61 251 67 289 q 56 182 56 214 q 57 154 56 168 q 99 46 60 93 q 200 -8 139 -1 q 217 -10 208 -10 q 259 -3 236 -10 q 307 13 282 3 q 338 31 335 24 q 342 43 342 38 q 333 72 342 54 l 329 82 q 307 154 317 118 q 292 226 297 190 q 307 214 303 221 q 318 200 311 207 q 379 145 344 169 q 457 121 414 121 q 519 139 489 121 q 583 202 568 167 q 597 268 597 238 q 593 307 597 288 m 303 414 q 290 408 296 411 q 279 406 285 406 q 274 406 276 406 q 272 442 272 424 q 273 467 272 450 q 276 511 274 485 q 284 572 278 543 q 290 628 290 601 q 290 639 290 633 q 310 653 290 653 q 314 653 313 653 q 385 627 357 653 q 414 561 414 601 q 378 474 411 510 q 303 414 346 438 m 418 46 q 433 43 426 43 q 440 44 435 43 q 457 44 446 44 q 418 49 438 44 l 418 46 z "},"s":{"ha":599,"x_min":-62,"x_max":725,"o":"m 574 901 q 629 872 603 889 q 676 829 656 854 q 709 772 697 804 q 721 697 721 739 q 701 587 721 644 q 640 493 681 529 q 702 409 679 458 q 725 293 725 360 q 701 158 725 218 q 624 47 678 99 q 481 -56 563 -11 q 301 -100 400 -100 q 186 -78 236 -100 l 121 -51 q -10 53 40 -19 q -61 221 -61 126 q -47 317 -61 272 q 11 394 -32 363 q -48 492 -33 439 q -62 606 -62 546 l -60 624 l -60 633 q -16 772 -54 711 q 80 874 22 832 q 210 937 138 915 q 354 958 282 958 q 426 952 385 958 q 510 928 468 946 l 574 901 m 485 492 q 433 515 460 507 q 378 531 406 524 q 313 540 346 538 q 247 546 279 542 q 208 557 228 546 q 197 575 197 564 q 199 582 197 578 q 232 624 206 608 q 292 651 260 643 q 358 660 325 660 q 481 579 446 657 q 497 557 489 557 q 519 571 506 557 q 531 582 526 575 q 581 724 581 642 q 550 808 581 772 q 475 861 519 844 q 413 876 444 872 q 354 882 382 879 q 239 865 297 881 q 133 817 181 849 q 53 740 85 786 q 17 628 21 693 q 15 611 17 619 q 14 596 14 603 q 33 497 14 536 q 84 432 51 457 q 161 394 117 407 q 257 376 206 382 l 271 376 q 278 375 274 375 l 336 369 q 343 368 340 369 l 357 368 q 364 367 360 367 q 388 362 376 365 q 410 350 399 358 q 422 329 422 340 q 410 308 422 319 q 379 294 396 299 q 286 281 336 281 q 235 283 261 281 q 183 291 208 285 q 135 309 158 297 q 96 342 113 321 q 85 347 92 347 q 78 346 82 347 q 18 264 25 321 q 15 221 15 242 q 26 147 15 188 q 81 65 38 106 q 160 15 119 28 q 236 1 200 1 q 268 4 251 1 q 397 47 339 14 q 506 128 456 79 q 585 310 582 201 q 585 319 585 314 q 485 492 585 435 z "},"t":{"ha":568,"x_min":-81,"x_max":719,"o":"m 88 461 l 86 461 q 85 463 85 463 l 21 489 q -21 516 -3 499 q -51 553 -39 533 q -69 592 -62 572 q -78 625 -76 611 q -80 652 -79 639 q -81 679 -81 665 q -52 815 -81 761 q 25 902 -24 869 q 138 949 74 935 q 272 963 201 963 q 387 954 328 963 q 499 924 446 946 l 563 897 q 622 865 594 885 q 672 821 650 846 q 707 765 694 796 q 719 699 719 735 q 708 636 719 674 q 682 578 697 599 q 648 545 669 558 q 596 532 626 532 q 556 536 576 532 q 499 540 529 540 l 501 501 q 503 413 503 454 q 508 332 504 372 q 521 257 513 294 q 544 178 529 219 l 557 143 q 563 118 560 132 q 567 88 567 104 q 564 63 567 75 q 557 40 561 51 q 508 -24 542 3 q 438 -69 475 -51 q 367 -95 401 -86 q 317 -104 333 -104 q 281 -101 297 -104 q 250 -92 265 -97 l 186 -65 q 120 -16 146 -49 q 80 56 94 17 q 60 139 65 96 q 56 221 56 182 q 64 343 56 283 q 88 461 72 403 m 560 785 q 515 829 540 813 q 460 857 490 846 q 274 886 371 886 q 235 885 254 886 q 165 876 201 883 q 96 854 128 869 q 40 815 64 839 q 6 753 15 790 q -3 706 -3 724 q -4 682 -4 688 q -1 635 -4 658 q 8 603 1 618 q 26 576 15 589 q 68 556 46 556 q 85 558 76 556 q 100 564 93 561 l 131 578 q 176 597 153 588 q 226 615 199 607 q 199 548 211 581 q 176 483 188 515 q 132 224 132 358 q 133 186 132 206 q 141 126 136 156 q 157 69 146 97 q 174 40 164 54 q 199 16 185 26 q 228 2 214 6 q 253 -1 242 -1 q 274 1 263 -1 q 332 21 304 8 q 383 53 360 33 q 411 78 401 67 q 424 98 421 89 q 426 115 426 107 q 424 131 426 121 q 414 163 422 142 l 414 164 l 413 165 l 413 167 l 410 174 l 410 175 l 408 176 q 381 267 390 221 q 367 360 371 313 q 361 433 361 397 q 362 448 361 439 q 363 471 363 457 q 361 526 363 499 q 357 572 361 550 q 339 614 353 594 q 333 624 336 619 q 331 632 331 628 q 332 638 331 635 q 375 642 354 640 q 418 644 396 644 q 460 642 439 644 q 503 638 482 640 q 525 634 519 635 q 532 633 531 633 q 546 637 540 633 q 556 649 551 640 q 568 674 561 658 q 569 676 569 676 l 569 682 q 571 685 571 685 q 578 725 578 706 q 560 785 578 756 z "},"u":{"ha":593,"x_min":-61,"x_max":719,"o":"m 533 908 q 598 866 568 893 q 650 806 628 839 q 687 735 672 772 q 706 661 701 699 q 716 558 713 610 q 719 456 719 507 q 713 324 719 389 q 688 199 706 260 q 638 83 669 139 q 557 -19 606 28 q 472 -77 521 -56 q 368 -99 422 -99 q 296 -89 331 -99 q 229 -62 261 -79 q 226 -61 228 -61 l 163 -35 q 47 60 92 6 q -21 180 3 115 q -53 316 -44 244 q -61 463 -61 388 q -58 548 -61 499 q -50 649 -56 597 q -35 751 -44 701 q -14 839 -26 801 q 16 897 -3 874 q 58 933 35 919 q 109 953 82 947 q 163 958 136 958 q 258 939 213 958 l 314 917 q 351 941 329 935 q 401 947 374 947 q 469 935 436 947 l 533 908 m 565 678 q 532 774 558 732 q 465 849 506 815 q 434 867 450 863 q 403 871 418 871 q 394 871 399 871 q 371 850 371 871 q 371 843 371 847 q 374 833 372 839 l 378 815 q 381 806 379 811 q 422 626 417 699 q 426 517 426 553 q 417 368 426 443 q 411 344 415 360 q 399 312 407 328 q 382 284 392 296 q 361 272 372 272 q 339 282 350 272 q 315 318 322 297 q 297 399 304 354 q 290 510 290 454 q 294 591 290 536 q 325 726 297 646 q 329 749 329 738 q 318 789 329 768 q 248 861 289 840 q 164 882 207 882 q 139 881 151 882 q 72 844 90 875 q 47 771 54 813 q 25 621 32 696 q 15 463 18 546 q 19 369 15 415 q 31 279 24 324 q 85 135 44 196 q 200 32 126 74 q 251 10 225 17 q 303 4 278 4 q 410 38 364 4 q 490 122 457 71 q 544 231 524 172 q 569 339 564 289 q 579 482 579 411 q 578 544 579 496 q 565 678 576 593 z "},"v":{"ha":508,"x_min":-69,"x_max":643,"o":"m 514 919 q 574 876 550 903 q 614 817 599 850 q 636 746 629 783 q 643 671 643 708 q 638 590 643 631 q 626 510 632 550 q 574 286 608 394 q 500 75 539 178 q 485 41 494 61 q 465 0 476 21 q 441 -40 453 -21 q 417 -69 429 -58 q 381 -91 401 -82 q 336 -100 361 -100 q 285 -92 308 -100 q 250 -76 261 -83 l 186 -51 q 128 -3 156 -36 q 78 72 101 29 q 36 164 56 115 q 2 260 17 213 q -23 351 -12 308 q -40 424 -33 393 l -51 479 q -64 555 -58 517 q -69 632 -69 593 q -58 743 -69 686 q -21 847 -47 800 q 50 923 6 893 q 160 953 94 953 q 199 949 176 953 q 244 935 221 946 l 288 918 q 323 947 301 936 q 376 958 344 958 q 449 944 419 958 l 514 919 m 501 715 q 494 772 500 743 q 474 824 488 800 q 438 865 460 849 q 383 882 415 881 q 376 882 379 882 q 339 839 339 882 l 339 803 l 340 729 q 331 538 340 633 q 301 347 322 442 q 299 340 300 343 q 293 333 299 336 q 279 394 285 364 q 267 456 274 424 q 244 585 250 526 q 239 689 239 643 q 240 744 239 717 q 242 771 242 757 q 241 785 242 778 q 240 799 240 792 q 242 826 240 813 q 233 851 242 842 q 213 866 225 860 q 185 874 200 872 q 160 876 171 876 q 104 863 129 876 q 61 829 79 850 q 31 781 43 808 q 15 726 19 754 q 8 667 8 690 q 7 635 7 644 q 10 579 7 607 q 23 494 14 536 q 40 411 32 453 q 64 319 47 379 q 104 197 81 260 q 158 84 128 135 q 219 18 188 33 q 271 3 254 3 q 302 17 288 3 q 329 52 317 32 q 351 94 342 72 q 364 128 360 115 q 436 334 403 231 q 486 547 469 438 q 497 624 492 589 q 503 689 503 660 q 501 715 503 701 z "},"w":{"ha":979,"x_min":-61,"x_max":1106,"o":"m 515 -51 q 450 -85 486 -72 q 368 -99 414 -99 q 313 -93 340 -99 q 261 -78 286 -87 l 197 -51 q 157 -31 175 -43 q 38 72 82 14 q -28 196 -6 131 q -56 330 -50 261 q -61 463 -61 399 q -51 649 -61 550 q -15 838 -40 749 q 15 897 -6 874 q 59 935 35 921 q 110 953 83 949 q 161 958 138 958 q 258 939 211 958 l 322 913 q 411 851 374 892 q 426 861 415 856 q 484 885 454 878 q 542 892 514 892 l 543 892 q 602 883 563 892 q 678 854 642 875 l 681 854 q 712 924 683 899 q 782 949 740 949 q 856 935 822 949 l 919 908 q 985 866 954 894 q 1038 803 1015 838 q 1075 729 1061 768 q 1093 654 1089 690 q 1102 556 1099 606 q 1106 456 1106 506 q 1099 324 1106 388 q 1074 203 1092 261 q 1026 90 1057 144 q 947 -15 996 35 q 865 -76 911 -53 q 761 -99 819 -99 q 647 -76 700 -99 l 582 -50 q 542 -31 563 -43 l 515 -51 m 953 672 q 936 737 950 703 q 900 800 922 771 q 849 850 878 829 q 786 872 819 871 q 783 872 785 872 q 757 846 757 872 q 757 839 757 843 q 765 810 760 824 q 774 783 769 797 q 808 617 804 685 q 813 514 813 550 q 806 385 813 450 q 800 358 804 376 q 788 320 796 339 q 771 287 781 301 q 749 272 761 272 q 725 281 736 272 q 706 301 714 289 q 694 328 699 314 q 686 351 689 342 q 668 521 668 436 q 669 569 668 524 q 685 703 669 615 q 686 715 686 710 q 665 767 686 744 q 610 803 643 790 q 542 815 578 815 q 504 811 524 815 q 468 798 485 807 q 440 774 451 789 q 426 738 429 758 q 426 730 426 733 q 424 722 425 726 l 419 689 q 418 685 419 686 l 418 678 q 417 674 417 676 q 403 545 406 596 q 401 469 401 494 q 406 367 401 418 q 406 354 406 361 q 386 292 406 321 q 360 272 374 272 q 338 281 347 272 q 322 303 329 290 q 312 331 315 317 q 306 354 308 344 q 289 518 289 436 q 290 576 289 526 q 321 717 292 626 q 328 750 328 733 q 310 801 328 776 q 163 882 254 882 q 139 881 151 882 q 89 863 110 878 q 58 817 68 847 q 56 808 58 814 l 51 792 q 50 790 51 790 l 50 786 q 33 706 39 746 q 25 628 28 667 q 15 462 15 544 q 26 296 15 379 q 80 144 40 210 q 196 35 119 79 q 303 4 247 4 q 439 64 381 4 q 462 88 450 75 q 486 114 474 100 q 499 100 493 107 q 513 88 506 93 q 597 28 551 51 q 697 4 642 4 q 771 22 738 4 q 833 68 804 40 q 883 131 861 96 q 918 199 904 165 q 945 280 936 239 q 958 365 954 321 q 965 481 965 422 q 963 547 965 499 q 953 672 961 594 z "},"x":{"ha":640,"x_min":-71,"x_max":788,"o":"m 306 889 q 361 842 340 874 l 367 851 q 419 901 388 879 q 497 922 451 922 q 567 908 535 922 l 632 882 q 694 838 669 867 q 735 776 719 810 q 757 710 750 743 q 764 651 764 676 q 764 630 764 640 q 763 608 764 619 q 747 566 757 576 q 713 540 736 556 q 658 502 683 521 q 614 463 633 483 q 640 438 625 451 q 669 408 654 424 q 708 366 688 390 q 747 313 729 342 q 776 250 764 283 q 788 179 788 217 q 770 86 788 131 q 719 8 753 42 q 646 -48 692 -21 q 543 -75 600 -75 q 493 -67 517 -75 l 429 -40 q 392 -15 407 -31 q 367 18 376 1 q 336 -31 351 -7 q 301 -74 321 -56 q 256 -104 281 -93 q 196 -115 231 -115 q 159 -112 176 -115 q 126 -101 142 -108 l 63 -75 q 0 -31 25 -60 q -41 31 -25 -3 q -64 97 -57 64 q -71 156 -71 131 q -71 177 -71 167 q -68 199 -71 188 q -53 241 -62 231 q -19 267 -43 251 q 21 297 -8 274 q 82 347 50 319 l 122 386 q 60 445 92 414 q 4 512 29 476 q -37 587 -21 547 q -53 669 -53 626 q 17 840 -53 771 q 90 897 44 869 q 192 924 136 924 q 242 915 221 924 l 306 889 m 457 497 q 467 510 461 501 q 501 550 486 535 q 531 577 515 565 q 564 601 546 589 q 607 631 582 613 q 617 637 613 633 q 622 647 622 640 q 624 675 624 661 q 617 735 624 703 q 582 801 610 767 q 544 833 565 821 q 497 846 524 846 q 447 825 469 846 q 407 775 424 804 q 379 715 390 746 q 363 661 368 683 q 358 643 360 653 q 349 624 356 633 q 316 659 332 636 q 285 708 300 682 q 260 760 271 733 q 243 804 249 786 q 192 847 231 847 q 176 846 185 847 q 71 788 117 836 q 27 713 31 747 q 24 669 24 679 q 47 585 24 624 q 119 493 76 536 q 204 413 163 450 q 215 389 215 401 q 214 378 215 383 q 204 365 210 374 q 119 278 165 317 q 22 203 72 239 q 12 197 17 200 q 7 186 7 193 q 6 158 6 172 q 13 99 6 131 q 47 32 19 67 q 85 0 64 13 q 132 -12 106 -12 q 200 26 174 -12 q 267 138 240 82 q 322 251 294 193 q 355 216 339 239 q 385 167 371 193 q 411 115 400 142 q 428 71 422 89 q 479 28 440 28 q 494 29 486 28 q 600 88 554 39 q 644 162 640 128 q 647 206 647 196 q 624 290 647 251 q 551 382 594 339 q 467 463 508 425 q 456 486 456 474 q 457 497 456 492 m 315 828 q 322 810 318 819 q 331 790 325 801 l 315 828 z "},"y":{"ha":585,"x_min":-83,"x_max":733,"o":"m 275 924 q 331 876 310 908 l 336 886 q 389 935 357 914 q 467 957 421 957 q 536 943 504 957 l 601 917 q 664 873 639 901 q 704 811 689 844 q 726 744 719 778 q 733 686 733 711 q 733 665 733 675 q 732 643 733 654 q 716 601 726 611 q 682 575 706 590 q 602 515 643 550 q 532 446 561 481 q 543 400 542 425 q 546 363 546 382 l 549 338 q 551 300 550 319 q 563 219 557 260 q 576 138 569 178 l 579 103 q 531 -28 579 24 q 403 -92 482 -81 l 379 -96 q 340 -100 361 -100 q 269 -86 304 -100 l 206 -60 q 149 -24 174 -47 q 109 28 125 0 q 85 87 93 57 q 75 143 76 117 q 79 277 75 211 q 103 410 83 343 q 72 440 89 424 q 35 475 54 456 q -4 517 17 493 q -42 571 -25 542 q -72 633 -60 600 q -83 704 -83 667 q -14 875 -83 806 q 60 931 14 904 q 161 958 106 958 q 211 950 190 958 l 275 924 m 551 836 q 514 868 535 856 q 467 881 493 881 q 416 860 439 881 q 376 810 393 839 q 349 749 360 781 q 332 696 338 718 q 327 678 329 688 q 318 658 325 668 q 285 694 301 671 q 255 742 269 717 q 229 794 240 768 q 213 839 218 821 q 161 882 200 882 q 146 881 154 882 q 40 822 86 871 q -3 748 0 782 q -7 704 -7 714 q 17 619 -7 658 q 89 528 46 571 q 174 447 132 485 q 185 424 185 436 q 183 413 185 418 q 156 290 163 346 q 150 185 150 233 q 151 146 150 165 q 178 61 153 101 q 220 19 193 36 q 272 3 247 3 q 299 6 285 3 q 313 8 306 8 q 328 10 321 8 q 412 51 386 17 q 438 128 438 86 q 436 153 438 140 q 423 234 429 193 q 411 317 417 275 q 407 367 408 342 q 403 419 406 393 q 399 444 401 432 q 385 464 396 456 q 376 476 376 471 q 377 480 376 476 q 385 490 378 483 q 394 503 389 494 q 480 590 433 551 q 576 665 526 629 q 587 672 582 668 q 592 682 592 675 q 593 710 593 696 q 586 769 593 738 q 551 836 579 801 m 285 863 q 291 845 288 854 q 300 825 294 836 l 285 863 m 338 -67 q 315 -69 329 -67 l 338 -67 z "},"z":{"ha":539,"x_min":-67,"x_max":669,"o":"m 501 906 q 522 898 513 903 q 540 890 532 893 q 634 805 603 860 q 665 686 665 750 q 656 618 665 653 q 633 549 647 583 q 602 484 619 515 q 568 425 585 453 l 540 383 l 599 360 q 654 308 639 343 q 669 232 669 272 q 651 147 669 190 q 606 72 633 103 q 487 -32 551 10 q 333 -89 422 -74 q 284 -97 308 -93 q 235 -100 260 -100 q 185 -96 211 -100 q 136 -82 160 -92 l 72 -56 q -26 33 7 -29 q -58 163 -58 94 q -53 211 -58 186 q -38 260 -49 236 q -12 304 -28 285 q 24 336 3 324 q 58 360 44 347 q 96 401 72 374 q 111 419 103 408 q 68 442 89 424 l 60 444 q 3 469 26 444 q -36 530 -21 494 q -59 603 -51 565 q -67 665 -67 640 q -61 717 -67 689 q -45 772 -56 744 q -20 824 -35 799 q 11 867 -6 849 q 67 912 36 894 q 128 940 97 929 q 191 954 160 950 q 251 958 222 958 q 343 950 297 958 l 371 947 q 428 935 399 944 q 476 917 457 925 l 501 906 m 525 288 q 512 313 519 307 q 493 318 504 318 q 482 317 488 318 q 428 309 454 314 q 375 297 401 304 q 331 288 353 292 q 288 281 310 283 l 288 286 q 296 297 293 294 q 360 377 324 329 q 429 478 396 425 q 489 584 463 531 q 522 681 515 638 q 525 714 525 696 q 524 734 525 719 q 515 772 524 749 q 488 814 506 794 q 443 847 471 833 q 405 862 424 856 q 365 871 386 868 q 328 875 347 871 q 253 882 290 882 q 201 879 226 882 q 136 863 164 874 q 88 834 108 851 q 51 792 67 817 q 24 733 36 768 q 11 690 13 707 q 10 665 10 672 q 14 626 10 647 q 28 580 18 604 q 49 532 38 556 q 59 521 54 521 q 74 529 64 521 q 115 555 93 544 q 160 574 138 565 q 200 581 181 581 q 219 579 210 581 q 265 532 265 572 q 264 518 265 525 q 253 483 261 499 q 233 451 244 467 q 194 401 214 426 q 154 351 175 375 q 112 305 133 328 q 60 268 90 282 q 48 259 53 265 q 40 246 43 253 q 17 167 17 207 q 17 144 17 165 q 36 81 18 122 q 91 20 54 38 q 171 3 128 3 q 214 6 193 3 q 256 13 235 10 q 383 60 326 24 q 485 149 439 96 q 522 217 511 178 q 528 245 528 235 q 529 260 529 256 q 525 288 529 274 m 146 483 l 171 496 q 146 483 161 492 q 129 474 136 479 q 115 465 122 469 l 146 483 z "},"!":{"ha":328,"x_min":-53,"x_max":449,"o":"m 211 943 q 256 940 231 943 q 306 924 281 936 l 350 906 q 418 859 392 889 q 444 781 444 829 q 440 742 444 761 q 419 629 428 683 q 403 521 410 575 q 393 411 397 467 q 386 297 389 356 l 385 268 q 376 228 382 250 q 428 177 407 208 q 449 99 449 146 q 428 19 449 53 q 374 -37 407 -14 q 301 -71 342 -60 q 219 -82 260 -82 q 156 -69 188 -82 l 92 -43 q 14 16 47 -24 q -19 111 -19 56 q 6 197 -19 164 q 64 250 32 231 q 68 253 67 253 l 71 254 q 75 257 74 256 q 27 341 50 296 q -13 433 4 386 q -42 530 -31 481 q -53 626 -53 579 q -37 743 -53 686 q 13 844 -21 800 q 95 916 46 889 q 211 943 144 943 m 201 249 q 224 256 213 249 q 239 276 235 263 q 244 302 243 289 q 246 328 244 315 q 263 558 250 444 q 301 783 275 671 q 304 807 304 796 q 295 838 304 824 q 254 861 286 851 q 211 867 236 867 q 126 845 161 867 q 67 790 90 824 q 34 713 44 756 q 24 626 24 669 q 24 613 24 621 q 26 596 25 604 q 38 522 26 563 q 66 442 49 482 q 103 364 83 401 q 140 299 124 326 q 166 266 150 283 q 201 249 182 249 m 267 193 q 239 205 256 201 q 204 208 222 208 q 130 196 167 208 q 79 167 93 183 q 58 126 58 140 q 57 111 57 111 q 78 60 57 83 q 157 21 111 21 q 160 21 158 21 q 229 33 196 21 q 282 65 263 46 q 308 124 308 93 q 306 149 308 128 q 267 193 303 169 z "},"?":{"ha":563,"x_min":-53,"x_max":679,"o":"m 94 467 q 60 486 75 474 q 22 517 42 499 q -15 561 1 536 q -42 615 -32 586 q -53 676 -53 644 q -17 783 -53 735 q 70 867 18 832 q 183 922 122 903 q 293 942 243 942 q 368 935 324 942 q 457 908 413 928 l 521 882 q 580 851 551 869 q 631 806 608 832 q 666 747 653 781 q 679 671 679 714 q 647 558 679 608 q 574 463 615 507 q 558 446 567 454 l 525 413 q 510 396 518 404 q 481 354 489 371 q 486 333 483 343 q 489 310 489 322 q 464 236 489 265 q 519 183 496 217 q 543 100 543 149 q 525 28 543 61 q 478 -28 507 -4 q 414 -64 450 -51 q 340 -76 378 -76 q 303 -72 324 -76 q 261 -60 282 -68 l 197 -33 q 117 23 153 -15 q 82 124 82 61 q 108 211 82 175 q 179 271 135 247 q 147 324 158 294 q 135 386 135 354 q 138 417 135 401 q 144 446 140 432 l 94 467 m 489 801 q 397 850 443 840 q 293 865 351 860 q 222 853 258 863 q 152 829 186 844 q 90 790 118 814 q 43 735 61 767 q 27 701 31 715 q 24 676 24 686 q 28 650 24 664 q 57 593 39 618 q 103 549 75 568 q 135 533 125 533 q 151 538 143 533 q 169 551 158 543 q 217 582 193 569 q 268 601 240 594 q 296 606 282 606 q 311 604 303 606 q 324 592 324 603 q 324 588 324 590 q 301 544 319 563 l 264 501 q 217 419 232 468 q 211 386 211 403 q 213 368 211 376 q 242 315 217 336 q 296 293 268 293 q 303 293 300 293 q 340 310 331 294 q 349 336 349 325 q 342 360 349 347 q 336 381 336 369 q 340 399 336 389 q 368 447 350 424 q 401 486 383 468 q 439 524 419 504 q 483 573 463 547 q 519 628 504 599 q 539 697 539 664 q 533 737 539 708 q 489 801 528 765 m 364 194 q 282 221 325 221 q 192 188 233 221 q 159 144 160 163 q 158 124 158 125 q 185 64 158 90 q 226 36 204 44 q 276 26 249 28 q 330 38 304 28 q 376 68 356 47 q 403 126 403 93 q 401 151 403 131 q 364 194 399 172 z "},"#":{"ha":675,"x_min":-56,"x_max":794,"o":"m 621 774 q 669 742 650 763 q 701 694 689 721 q 719 638 714 668 q 725 581 725 608 q 771 545 747 569 q 794 474 794 521 q 787 430 794 450 q 761 394 779 410 q 777 363 771 381 q 783 322 783 346 q 755 242 783 279 q 686 192 726 206 l 681 114 q 673 79 679 97 q 655 46 667 61 q 626 21 643 31 q 588 11 610 11 q 551 19 569 11 q 517 36 532 26 l 453 63 q 407 106 426 82 q 376 69 397 86 q 319 51 356 51 q 283 59 300 51 q 251 78 267 67 q 179 112 213 81 q 126 175 146 143 l 124 175 q 75 183 96 175 l 11 210 q -41 259 -26 225 q -56 322 -56 293 q -46 375 -56 347 q -17 419 -36 403 q -32 451 -28 435 q -36 482 -36 467 q -28 531 -36 508 q 4 576 -17 557 q 49 606 25 594 q 67 665 54 635 q 101 717 81 694 q 148 755 121 740 q 208 769 175 769 l 239 769 q 297 760 272 769 l 353 736 q 354 739 354 739 q 411 791 376 769 q 494 813 446 813 q 526 809 511 813 q 556 800 542 806 l 621 774 m 642 528 q 633 535 638 532 q 622 542 628 539 q 599 548 611 547 q 583 557 588 549 q 581 571 581 564 q 582 583 581 575 q 585 603 583 592 l 585 608 q 582 648 585 628 q 571 685 579 668 q 549 716 563 703 q 513 733 535 729 q 493 736 503 736 q 445 722 471 736 q 404 676 419 708 q 392 644 397 661 q 383 610 388 626 q 382 594 382 603 q 382 588 382 590 q 382 583 382 585 q 374 569 382 575 q 357 564 367 564 q 349 565 354 564 q 338 565 344 565 q 329 565 333 565 q 314 579 314 565 q 314 582 314 581 q 314 589 314 586 q 306 642 314 617 q 238 693 289 693 q 226 693 232 693 l 215 693 q 206 694 211 694 q 181 687 193 694 q 157 665 168 679 q 121 575 125 625 q 115 551 121 560 q 92 539 110 542 q 43 499 58 535 q 40 483 40 490 q 54 453 40 467 q 72 443 64 443 q 80 444 74 443 q 97 447 86 446 q 111 449 107 449 q 119 447 117 449 q 125 428 122 444 q 126 422 126 425 q 128 414 126 418 q 128 411 128 413 q 115 399 128 400 q 67 388 92 397 q 32 358 43 376 q 21 322 21 340 q 22 311 21 317 q 33 286 25 293 q 60 278 40 279 q 99 279 79 278 q 139 283 119 281 q 146 285 143 285 q 167 267 161 285 q 229 169 186 208 q 243 158 236 163 q 254 154 250 154 q 265 157 260 154 q 277 170 276 161 q 279 188 278 179 q 281 208 281 194 l 285 250 l 285 256 l 286 265 l 286 271 q 290 291 288 288 q 310 294 293 294 l 328 294 l 363 296 l 381 296 q 383 296 382 296 q 404 278 400 296 q 420 235 408 263 q 449 181 432 208 q 485 134 465 154 q 522 114 504 114 q 540 146 539 114 q 544 203 543 174 q 547 263 546 233 q 551 288 549 285 q 563 290 554 290 q 579 289 568 290 q 583 289 581 289 q 625 307 608 289 q 642 349 642 325 q 642 356 642 351 q 627 385 639 376 q 599 397 615 393 q 567 410 569 406 q 564 421 564 414 q 567 447 564 431 q 568 458 567 454 q 578 469 568 469 q 582 469 579 469 q 599 467 590 468 q 617 467 608 467 q 650 485 643 467 q 654 500 654 492 q 652 512 654 504 q 642 528 650 519 m 338 418 q 317 417 322 418 q 311 417 313 417 q 303 419 306 417 q 300 428 300 422 q 301 434 300 429 q 301 457 301 439 q 321 474 303 474 q 342 474 332 474 q 364 475 353 474 q 378 460 378 475 q 378 436 378 442 q 379 428 379 431 q 376 420 379 422 q 365 418 374 418 q 338 418 357 418 z "},"@":{"ha":813,"x_min":-56,"x_max":931,"o":"m 683 851 q 780 797 735 831 q 858 720 825 764 q 911 622 892 676 q 931 503 931 567 q 919 416 931 460 q 886 335 908 372 q 831 269 864 297 q 756 225 799 240 q 764 169 764 200 q 733 60 764 107 q 656 -20 703 13 q 551 -69 608 -53 q 439 -85 493 -85 q 292 -56 363 -85 l 228 -29 q 108 44 161 -1 q 19 146 56 89 q -36 269 -17 203 q -56 407 -56 336 q -15 601 -56 510 q 94 762 25 693 q 254 872 163 831 q 449 913 346 913 q 619 878 535 913 l 683 851 m 661 768 q 449 836 564 836 q 294 807 365 836 q 161 719 224 778 q 47 558 74 639 q 21 408 21 478 q 28 325 21 368 q 70 208 39 264 q 149 110 101 153 q 254 43 196 68 q 375 18 313 18 q 495 40 438 18 q 593 113 553 63 q 621 165 618 142 q 624 197 624 189 q 608 250 624 228 q 579 282 596 269 q 543 306 563 294 q 532 308 538 308 q 514 297 522 308 q 445 225 485 253 q 349 197 406 197 q 306 201 326 197 q 217 240 253 213 q 160 303 181 267 q 135 369 139 339 q 131 417 131 399 q 135 464 131 440 q 217 626 154 564 q 381 713 281 688 q 443 721 413 721 q 574 686 514 721 q 664 586 635 651 q 675 535 675 560 q 672 504 675 525 q 649 451 668 483 q 618 432 636 432 q 586 451 596 432 q 574 489 576 471 q 554 543 571 521 q 522 590 538 565 q 515 597 519 594 q 458 628 488 617 q 399 640 429 640 q 333 626 364 640 q 276 590 301 613 q 233 537 251 567 q 207 474 215 507 q 199 411 199 442 q 222 315 199 361 q 267 267 242 279 q 318 254 293 254 q 343 257 331 254 q 390 273 368 261 q 433 301 413 285 q 470 337 453 318 q 503 374 488 356 q 575 318 528 331 q 610 314 592 314 q 683 331 642 314 q 751 392 724 347 q 790 521 789 453 q 790 533 790 526 q 758 664 790 604 q 661 768 725 724 m 500 479 q 476 441 489 458 q 442 413 463 424 q 421 407 431 407 q 397 431 407 407 q 393 460 393 446 q 407 518 393 488 q 451 547 422 547 q 460 547 456 547 q 488 543 474 544 q 510 531 503 542 q 513 518 513 525 q 509 502 513 513 q 500 479 506 492 z "},"":{"ha":707,"x_min":-56,"x_max":826,"o":"m 561 896 q 626 857 597 882 q 676 800 656 832 q 709 731 697 768 q 721 656 721 694 q 709 580 721 619 q 678 510 697 540 l 636 518 l 672 500 l 672 499 l 671 497 l 671 496 l 692 488 q 792 371 757 443 q 826 219 826 299 q 794 83 826 146 q 708 -26 763 21 q 638 -65 676 -54 q 567 -75 600 -75 q 521 -72 547 -75 q 469 -57 494 -68 l 406 -31 q 402 -30 403 -31 q 400 -29 401 -29 q 330 -70 369 -56 q 244 -85 290 -85 q 147 -67 188 -85 l 83 -40 q -3 24 31 -19 q -51 125 -36 67 q -56 151 -56 138 q -51 184 -56 172 q -35 211 -46 196 q 10 303 -3 253 q 26 407 22 354 q 35 513 31 460 q 51 618 40 567 q 90 739 63 681 q 160 842 118 797 q 259 915 203 888 q 383 943 315 943 q 440 938 411 943 q 496 922 469 933 l 561 896 m 679 301 q 619 422 663 374 q 500 486 575 469 q 491 488 496 488 q 479 493 486 488 q 488 501 485 497 q 494 507 492 504 q 544 567 525 533 q 574 638 563 600 q 579 683 579 660 q 575 723 579 697 q 551 780 571 749 q 502 833 532 811 q 435 861 472 854 q 408 865 421 864 q 383 867 396 867 q 284 843 328 867 q 208 782 240 819 q 156 697 176 744 q 125 600 135 649 q 110 500 114 550 q 103 400 107 450 q 82 277 97 336 q 26 165 67 218 q 21 153 21 160 q 22 144 21 149 q 44 87 29 113 q 89 43 60 61 q 178 18 131 18 q 188 18 183 18 q 192 18 190 18 q 281 51 242 18 q 329 136 321 83 q 333 158 332 149 q 333 171 333 167 q 332 188 333 179 q 325 269 331 228 q 313 350 319 310 q 295 473 303 413 q 285 596 288 533 q 283 625 283 610 q 287 674 283 646 q 304 738 290 703 q 342 765 314 765 q 354 764 347 765 q 397 725 389 760 q 404 674 404 699 q 400 636 404 654 q 381 544 393 589 q 338 461 369 500 q 332 449 332 454 q 334 441 332 446 q 347 433 336 436 q 357 431 353 432 q 367 431 361 431 q 444 402 411 428 q 479 328 476 376 q 479 324 479 325 q 460 272 479 288 q 417 256 442 256 q 408 256 413 256 q 378 250 389 256 q 360 225 367 244 q 351 185 351 207 q 352 169 351 182 q 360 131 353 156 q 381 85 368 107 q 413 51 394 64 q 452 33 428 40 q 503 26 476 26 q 551 34 528 26 q 593 57 575 42 q 667 156 650 107 q 685 244 685 204 q 679 301 685 272 z "},"":{"ha":519,"x_min":-54,"x_max":638,"o":"m 463 892 q 525 857 496 878 q 576 808 554 836 q 610 743 597 779 q 624 663 624 707 q 606 572 624 614 q 553 499 589 531 q 597 444 578 475 q 615 369 615 413 q 611 335 615 353 q 600 300 607 317 l 594 289 l 610 282 q 638 183 638 238 q 629 128 638 154 q 607 79 621 101 q 545 3 581 35 q 469 -47 510 -28 q 383 -75 428 -67 q 294 -83 339 -83 q 228 -78 264 -83 q 157 -58 193 -74 l 93 -32 q 42 -4 67 -21 q 0 36 18 13 q -28 91 -18 60 q -39 164 -39 122 q -28 231 -39 197 q 3 292 -18 265 q -38 351 -22 317 q -54 431 -54 386 q -40 506 -54 467 q -6 560 -28 536 q -22 608 -15 583 q -28 663 -28 633 q -1 774 -28 722 q 68 863 25 825 q 166 921 111 900 q 279 942 221 942 q 399 918 339 942 l 463 892 m 449 304 q 442 309 446 307 q 436 315 439 311 l 447 328 q 474 396 474 361 q 470 426 474 403 q 424 481 467 450 q 363 514 396 499 q 305 535 335 526 q 247 556 275 544 q 228 562 238 558 q 213 572 219 565 q 201 593 201 581 q 206 608 201 600 q 225 628 213 624 q 253 636 238 633 q 278 639 265 639 q 368 565 344 639 q 382 554 372 554 q 386 554 385 554 q 410 563 397 556 q 458 604 439 579 q 482 664 478 629 q 483 690 483 678 q 468 760 483 725 q 413 824 453 796 q 347 856 381 846 q 279 865 313 865 q 163 835 217 865 q 79 760 110 806 q 54 703 60 728 q 49 663 49 679 q 53 625 49 644 q 68 582 58 601 q 89 542 78 563 l 75 532 q 74 531 74 532 l 69 528 q 33 481 44 507 q 22 429 22 454 q 23 410 22 426 q 39 368 24 394 q 82 325 54 342 q 146 299 113 306 q 214 285 179 292 q 296 256 257 274 q 310 240 310 249 q 297 222 310 232 q 257 207 283 211 q 229 204 243 204 q 204 206 219 204 q 167 213 189 208 q 128 227 146 218 q 97 254 110 236 q 86 263 90 263 q 83 262 86 263 q 74 256 81 261 q 53 229 63 246 q 38 164 38 196 q 51 103 38 133 q 83 61 63 78 q 127 35 103 44 q 178 23 151 26 q 229 19 204 19 q 372 49 306 19 q 478 144 438 78 q 497 210 497 178 q 492 247 497 221 q 449 304 488 274 m 335 354 q 271 371 303 363 q 208 393 239 379 q 188 401 197 397 q 169 413 178 406 q 140 468 140 432 q 140 478 140 474 q 149 489 142 489 q 156 488 151 489 q 220 460 188 471 q 285 436 253 449 q 332 413 308 428 q 356 369 356 399 q 353 353 356 356 q 347 351 350 351 q 335 354 342 351 z "},"&":{"ha":753,"x_min":-49,"x_max":865,"o":"m 822 590 q 857 556 849 579 q 865 497 865 532 q 853 438 865 467 q 823 385 842 410 q 780 340 804 360 q 731 307 756 319 l 781 286 q 816 261 803 278 q 837 224 829 244 q 847 181 844 204 q 850 138 850 158 q 838 62 850 99 q 803 -3 826 25 q 747 -49 781 -32 q 672 -67 714 -67 q 632 -62 651 -67 q 594 -51 613 -58 l 531 -25 q 506 -13 517 -19 q 483 0 494 -7 q 392 -53 443 -32 q 279 -75 340 -75 q 178 -56 228 -75 l 114 -29 q -3 62 43 -1 q -49 208 -49 125 q -10 366 -49 294 q 94 492 29 438 q 66 569 78 525 q 54 650 54 614 q 78 769 54 715 q 146 863 103 824 q 246 923 189 901 q 367 944 303 944 q 422 940 394 944 q 476 925 450 936 l 540 899 q 647 810 608 871 q 686 676 686 750 q 685 653 686 668 q 682 622 685 638 q 689 624 686 622 q 699 624 694 624 q 708 625 704 625 q 758 617 740 625 l 822 590 m 674 244 q 536 272 603 244 q 519 281 521 279 q 518 285 518 283 q 522 301 518 290 q 532 328 528 315 q 540 356 536 342 q 567 381 544 376 q 706 468 657 396 q 719 494 714 481 q 725 524 725 508 q 721 545 725 542 q 710 549 717 549 q 697 547 704 549 q 633 542 660 543 q 589 540 606 540 q 546 542 567 540 q 499 544 518 542 q 468 547 481 547 q 439 544 454 547 q 401 518 414 540 q 393 481 393 499 q 406 438 393 458 q 431 408 417 421 q 439 394 439 401 q 439 390 439 392 q 435 370 436 381 q 426 349 433 360 q 398 376 411 363 q 374 407 385 390 q 349 462 356 435 q 342 514 342 489 q 342 531 342 522 q 388 611 347 588 q 479 635 428 635 q 513 631 496 635 q 521 629 517 629 q 536 643 532 629 q 543 669 540 656 q 546 696 546 682 q 546 703 546 700 q 538 752 546 726 q 513 802 531 778 q 469 844 496 826 q 406 865 443 861 q 368 868 388 868 q 328 865 349 868 q 230 831 272 858 q 163 764 188 804 q 134 693 138 724 q 131 650 131 663 q 144 571 131 611 q 160 525 151 547 q 179 479 169 503 q 183 468 183 472 q 183 464 183 467 q 172 454 182 461 q 73 357 110 414 q 29 225 36 300 q 28 206 28 215 q 35 158 28 185 q 62 106 43 132 q 106 60 81 79 q 163 33 132 42 q 215 28 186 28 q 323 55 275 28 q 411 122 371 82 q 422 133 417 128 q 433 142 426 139 q 463 115 449 128 q 490 90 476 103 q 545 53 515 69 q 608 36 575 36 q 690 88 664 36 q 709 140 708 121 q 710 160 710 158 q 700 226 710 193 q 674 244 696 244 m 214 275 q 196 328 196 299 q 197 351 196 332 q 225 397 199 369 q 278 324 251 360 q 335 251 306 288 q 282 236 304 236 q 214 275 242 236 z "},"$":{"ha":576,"x_min":-51,"x_max":692,"o":"m 453 865 q 496 835 476 854 q 522 779 515 815 q 578 751 549 769 q 633 708 608 733 q 675 651 658 683 q 692 576 692 618 q 674 497 692 533 q 631 429 657 461 l 622 419 q 669 360 650 396 q 689 274 689 324 q 669 181 689 225 q 619 101 650 138 q 547 37 588 64 q 463 -7 506 10 q 431 -86 458 -51 q 354 -121 403 -121 q 314 -114 332 -121 l 249 -87 q 206 -55 224 -76 q 181 -8 189 -33 l 119 17 q -3 106 44 49 q -51 247 -51 163 q -37 338 -51 292 q 10 417 -22 385 q -28 480 -14 444 q -43 563 -43 515 q -25 654 -43 613 q 24 728 -7 696 q 95 784 54 761 q 182 821 136 807 q 210 862 193 846 q 248 887 228 878 q 288 899 268 896 q 325 903 308 903 q 353 901 336 903 q 389 890 371 899 l 453 865 m 483 406 q 354 450 421 440 q 338 471 338 454 q 338 474 338 472 q 341 499 340 486 q 343 525 342 511 q 354 536 343 536 q 357 536 356 536 q 406 525 382 532 q 450 499 431 518 q 476 485 467 485 q 493 491 485 485 q 509 506 501 497 q 523 525 517 515 q 533 540 529 535 q 551 603 551 572 q 548 634 551 611 q 508 686 544 657 q 458 722 485 707 q 399 744 431 738 q 386 751 390 747 q 382 763 382 754 q 382 767 382 764 q 383 782 383 775 q 374 812 383 800 q 335 826 364 824 q 326 826 331 826 q 297 824 313 826 q 264 808 278 819 q 247 776 250 796 q 224 753 243 757 q 147 727 183 744 q 82 678 111 710 q 43 615 53 646 q 33 561 33 585 q 38 526 33 550 q 64 473 42 503 q 125 422 86 443 q 166 405 144 411 q 210 394 188 399 q 235 385 232 389 q 239 360 239 381 l 239 354 l 238 354 l 238 329 q 226 315 238 315 q 221 317 224 315 q 164 339 192 326 q 113 371 136 351 q 90 382 99 382 q 69 369 79 382 q 53 349 58 357 q 31 299 36 324 q 25 249 25 274 q 25 238 25 243 q 34 190 28 213 q 60 149 40 167 q 129 96 92 117 q 213 72 167 75 q 239 66 235 69 q 247 39 243 63 q 259 3 250 24 q 289 -18 268 -18 q 308 -11 301 -18 q 317 6 314 -4 q 322 26 321 15 q 322 46 322 38 q 326 73 322 68 q 350 83 329 78 q 412 108 382 92 q 468 148 442 125 q 514 199 494 171 q 543 258 533 226 q 549 300 549 281 q 483 406 549 367 m 233 478 q 214 481 224 481 q 201 493 204 482 q 201 499 201 496 q 209 510 201 506 q 225 518 217 514 q 233 519 228 519 q 236 499 236 508 q 233 478 236 488 m 376 321 q 324 310 350 310 q 322 328 322 319 q 323 340 322 332 q 325 361 324 349 q 335 369 328 369 q 336 369 335 369 q 341 368 339 368 q 346 367 343 368 l 367 363 q 369 361 368 363 l 374 361 q 393 338 393 354 q 388 327 393 331 q 376 321 382 324 z "},"":{"ha":540,"x_min":-54,"x_max":660,"o":"m 497 875 q 606 785 565 847 q 646 650 646 724 q 605 524 646 579 q 506 432 564 468 l 508 404 q 499 356 508 375 q 486 331 494 343 q 533 322 511 331 l 597 296 q 641 263 622 285 q 660 201 660 240 q 649 147 660 175 q 621 94 638 119 q 583 47 604 68 q 542 10 563 25 q 480 -31 514 -11 q 408 -66 446 -50 q 328 -92 369 -82 q 247 -101 288 -101 q 135 -81 189 -101 l 71 -54 q -18 14 18 -32 q -54 139 -54 60 q -44 217 -54 178 q -8 286 -35 256 q -37 326 -25 301 q -50 388 -50 350 q -44 431 -50 403 q -22 483 -37 460 q -1 504 -12 496 q -3 524 -3 514 q -3 543 -3 533 q 19 679 -3 611 q 83 801 42 747 q 185 889 125 856 q 319 922 244 922 q 433 901 382 922 l 497 875 m 482 254 q 458 253 471 253 q 435 250 446 253 q 338 236 381 239 q 265 233 296 233 q 217 235 242 233 q 193 240 194 236 q 192 247 192 243 q 193 260 192 251 q 195 274 194 267 q 196 289 196 282 q 199 313 196 310 q 222 322 203 317 q 263 335 240 326 q 307 356 286 343 q 344 384 328 368 q 367 421 361 400 q 368 429 368 425 q 346 447 368 447 q 331 447 339 447 q 317 444 324 446 q 266 438 292 439 q 214 435 240 436 q 197 437 199 435 q 194 443 194 439 q 196 454 194 447 q 210 521 200 493 q 243 558 219 549 q 283 568 263 568 q 327 553 307 568 q 363 524 347 539 q 379 515 369 515 q 393 519 386 515 q 425 539 410 529 q 453 563 440 549 q 494 624 483 594 q 506 676 506 653 q 500 714 506 694 q 434 815 482 783 q 319 846 386 846 q 164 775 231 846 q 90 655 107 715 q 74 542 74 594 q 76 494 74 518 q 78 472 78 483 q 82 447 79 460 l 57 447 q 40 439 47 447 q 29 409 32 422 q 26 386 26 396 q 29 366 26 378 q 43 342 32 354 q 74 324 54 329 q 102 306 96 317 q 108 283 108 296 q 107 272 108 278 q 107 261 107 267 q 104 249 107 256 q 90 249 96 249 q 54 240 67 249 q 31 199 42 232 q 28 189 28 193 q 22 140 22 163 q 44 58 22 100 q 146 4 65 17 q 182 3 164 3 q 243 8 213 3 q 326 35 285 18 q 406 78 368 53 q 472 137 443 103 q 517 213 501 171 q 519 228 519 221 q 513 247 519 239 q 490 254 506 254 q 482 254 486 254 z "},"":{"ha":653,"x_min":-56,"x_max":772,"o":"m 79 649 q 134 750 100 699 q 213 843 168 801 q 313 911 258 885 q 425 938 367 938 q 469 934 449 938 q 510 924 490 931 l 574 897 q 653 854 622 882 q 703 792 685 826 q 730 719 722 758 q 738 644 738 681 q 706 528 738 581 q 611 454 675 476 q 678 421 649 447 q 729 359 708 394 q 761 283 750 324 q 772 208 772 243 q 747 92 772 146 q 678 -3 721 38 q 580 -67 636 -43 q 463 -90 524 -90 q 401 -85 432 -90 q 343 -67 371 -79 l 279 -40 q 196 8 232 -22 q 133 77 160 39 q 86 160 106 115 q 54 251 67 204 q -25 299 6 263 q -56 388 -56 335 q -50 431 -56 410 q -32 469 -44 451 q -43 526 -43 496 q -9 613 -43 576 q 78 649 25 649 l 79 649 m 579 375 q 538 404 561 399 q 519 407 528 407 q 492 383 496 407 q 449 326 481 347 q 381 304 417 306 q 378 304 379 304 q 272 364 313 304 q 285 374 279 371 q 299 379 292 376 q 326 392 313 386 q 350 408 339 397 q 365 421 357 415 q 372 432 372 426 q 371 439 372 435 q 356 451 365 450 q 340 453 347 453 q 332 453 336 453 q 322 451 325 453 q 296 449 308 450 q 271 446 283 447 q 262 444 265 444 q 257 443 258 443 q 250 447 253 443 q 246 458 246 453 q 247 463 246 460 q 250 474 247 467 q 258 481 253 481 q 269 483 264 482 q 317 498 293 490 q 363 519 340 506 q 376 526 369 522 q 382 536 382 531 q 381 540 382 538 q 371 553 379 551 q 354 554 363 554 q 320 558 338 557 q 282 560 303 558 q 393 629 329 621 q 410 631 401 631 q 497 564 474 631 q 513 551 501 551 q 519 553 515 551 q 571 587 549 560 q 596 649 593 614 q 597 675 597 661 q 594 713 597 690 q 581 764 592 736 q 518 837 561 813 q 425 861 475 861 q 334 837 378 861 q 253 776 290 813 q 189 695 217 739 q 146 611 161 651 q 140 590 142 601 q 129 572 139 578 q 114 567 122 567 q 103 569 111 567 q 85 572 96 571 q 76 572 81 572 q 47 561 58 572 q 33 526 35 550 q 76 467 33 479 q 87 464 82 465 q 97 463 92 463 q 108 460 104 461 q 113 453 113 458 q 113 449 113 451 q 106 439 111 439 l 61 439 q 58 439 60 439 q 25 413 35 439 q 21 388 21 400 q 22 377 21 386 q 29 356 22 368 q 50 334 36 343 q 85 325 64 325 l 100 325 q 107 326 104 326 q 115 322 113 326 q 119 310 118 318 l 119 308 l 121 307 l 121 296 l 122 294 q 156 191 133 242 q 212 100 178 140 q 292 35 246 60 q 399 11 339 11 q 485 28 443 11 q 563 79 528 44 q 630 187 628 144 q 632 233 632 229 q 579 375 632 308 z "},"":{"ha":567,"x_min":-53,"x_max":685,"o":"m 293 868 q 319 851 310 861 l 328 858 q 331 861 331 861 q 375 893 349 878 q 438 908 401 908 q 489 897 460 908 l 554 871 q 601 844 578 861 q 642 807 624 828 q 673 762 661 786 q 685 711 685 738 q 676 671 685 688 q 658 643 668 654 q 644 628 651 635 q 628 617 636 622 q 574 573 600 597 q 522 521 549 549 l 518 515 l 532 510 q 563 503 547 510 q 593 485 579 497 q 616 458 607 474 q 625 424 625 443 q 607 369 625 394 l 581 335 q 594 286 594 314 q 577 224 594 254 q 538 172 560 194 q 519 155 528 164 q 500 139 510 146 l 519 82 q 526 58 522 72 q 529 29 529 44 q 512 -35 529 -7 q 467 -81 494 -62 q 407 -108 440 -99 q 342 -117 374 -117 q 261 -101 296 -117 l 196 -75 q 146 -44 167 -62 q 110 -2 125 -25 q 85 46 94 21 q 68 93 75 71 q -4 163 17 118 q -25 256 -25 207 l -25 265 q -4 325 -22 300 q -19 389 -19 353 q -7 449 -19 418 q 29 500 6 481 q -29 574 -6 532 q -53 668 -53 617 q -37 744 -53 708 q 4 808 -22 779 q 64 860 31 838 q 133 894 97 882 q 153 900 142 897 q 181 903 165 903 q 229 894 207 903 l 293 868 m 532 767 q 510 793 522 782 q 485 815 499 804 q 438 832 460 832 q 388 811 413 832 q 352 768 369 793 q 321 716 335 743 q 296 660 307 689 q 278 608 285 632 q 239 696 251 649 q 236 707 238 701 l 235 714 q 232 724 235 718 l 218 778 q 215 788 217 783 l 214 794 q 211 804 214 799 q 202 823 208 819 q 181 826 196 826 q 147 819 165 826 q 113 800 129 811 q 81 776 96 789 q 57 753 65 764 q 24 667 24 713 q 57 582 24 622 q 158 506 99 531 l 163 506 l 182 496 q 185 494 183 496 l 189 494 q 192 493 192 493 q 199 485 199 490 q 196 478 199 482 l 190 467 q 189 464 190 465 q 167 446 185 446 q 161 446 164 446 q 131 449 146 449 q 101 449 117 449 q 99 449 100 449 q 67 426 78 449 q 57 389 57 406 q 67 353 57 374 q 115 321 76 332 q 125 318 121 318 q 136 315 132 317 q 140 307 140 313 q 140 303 140 306 q 124 290 139 290 q 99 289 111 289 q 75 286 86 289 q 51 263 51 285 q 51 257 51 260 q 63 200 51 231 q 117 156 74 169 q 131 147 128 153 q 138 132 135 142 q 171 43 146 85 q 247 -10 196 1 q 278 -14 263 -14 q 303 -11 288 -14 q 343 0 319 -8 q 378 25 368 11 q 389 53 389 39 q 383 83 389 67 q 367 131 374 107 q 351 179 360 156 q 350 188 350 183 q 363 207 350 200 q 416 249 388 222 q 453 306 444 276 q 454 311 454 308 q 439 324 454 324 q 426 322 432 322 q 415 321 421 322 q 396 318 406 319 l 361 311 q 342 308 351 310 q 329 307 335 307 q 322 318 324 307 q 321 324 321 321 q 335 338 321 335 q 415 375 379 353 q 479 438 451 397 q 485 449 485 444 q 468 460 485 458 q 449 460 458 460 q 431 457 440 460 q 381 451 406 453 q 329 447 356 449 q 321 447 324 447 q 318 446 318 446 q 311 453 314 446 q 308 463 308 460 q 307 468 307 467 q 311 479 307 474 q 355 540 335 508 q 401 599 375 571 q 458 656 429 629 q 521 706 488 682 q 543 727 542 719 q 544 738 544 735 q 532 767 544 750 z "},"":{"ha":563,"x_min":-56,"x_max":681,"o":"m 460 878 q 465 875 463 876 l 474 872 q 479 869 476 871 q 522 834 503 858 q 542 769 542 810 l 542 758 l 507 771 l 543 756 q 620 678 594 726 q 646 571 646 631 q 642 533 646 551 q 632 500 639 515 q 563 419 611 447 q 614 381 592 406 q 651 330 636 357 q 673 274 665 303 q 681 222 681 246 q 674 174 681 194 q 660 136 667 153 q 582 38 628 72 q 474 -14 536 3 l 469 -31 q 460 -55 467 -42 q 442 -79 453 -68 q 413 -99 431 -90 q 372 -107 396 -107 q 349 -104 360 -107 q 328 -99 339 -101 l 264 -72 q 215 -33 232 -58 q 192 14 199 -8 q 87 72 133 35 q 9 157 40 108 q -39 263 -22 206 q -56 381 -56 319 q 1 614 -56 517 q 181 778 58 711 q 199 828 186 804 q 232 872 213 853 q 278 901 251 890 q 340 913 306 913 q 375 910 356 913 q 414 896 394 907 l 460 878 m 539 264 q 526 304 535 283 q 504 342 518 325 q 473 372 490 360 q 433 385 456 383 q 426 385 429 385 q 400 367 408 385 q 350 318 386 335 q 336 313 340 313 q 333 314 335 313 q 332 322 332 315 q 332 329 332 325 l 332 365 q 333 387 332 376 q 335 399 333 397 l 335 417 q 336 426 336 421 l 342 500 q 343 510 342 507 l 343 528 q 344 538 344 532 q 349 556 346 554 q 353 557 351 557 q 369 551 358 557 q 392 535 382 544 q 406 513 401 526 q 422 499 410 499 q 425 499 424 499 q 449 508 436 501 q 474 523 463 514 q 494 546 486 532 q 504 576 503 560 q 506 599 506 588 q 485 676 506 640 q 414 732 465 713 q 401 736 407 735 q 389 743 394 738 q 392 754 390 749 l 397 774 q 400 785 399 779 q 401 797 401 792 q 381 828 401 818 q 340 836 363 836 q 280 812 303 836 q 253 751 257 788 q 244 730 251 736 q 226 717 238 724 q 103 624 154 679 q 33 485 51 568 q 21 381 21 432 q 22 335 21 371 q 51 240 24 300 q 124 139 79 181 q 236 81 169 97 q 256 72 253 75 q 261 50 260 69 q 276 14 264 32 q 308 -4 288 -4 q 333 24 331 -4 q 335 38 335 31 q 335 51 335 44 q 335 64 335 60 q 335 74 335 69 q 357 81 336 79 q 385 85 371 81 q 469 123 433 96 q 526 196 506 150 q 540 249 540 222 q 539 264 540 256 m 167 389 q 165 404 165 396 q 179 470 165 432 q 240 535 193 508 q 242 422 240 476 q 246 314 243 368 q 193 339 217 317 q 167 389 169 361 z "},"":{"ha":776,"x_min":-86,"x_max":908,"o":"m 828 901 q 883 859 861 889 q 904 788 904 829 q 894 731 904 758 q 867 678 883 703 q 828 632 850 653 q 783 596 807 611 q 826 578 808 592 q 856 548 844 565 q 872 511 867 531 q 876 475 876 492 q 856 393 876 432 q 806 324 836 354 q 879 282 850 314 q 908 192 908 250 q 891 103 908 143 q 844 33 874 64 q 775 -22 814 1 q 693 -61 736 -46 q 606 -88 653 -76 q 506 -100 558 -100 q 418 -83 460 -100 l 354 -57 q 335 -48 344 -53 q 317 -37 326 -43 q 272 -74 300 -61 q 215 -86 243 -86 q 187 -83 200 -86 q 163 -75 174 -79 q 154 -72 160 -75 l 97 -49 q 56 -28 79 -42 q 10 7 32 -14 q -27 55 -11 28 q -47 113 -43 82 q -51 131 -49 119 l -60 168 q -67 211 -65 189 q -68 256 -68 233 q -68 267 -68 261 l -67 289 q -67 300 -67 294 q -83 342 -79 318 q -86 358 -86 350 q -85 367 -86 360 q -85 385 -85 374 q -83 438 -85 408 q -76 496 -82 467 q -58 551 -69 525 q -26 594 -47 578 l -22 593 q 18 614 -4 607 q 38 663 28 639 l 75 761 q 94 810 85 786 q 115 851 104 831 q 141 888 126 871 q 176 914 156 904 q 222 924 196 924 q 271 914 247 924 q 324 941 294 933 q 382 949 353 949 q 432 944 407 949 q 511 934 472 938 q 590 931 550 931 q 643 933 617 931 q 696 938 669 935 l 714 938 q 764 928 743 938 l 828 901 m 768 226 q 719 276 764 271 q 704 279 711 279 q 697 278 703 279 q 682 276 692 278 l 579 260 q 549 255 563 257 q 526 253 536 253 q 507 254 517 253 q 511 269 510 264 q 513 279 513 275 q 512 289 513 283 q 511 303 511 294 q 511 319 511 314 q 515 327 511 325 q 524 330 518 329 q 540 333 531 331 q 642 372 593 349 q 719 446 692 396 q 732 474 728 461 q 736 499 736 488 q 735 511 736 504 q 694 547 731 547 q 680 547 688 547 q 665 544 672 546 q 651 544 658 544 q 638 542 644 543 l 582 538 q 575 536 578 538 l 561 536 q 554 535 558 535 q 542 533 549 533 q 535 542 536 533 q 530 561 533 550 q 521 584 526 572 q 510 606 515 596 q 499 621 504 617 q 502 624 501 622 q 504 625 503 625 q 510 626 507 626 q 518 628 514 626 q 592 643 554 631 q 663 676 629 656 q 722 726 696 697 q 760 790 747 756 q 764 814 764 803 q 752 846 764 831 q 714 861 740 861 q 704 861 710 861 q 647 856 676 858 q 590 854 618 854 q 419 869 508 854 q 381 872 399 872 q 368 872 374 872 q 296 813 310 868 q 267 830 282 821 q 249 840 251 839 q 222 847 232 847 q 202 840 211 847 q 186 823 193 833 q 174 801 179 813 q 165 781 169 789 q 121 669 143 725 q 78 558 99 614 q 71 540 74 549 q 51 542 61 542 q 33 540 43 542 q 22 535 24 539 q 3 497 10 525 q -6 443 -4 469 q -8 397 -8 417 q -8 374 -8 390 q -7 349 -7 357 q 11 335 -7 339 q 9 280 10 300 q 8 253 8 260 q 13 196 8 225 q 19 159 15 176 q 28 124 24 142 q 29 115 28 118 q 49 81 36 99 q 78 49 61 64 q 113 26 94 35 q 151 17 132 17 q 178 24 164 17 q 196 47 196 32 q 194 53 196 50 q 192 81 192 67 q 192 90 192 85 q 193 100 193 94 q 192 124 193 111 q 193 132 192 129 q 190 196 190 164 q 192 244 190 213 q 207 322 193 275 q 296 322 256 322 q 349 318 336 321 q 353 318 351 318 q 355 319 354 318 q 357 319 356 319 l 357 315 q 363 285 357 294 q 375 254 368 275 q 338 244 354 251 q 313 218 322 238 q 294 144 294 182 q 317 71 294 107 q 376 15 343 28 q 442 3 408 3 q 467 4 454 3 q 532 15 496 7 q 603 37 568 24 q 669 68 639 50 q 721 108 700 86 q 756 159 744 133 q 768 214 768 185 q 768 226 768 219 m 343 585 q 344 577 343 583 q 344 564 344 571 q 345 550 344 557 q 346 542 346 543 q 346 539 346 540 q 332 519 346 525 q 318 518 328 518 q 299 519 313 518 q 257 522 286 519 q 280 598 268 561 q 304 667 292 635 q 321 643 311 653 q 337 633 328 636 q 349 622 346 629 q 350 614 350 618 q 348 602 350 610 q 343 585 346 594 m 335 243 q 314 246 321 246 l 335 243 m 363 204 l 347 185 l 347 211 l 363 204 z "},"":{"ha":856,"x_min":-68,"x_max":988,"o":"m 907 885 q 962 840 940 869 q 983 768 983 810 q 975 722 983 746 q 953 675 967 697 q 924 633 940 653 q 890 600 907 614 q 939 547 926 581 q 951 489 951 513 q 925 394 951 439 q 858 319 899 349 l 908 299 q 967 250 946 283 q 988 169 988 217 q 947 45 988 99 q 845 -44 906 -8 q 714 -99 785 -81 q 583 -118 643 -118 q 496 -103 535 -118 l 432 -76 q 421 -71 426 -75 q 387 -87 410 -82 q 338 -92 364 -92 q 293 -87 314 -92 q 255 -81 274 -85 q 221 -69 236 -76 l 156 -43 q 53 31 96 -18 q -16 142 11 81 q -56 269 -43 203 q -68 396 -68 336 q -25 654 -68 526 q 97 886 18 782 q 172 942 129 926 q 253 958 214 958 q 336 943 299 958 l 393 921 q 428 929 411 928 q 461 931 446 931 q 511 926 486 931 q 590 916 551 919 q 669 913 629 913 q 722 915 696 913 q 775 919 749 917 l 793 919 q 819 917 806 919 q 843 910 832 915 l 907 885 m 846 208 q 799 258 842 253 q 783 261 790 261 q 776 260 782 261 q 760 258 771 260 q 710 250 735 254 q 658 242 685 246 q 627 237 640 239 q 606 235 614 235 q 586 236 596 235 q 592 269 592 253 q 591 281 592 271 q 589 310 590 290 q 589 321 589 317 q 592 337 589 333 q 615 347 594 340 q 717 387 668 363 q 794 460 767 411 q 807 488 803 475 q 811 513 811 501 q 810 525 811 518 q 771 563 806 560 q 755 561 763 561 q 740 560 747 561 q 733 558 736 560 l 719 558 q 713 557 717 557 l 657 551 q 650 550 653 551 l 636 550 q 629 549 633 549 q 620 548 624 549 q 617 547 617 547 q 610 557 611 547 q 598 582 607 572 q 578 603 589 592 q 581 606 581 604 q 586 608 582 607 l 593 608 q 596 610 596 610 q 669 625 631 613 q 740 658 707 638 q 800 708 774 679 q 839 772 826 738 q 843 796 843 785 q 831 828 843 813 q 793 843 818 843 q 783 843 789 843 q 726 838 756 840 q 669 836 697 836 q 499 851 588 836 q 460 854 478 854 q 447 854 453 854 q 379 808 394 850 q 326 863 354 843 q 253 882 299 882 q 200 872 225 882 q 158 840 175 863 q 122 788 139 814 q 90 733 104 761 q 37 590 57 663 q 10 440 17 518 q 8 394 8 418 q 57 167 8 276 q 126 66 85 108 q 239 14 168 24 q 275 11 257 11 q 331 19 300 11 q 392 58 361 28 l 393 57 l 393 54 l 394 53 q 453 -3 421 10 q 519 -15 486 -15 q 544 -14 532 -15 q 610 -3 574 -11 q 681 19 646 6 q 747 50 715 32 q 799 90 778 68 q 834 141 822 115 q 846 196 846 167 q 846 208 846 201 m 661 626 l 660 626 q 646 642 653 635 q 632 657 639 650 l 651 638 q 660 628 658 631 l 661 626 m 335 272 q 330 253 333 263 q 322 236 326 244 q 299 222 314 222 q 275 235 282 222 q 264 263 268 249 q 258 315 258 289 q 259 339 258 321 q 267 389 260 357 q 304 515 281 451 q 313 508 311 513 q 317 499 315 503 q 340 408 338 444 q 343 354 343 371 q 335 272 343 314 z "},"":{"ha":565,"x_min":-68,"x_max":693,"o":"m 440 886 q 490 850 468 875 q 511 778 511 825 l 511 768 q 594 703 560 742 q 650 618 628 664 q 683 523 672 572 q 693 425 693 474 q 675 304 693 361 q 629 190 657 247 q 461 39 571 82 l 461 29 q 453 -19 461 4 q 415 -67 440 -47 q 349 -86 389 -86 q 304 -78 324 -86 l 240 -51 q 188 -8 201 -36 q 165 57 175 21 l 165 58 q 117 85 138 69 q 76 119 96 101 q 31 176 47 146 q 7 238 15 207 q -3 299 -1 269 q -6 354 -6 329 q -6 373 -6 364 q -4 393 -6 382 l 15 393 q -3 401 8 396 l -3 406 l -18 413 q -59 477 -50 439 q -68 554 -68 515 q -51 657 -68 610 q -1 741 -33 704 q 75 803 31 778 q 174 842 119 829 q 224 904 188 883 q 313 925 260 925 q 340 922 324 925 q 375 913 357 919 l 440 886 m 546 519 q 494 651 531 593 q 385 740 458 710 q 368 751 369 747 q 367 758 367 754 q 368 776 367 765 q 371 803 371 792 q 362 833 371 822 q 313 849 353 843 l 299 849 q 242 792 243 847 q 236 778 240 781 q 224 774 232 775 q 159 758 192 771 q 98 726 126 746 q 48 681 69 707 q 18 622 26 654 q 10 581 11 599 q 8 553 8 564 q 10 525 8 539 q 21 483 10 506 q 53 464 32 464 q 61 464 57 464 q 74 467 68 465 q 83 468 79 468 q 94 467 88 468 q 73 401 75 429 q 71 353 71 372 q 72 313 71 333 q 86 239 75 274 q 128 176 97 204 q 172 141 149 157 q 224 118 194 125 q 237 110 235 115 q 239 93 239 104 l 240 81 l 240 75 q 250 39 240 58 q 283 17 263 17 q 296 18 289 17 q 321 56 319 24 q 320 74 321 65 q 318 93 319 83 q 318 110 318 104 q 320 118 318 115 q 328 123 322 121 q 343 128 333 125 q 497 253 446 157 q 542 365 532 315 q 553 450 553 415 q 546 519 553 485 m 247 275 q 240 268 247 271 q 201 317 211 283 q 196 353 196 335 q 197 371 196 357 q 204 407 199 385 q 207 418 206 413 l 214 438 q 217 449 215 443 q 223 458 219 457 q 229 460 226 460 q 236 458 233 460 q 247 449 247 458 q 247 444 247 447 l 247 275 m 324 424 q 356 400 343 418 q 371 358 368 382 q 371 349 371 354 q 359 306 371 328 q 324 272 347 283 l 324 424 z "},"":{"ha":775,"x_min":-87,"x_max":907,"o":"m 825 986 q 882 939 861 971 q 903 867 903 907 q 872 761 903 813 q 800 676 840 710 l 769 656 l 806 642 q 840 618 826 633 q 861 586 853 603 q 872 553 869 569 q 875 524 875 536 q 852 430 875 474 q 793 353 829 386 q 876 308 844 344 q 907 213 907 272 q 890 121 907 163 q 844 45 874 79 q 776 -15 815 11 q 693 -57 738 -40 q 606 -86 654 -72 q 504 -100 557 -100 q 421 -83 458 -100 l 356 -57 q 317 -36 332 -47 q 262 -74 294 -65 q 215 -83 229 -83 q 183 -80 197 -83 q 158 -71 169 -76 l 100 -47 l 93 -46 q 51 -22 74 -37 q 7 17 28 -6 q -30 66 -14 39 q -50 125 -46 93 q -56 156 -53 140 l -60 176 q -65 207 -64 192 q -69 281 -69 243 q -69 308 -69 294 q -68 333 -68 321 q -79 356 -75 344 q -85 378 -83 367 q -87 396 -87 386 q -87 404 -87 397 q -86 422 -86 411 q -83 501 -86 463 q -69 578 -79 539 q -57 610 -65 592 q -31 643 -49 628 l -28 642 q -9 656 -19 649 q 14 665 1 663 q 53 775 33 721 q 92 883 72 829 q 111 928 100 906 q 138 967 122 950 q 173 996 153 985 q 221 1007 193 1007 q 269 997 246 1007 q 324 1026 293 1018 q 388 1035 354 1035 q 432 1031 410 1035 q 510 1019 472 1024 q 589 1015 549 1015 q 641 1017 615 1015 q 694 1022 667 1019 l 710 1022 q 761 1013 740 1022 l 825 986 m 767 249 q 718 303 763 297 q 700 306 710 306 q 681 303 690 306 q 674 301 678 303 l 661 300 q 654 299 658 300 l 604 289 q 597 288 601 289 l 585 286 q 578 285 582 286 q 547 279 561 282 q 522 276 533 276 q 506 278 514 276 q 510 295 508 289 q 511 307 511 301 q 510 318 511 313 q 510 333 510 324 q 510 343 510 339 q 514 358 510 357 q 539 365 518 360 q 642 410 592 382 q 718 489 693 438 q 731 520 726 506 q 735 547 735 535 q 733 561 735 554 q 693 600 729 600 q 678 600 686 600 q 664 599 671 600 q 636 596 650 597 l 581 589 q 553 586 567 588 q 544 585 547 586 q 540 585 540 585 q 533 594 535 585 q 528 615 532 603 q 519 640 525 628 q 508 664 514 653 q 497 681 503 675 l 503 686 q 509 688 506 688 q 517 689 513 688 q 591 706 553 692 q 663 744 629 721 q 723 799 697 768 q 758 868 749 831 q 763 894 763 882 q 750 929 763 913 q 710 946 738 946 q 703 946 707 946 q 646 940 675 942 q 589 939 617 939 q 418 956 504 939 q 398 959 406 958 q 388 960 390 960 q 367 957 378 960 q 294 892 308 953 q 265 911 281 901 q 247 924 250 921 q 221 931 231 931 q 183 900 197 931 q 164 857 172 878 q 119 735 142 794 q 76 613 97 675 q 72 603 74 607 q 69 593 71 599 q 50 594 60 594 q 32 593 42 594 q 21 588 22 592 q 1 545 8 575 q -8 486 -6 515 q -10 435 -10 457 q -9 410 -10 428 q -8 382 -8 392 q 10 367 -8 374 q 8 307 8 329 q 7 276 7 285 q 11 215 7 246 q 18 175 14 194 q 26 135 22 156 q 28 126 26 129 q 47 91 35 110 q 75 56 58 72 q 111 30 92 40 q 150 19 131 19 q 176 25 165 19 q 190 36 186 31 q 194 49 194 42 q 193 58 194 53 q 190 89 190 74 q 191 99 190 93 q 192 110 192 104 q 190 136 192 124 q 192 144 190 142 q 189 215 189 179 q 190 267 189 232 q 206 354 192 303 q 294 353 254 353 q 347 349 335 353 q 351 349 350 349 q 353 349 353 349 q 356 350 354 350 l 356 346 q 361 312 356 322 q 374 279 367 301 q 337 268 353 276 q 311 240 321 260 q 293 158 293 199 q 315 78 293 118 q 375 16 342 29 q 440 3 408 3 q 465 4 453 3 q 532 16 496 7 q 603 40 568 25 q 669 76 638 56 q 719 119 700 96 q 755 176 743 147 q 767 235 767 204 q 767 249 767 242 m 342 635 l 344 603 l 344 594 q 344 592 344 593 q 331 569 344 578 q 319 568 328 568 q 299 569 314 568 q 256 574 285 571 q 278 657 267 617 q 303 732 290 697 q 319 706 308 719 q 335 694 326 699 q 347 683 344 690 q 349 674 349 679 q 347 660 349 668 q 342 643 344 653 l 342 635 m 331 274 q 315 276 322 276 l 331 274 m 382 250 l 346 194 l 346 238 l 365 229 l 379 250 l 382 250 z "},"":{"ha":856,"x_min":-68,"x_max":988,"o":"m 906 986 q 963 939 942 971 q 983 867 983 907 q 952 761 983 813 q 881 678 921 710 q 917 653 903 669 q 938 620 931 638 q 949 586 946 603 q 951 558 951 569 q 921 451 951 501 q 846 368 890 400 l 907 343 q 967 291 947 328 q 988 208 988 254 q 948 80 988 138 q 849 -17 908 22 q 718 -78 789 -57 q 583 -100 647 -100 q 499 -85 536 -100 l 435 -58 q 427 -56 431 -57 q 421 -53 424 -54 q 387 -66 410 -61 q 339 -71 364 -71 q 292 -67 315 -71 q 258 -60 274 -64 q 226 -49 242 -56 l 163 -22 q 54 58 99 4 q -17 180 10 113 q -56 319 -44 247 q -68 454 -68 392 q -26 732 -68 592 q 96 985 17 872 q 167 1046 125 1026 q 254 1065 210 1065 q 333 1050 299 1065 l 397 1024 q 433 1033 415 1031 q 467 1035 451 1035 q 513 1031 490 1035 q 590 1019 551 1024 q 668 1015 628 1015 q 722 1017 696 1015 q 775 1022 747 1019 l 790 1022 q 842 1013 821 1022 l 906 986 m 663 701 q 770 765 721 725 q 839 868 819 806 q 843 894 843 882 q 830 929 843 913 q 790 946 817 946 q 783 946 788 946 q 726 940 756 942 q 668 939 697 939 q 499 956 582 939 q 478 959 486 958 q 468 960 471 960 q 447 957 457 960 q 379 907 396 953 q 329 966 356 943 q 254 989 303 989 q 201 978 226 989 q 158 942 175 967 q 122 885 139 914 q 90 824 104 856 q 10 503 22 668 q 8 453 8 478 q 57 203 8 322 q 126 92 85 138 q 239 35 168 46 q 274 32 257 32 q 392 83 344 32 l 393 82 l 393 79 l 394 78 q 454 16 421 29 q 519 3 488 3 q 544 4 532 3 q 611 16 575 7 q 683 40 647 25 q 749 74 718 54 q 799 119 779 94 q 834 176 822 147 q 846 235 846 204 q 846 249 846 242 q 799 303 842 297 q 781 306 790 306 q 760 303 771 306 q 710 294 735 299 q 658 285 685 289 q 627 279 640 282 q 603 276 614 276 q 586 278 594 276 q 592 315 592 297 q 591 329 592 318 q 589 360 590 340 q 589 372 589 367 q 592 390 589 385 q 615 401 594 394 q 668 420 642 410 q 718 444 694 431 q 762 478 742 458 q 794 525 782 499 q 807 556 803 542 q 811 582 811 569 q 810 596 811 589 q 771 636 806 636 q 755 635 763 636 q 740 633 747 635 l 629 622 q 620 622 624 622 q 617 621 617 621 q 610 631 611 621 q 598 658 607 647 q 578 681 589 669 q 581 684 581 683 q 586 688 582 685 l 593 688 q 596 689 596 689 q 628 694 613 690 q 660 703 644 697 q 650 715 654 710 l 639 726 q 632 735 636 731 l 654 713 q 661 704 660 707 l 661 701 l 663 701 m 335 318 q 330 298 333 307 q 322 279 326 289 q 297 263 314 263 q 274 278 281 263 q 264 307 267 293 q 258 365 258 338 q 259 391 258 371 q 267 446 260 411 q 304 585 282 519 q 313 577 311 582 q 317 567 315 572 q 340 467 338 507 q 343 408 343 426 q 335 318 343 363 z "},"":{"ha":565,"x_min":-68,"x_max":693,"o":"m 425 974 q 431 971 428 972 l 442 967 q 447 964 444 965 q 494 921 476 949 q 511 857 511 893 l 510 840 q 592 771 558 813 q 649 681 626 729 q 683 578 672 632 q 693 469 693 524 q 678 347 693 410 q 635 226 664 283 q 563 122 607 168 q 461 53 519 76 l 461 33 q 431 -50 461 -15 q 349 -85 401 -85 q 306 -76 325 -85 l 242 -50 q 186 -1 201 -33 q 164 71 171 32 q 115 102 136 85 q 74 139 93 119 q 30 199 46 167 q 6 265 14 232 q -3 331 -1 299 q -6 388 -6 363 q -6 413 -6 400 q -3 439 -6 425 l 13 439 q -3 447 7 440 l -1 449 l -1 450 l -15 456 q -45 492 -35 472 q -58 526 -56 513 q -67 574 -65 550 q -68 608 -68 597 q -26 773 -68 706 q 100 889 17 840 q 174 918 138 910 q 188 951 179 935 q 212 979 197 967 q 248 1000 226 992 q 299 1008 269 1008 q 337 1006 314 1008 q 383 990 360 1003 l 425 974 m 546 571 q 494 715 531 651 q 385 813 458 779 q 368 824 369 819 q 367 833 367 828 q 368 853 367 840 q 371 882 371 869 q 362 914 371 903 q 313 931 353 925 q 299 932 308 932 q 257 915 271 929 q 242 869 243 901 q 236 855 240 858 q 224 850 232 851 q 157 832 190 846 q 96 796 124 818 q 47 745 68 774 q 18 683 26 717 q 10 638 11 657 q 8 608 8 619 q 10 576 8 592 q 21 531 10 556 q 54 508 32 508 q 61 508 57 508 q 74 512 68 510 q 85 514 79 514 q 94 513 89 514 q 73 440 75 472 q 71 386 71 408 q 72 342 71 364 q 86 263 75 301 q 128 193 97 224 q 172 154 149 172 q 224 129 194 136 q 239 108 239 125 q 241 74 239 92 q 250 42 243 57 q 283 18 263 18 q 296 19 289 18 q 321 60 319 25 q 320 81 321 71 q 318 101 319 90 q 320 130 318 125 q 343 140 322 135 q 497 276 446 172 q 542 401 532 346 q 553 493 553 456 q 546 571 553 532 m 247 303 q 240 294 247 297 q 201 347 211 310 q 196 386 196 367 q 197 407 196 392 q 204 447 199 422 q 207 458 206 453 l 214 482 q 217 493 215 488 q 223 503 219 501 q 229 504 226 504 q 236 503 233 504 q 247 492 247 503 q 247 488 247 490 l 247 303 m 324 465 q 356 439 343 458 q 371 393 368 419 q 371 383 371 389 q 359 335 371 361 q 324 299 347 310 l 324 465 z "},"%":{"ha":674,"x_min":-56,"x_max":793,"o":"m -56 588 q -51 630 -56 608 q -40 671 -47 651 l -33 693 l -33 713 q -28 744 -33 731 q -21 768 -24 758 q 53 867 11 833 q 169 901 96 901 q 228 890 199 901 l 292 864 q 349 826 322 853 q 394 774 375 799 q 425 808 410 792 q 457 843 440 825 q 499 878 471 858 q 572 899 528 899 q 615 890 597 899 l 679 864 q 725 832 704 854 q 761 782 746 810 q 785 724 776 754 q 793 668 793 694 q 776 587 793 622 q 728 519 760 551 q 667 459 696 489 q 608 397 638 429 l 624 390 q 685 344 656 372 q 737 283 714 317 q 774 208 760 249 q 788 125 788 168 q 767 32 788 75 q 713 -42 747 -11 q 633 -90 678 -72 q 539 -107 589 -107 q 454 -90 494 -107 l 390 -64 q 297 7 335 -42 l 286 -24 q 277 -45 283 -32 q 259 -71 271 -58 q 230 -92 247 -83 q 188 -100 213 -100 q 167 -97 176 -100 q 147 -92 157 -94 l 83 -65 q 21 -6 43 -49 q -1 79 -1 38 q 0 102 -1 92 q 4 121 1 113 q 7 135 6 128 q 11 149 8 142 q 106 360 44 258 q 115 375 111 367 q 125 392 119 383 q 122 393 124 392 l 57 419 q -22 480 11 439 q -56 588 -56 521 m 365 740 q 327 803 350 776 q 283 853 304 831 q 327 803 304 831 q 365 739 350 775 l 365 740 m 271 540 q 311 638 311 585 q 296 706 311 671 q 267 756 285 733 q 229 799 249 778 q 168 825 203 825 q 164 825 165 825 q 131 822 147 824 q 100 807 114 821 q 72 775 85 792 q 51 739 60 758 q 46 726 49 732 q 43 714 43 719 q 43 710 43 711 q 44 697 44 704 q 41 677 44 689 q 32 650 38 665 q 27 631 29 640 q 22 610 25 621 q 21 588 21 599 q 40 524 21 554 q 106 483 60 494 q 146 478 124 478 q 213 494 182 478 q 271 540 244 511 m 610 600 q 632 625 622 611 q 647 657 642 639 q 653 694 653 676 q 642 747 653 718 q 603 808 631 776 q 571 822 590 822 q 554 819 564 822 q 513 790 528 810 q 328 565 410 688 q 171 319 246 443 q 144 270 161 301 q 113 203 128 239 q 86 134 97 168 q 75 79 75 100 q 78 56 75 69 q 87 31 81 43 q 102 11 93 19 q 124 3 111 3 q 150 26 143 3 q 173 85 157 53 q 210 150 189 118 q 253 211 231 182 q 292 260 275 240 q 308 277 300 268 q 322 294 315 286 l 385 364 q 495 484 439 426 q 610 600 551 542 m 132 636 q 138 640 135 640 q 144 638 140 640 q 158 629 151 633 q 171 619 164 625 q 185 597 185 610 q 184 589 185 596 q 168 571 183 582 q 140 561 158 564 q 119 576 124 561 q 117 593 117 585 q 121 611 117 600 q 132 636 125 622 m 521 350 q 479 363 500 363 q 408 317 432 363 l 382 275 q 333 169 346 228 q 331 139 331 154 q 337 97 331 122 q 363 49 343 72 q 411 10 382 25 q 475 -4 440 -4 q 554 14 518 -1 q 627 77 607 38 q 647 150 647 117 q 642 192 647 169 q 521 350 615 294 m 503 139 q 465 104 496 108 l 458 104 q 434 110 440 104 q 424 131 428 115 q 422 149 422 140 q 423 161 422 153 q 426 182 424 169 q 431 192 428 190 q 436 193 433 193 q 442 192 439 193 q 463 185 453 189 q 482 175 472 182 q 504 146 504 163 q 503 139 504 143 m 233 33 l 228 18 l 244 57 q 233 33 238 47 z "},"(":{"ha":418,"x_min":-56,"x_max":536,"o":"m 446 1039 q 484 1031 468 1039 q 511 1009 500 1022 q 528 981 522 996 q 533 950 533 965 q 517 903 533 928 q 485 868 500 879 q 462 844 474 860 q 439 812 450 829 q 419 776 428 794 q 406 746 411 758 q 369 598 378 675 q 361 431 361 521 q 367 329 361 382 q 386 226 372 276 q 423 128 400 175 q 481 44 446 82 q 493 31 486 39 q 507 15 500 24 q 529 -24 522 -4 q 536 -61 536 -44 q 513 -126 536 -99 q 449 -154 489 -154 q 428 -151 438 -154 q 408 -144 418 -147 q 385 -136 396 -140 q 363 -128 374 -132 l 299 -101 q 147 -5 214 -67 q 36 134 81 57 q -32 300 -8 211 q -56 479 -56 389 q -19 699 -56 593 q 88 893 17 804 q 200 997 140 960 q 339 1057 260 1035 q 360 1063 350 1060 q 382 1065 371 1065 l 446 1039 m 389 -15 q 360 19 378 1 q 269 170 303 86 q 226 339 236 254 q 219 457 219 399 q 221 515 219 472 q 229 633 222 558 q 243 717 232 671 q 273 807 254 763 q 317 891 292 851 q 374 956 343 931 q 388 965 381 961 q 394 975 394 969 q 392 982 394 978 q 382 990 389 990 q 374 988 381 990 q 360 983 368 986 q 241 933 293 968 q 147 846 189 899 q 53 675 82 767 q 21 479 24 583 q 64 250 26 356 q 193 56 101 144 q 368 -46 267 -17 q 379 -50 375 -49 q 385 -51 383 -51 q 393 -46 389 -51 q 396 -35 396 -40 q 389 -15 396 -25 z "},")":{"ha":418,"x_min":-54,"x_max":538,"o":"m 183 1010 q 336 913 269 974 q 447 776 403 853 q 515 610 492 699 q 538 431 538 522 q 502 210 538 317 q 396 14 467 103 q 283 -89 343 -51 q 143 -149 222 -126 q 122 -154 132 -151 q 101 -157 113 -157 q 40 -132 65 -157 l 38 -131 q -27 -103 -3 -131 q -51 -42 -51 -76 q -35 5 -51 -18 q -3 39 -18 28 q 13 55 6 46 q 31 76 21 64 q 87 187 67 131 q 113 308 107 243 q 119 398 117 353 q 122 488 122 443 q 95 687 122 589 q 1 864 68 785 q -11 878 -4 871 q -25 894 -18 886 q -47 934 -40 914 q -54 969 -54 954 q -51 993 -54 978 q -37 1024 -47 1008 q -10 1051 -28 1039 q 35 1063 7 1063 q 56 1059 46 1063 q 75 1053 65 1056 l 119 1036 l 183 1010 m 50 981 q 40 985 44 983 q 35 986 36 986 q 25 981 29 986 q 22 969 22 975 q 23 963 22 968 q 29 950 24 957 q 44 932 36 940 q 58 915 51 924 q 109 847 86 886 q 149 765 132 808 q 177 678 165 722 q 193 596 189 635 q 200 486 200 540 q 198 422 200 468 q 189 303 196 376 q 175 219 186 265 q 145 128 164 174 q 101 44 126 83 q 44 -21 76 4 q 31 -31 38 -26 q 25 -40 25 -36 q 26 -47 25 -44 q 38 -56 31 -56 q 44 -53 39 -56 q 58 -49 50 -51 q 177 1 125 -33 q 272 89 229 36 q 366 260 338 168 q 397 457 394 353 q 374 624 397 540 q 308 778 351 707 q 199 902 264 849 q 50 981 133 956 z "},"{":{"ha":442,"x_min":-54,"x_max":561,"o":"m 492 1036 q 543 998 525 1024 q 561 946 561 972 q 542 890 561 914 q 496 854 524 867 q 481 835 488 850 q 469 803 475 821 q 460 769 464 786 q 456 744 457 753 q 444 692 449 718 q 435 639 440 665 q 406 549 424 593 q 361 467 389 506 q 412 378 396 425 q 435 278 428 331 q 438 258 436 268 l 442 218 q 444 199 443 208 q 453 131 449 165 q 465 64 458 97 q 472 46 469 49 l 481 39 q 497 28 489 32 q 510 19 504 24 q 536 -11 524 8 q 549 -60 549 -31 q 538 -104 549 -85 q 508 -137 526 -124 q 467 -158 490 -151 q 422 -165 444 -165 q 381 -160 401 -165 q 342 -146 361 -154 l 278 -119 q 182 -58 222 -97 q 118 44 142 -18 q 79 186 92 114 q 43 328 67 258 q 1 390 29 368 q -17 407 -7 397 q -35 429 -26 417 q -49 454 -43 442 q -54 479 -54 467 q -40 523 -54 499 q -15 561 -26 547 q 18 608 6 585 q 40 665 31 632 q 55 719 49 693 q 68 774 61 746 q 108 876 85 826 q 163 965 131 925 q 241 1033 196 1006 q 347 1071 286 1061 q 369 1074 361 1074 q 426 1063 397 1074 l 492 1036 m 411 985 q 369 997 392 997 q 358 996 364 997 q 276 965 311 989 q 215 908 240 942 q 171 835 189 875 q 142 753 153 794 q 128 699 135 725 q 114 644 122 672 q 86 573 103 607 q 42 510 69 539 q 21 479 21 488 q 22 473 21 478 q 47 451 24 468 q 88 408 72 432 q 115 353 104 383 q 133 292 126 322 q 147 229 140 261 q 167 136 156 182 q 198 52 178 90 q 251 -16 218 14 q 338 -60 285 -46 q 358 -64 347 -64 q 386 -57 372 -64 q 400 -49 393 -54 q 408 -33 407 -44 q 408 -29 408 -32 q 402 -16 408 -21 q 388 -7 396 -11 q 347 25 361 4 q 326 74 333 46 q 314 145 319 110 q 304 217 308 181 q 297 285 300 251 q 283 353 293 319 q 249 430 271 394 q 182 485 226 465 q 199 500 193 496 q 272 605 251 546 q 306 729 293 664 q 321 809 313 769 q 344 888 329 849 q 366 926 353 908 q 403 951 379 943 q 413 957 410 954 q 422 972 422 965 q 411 985 422 979 m 408 72 q 417 65 410 68 l 408 72 z "},"}":{"ha":442,"x_min":-56,"x_max":561,"o":"m 228 1031 q 344 942 304 999 q 404 824 383 886 q 433 701 424 765 q 463 581 443 638 q 506 518 478 539 q 524 502 514 513 q 542 479 533 492 q 556 454 550 467 q 561 429 561 442 q 547 385 561 410 q 521 347 532 361 q 481 285 494 318 q 458 217 468 253 l 444 163 q 408 53 431 107 q 351 -47 386 -1 q 269 -122 317 -92 q 160 -162 222 -153 l 136 -165 q 108 -162 124 -165 q 78 -153 93 -160 l 74 -151 l 72 -151 l 14 -128 q -37 -89 -19 -114 q -56 -36 -56 -64 q -35 19 -56 -4 q 10 54 -15 43 q 17 59 13 56 q 26 78 21 63 q 38 109 33 93 q 46 142 43 125 q 50 161 49 151 l 57 200 q 61 219 60 210 q 90 336 74 282 q 146 442 107 390 q 108 499 122 467 q 84 567 93 532 q 70 640 75 603 q 61 710 65 676 q 53 777 58 743 q 40 844 49 811 q 32 865 38 860 q 22 874 26 871 q -8 890 4 882 q -28 907 -21 897 q -40 931 -36 917 q -43 968 -43 946 q -31 1013 -43 993 q -1 1047 -19 1033 q 40 1068 17 1061 q 86 1075 64 1075 q 124 1069 107 1075 q 144 1063 135 1067 q 164 1057 154 1060 l 228 1031 m 394 483 q 326 582 347 521 q 308 643 315 613 q 294 706 301 674 q 275 799 286 754 q 244 883 264 844 q 190 951 224 922 q 104 996 157 981 q 85 999 94 999 q 56 992 69 999 q 41 984 47 989 q 33 968 35 979 q 33 964 33 967 q 40 951 33 956 q 54 943 46 946 q 94 910 81 931 q 115 861 108 889 q 128 790 122 825 q 138 718 133 754 q 145 649 142 683 q 158 582 149 615 q 193 505 171 540 q 260 450 215 469 q 251 442 254 446 q 243 435 247 438 q 170 331 192 390 q 136 206 149 271 q 121 126 129 165 q 97 47 113 86 q 75 10 88 26 q 39 -17 63 -7 q 29 -22 33 -19 q 21 -37 21 -29 q 31 -50 21 -44 q 72 -62 50 -62 q 83 -61 78 -62 q 165 -31 129 -54 q 226 26 200 -7 q 271 100 253 60 q 300 182 289 140 q 313 236 307 210 q 328 290 319 263 q 356 362 339 328 q 400 425 372 396 q 421 456 421 447 q 419 462 421 457 q 394 483 418 467 z "},"[":{"ha":336,"x_min":-56,"x_max":454,"o":"m 358 838 l 357 817 q 343 569 347 692 q 339 321 339 446 q 343 185 339 253 q 354 50 347 118 l 379 40 q 399 29 388 36 q 422 11 411 22 q 439 -16 432 0 q 446 -54 446 -32 q 436 -97 446 -78 q 411 -131 426 -117 q 375 -154 396 -146 q 332 -162 354 -162 l 296 -167 q 260 -168 276 -168 q 233 -168 243 -168 q 201 -167 218 -168 q 169 -164 185 -167 q 106 -139 133 -160 l 104 -137 q 37 -108 61 -132 q 0 -53 13 -85 q -28 61 -17 -10 q -45 208 -39 132 q -53 353 -51 283 q -56 463 -56 422 q -53 591 -56 513 q -42 751 -50 669 q -18 907 -33 833 q 22 1021 -3 981 q 56 1058 33 1038 q 119 1078 79 1078 q 184 1076 151 1078 q 249 1072 217 1074 l 260 1072 l 283 1071 l 294 1071 l 358 1044 l 360 1044 q 425 1016 396 1040 q 454 939 454 992 q 427 872 454 899 q 360 838 400 844 l 296 864 l 294 864 l 358 838 m 206 674 q 213 798 206 736 q 222 922 219 860 q 236 938 222 938 q 261 938 249 938 q 286 940 274 939 q 314 967 314 944 q 314 969 314 968 q 286 994 314 993 q 265 996 275 996 q 244 996 256 996 l 161 1000 l 151 1000 l 131 1001 q 106 999 114 1001 q 88 981 97 996 q 63 916 74 956 q 44 828 51 876 q 33 727 38 779 q 26 626 28 675 q 22 533 24 576 q 21 463 21 490 q 28 263 24 360 q 49 71 33 167 q 58 22 53 46 q 71 -25 63 -1 q 87 -50 78 -40 q 115 -62 96 -60 q 168 -67 142 -67 q 208 -65 182 -67 q 275 -58 235 -62 q 278 -57 278 -57 l 282 -57 q 306 -28 306 -47 q 281 -3 303 -7 q 254 0 267 0 q 246 0 250 0 q 224 4 228 1 q 218 24 221 7 q 217 30 218 26 q 217 38 217 33 q 203 197 207 122 q 199 339 199 272 q 199 376 199 357 q 200 451 200 414 l 204 599 q 206 674 206 636 z "},"]":{"ha":335,"x_min":-56,"x_max":454,"o":"m 75 1065 q 126 1075 106 1072 q 165 1078 146 1078 q 199 1076 182 1078 q 232 1072 215 1075 l 296 1046 q 363 1017 340 1039 q 399 963 386 994 q 428 851 418 918 q 445 710 439 783 q 453 567 451 638 q 454 446 454 496 q 452 316 454 393 q 442 158 450 239 q 418 6 433 78 q 378 -111 403 -67 q 328 -158 354 -147 q 260 -169 301 -169 l 221 -167 q 107 -162 164 -167 q 90 -160 100 -161 q 67 -153 79 -158 l 3 -126 q -37 -97 -18 -118 q -56 -35 -56 -76 q 0 60 -56 28 q 20 66 10 64 q 42 71 31 68 q 42 85 42 78 q 43 99 42 92 q 49 181 46 140 q 54 263 53 222 q 58 427 56 346 q 60 592 60 508 q 58 704 60 649 q 50 817 57 760 l 47 844 q 47 847 47 846 l 46 856 q 46 858 46 857 l 29 865 q -22 898 1 874 q -46 965 -46 922 q -37 1002 -46 982 q -14 1038 -29 1022 q 19 1062 1 1054 q 53 1069 38 1069 q 74 1067 63 1069 l 75 1065 m 264 960 q 248 985 257 975 q 219 997 239 994 q 167 1001 193 1001 q 126 999 153 1001 q 60 993 100 997 q 58 992 60 992 l 54 992 q 51 990 53 990 q 31 967 31 983 q 31 963 31 964 q 37 947 31 954 q 54 938 43 940 q 72 935 63 935 q 89 935 81 935 q 110 931 107 933 q 117 911 114 929 q 118 899 118 907 q 133 739 129 813 q 136 601 136 665 q 136 558 136 581 l 131 261 q 123 137 129 199 q 114 13 117 75 q 99 -3 113 -1 q 74 -3 86 -3 q 50 -6 61 -4 q 27 -15 33 -8 q 21 -35 21 -21 q 27 -53 21 -47 q 50 -60 33 -58 q 132 -63 90 -62 q 215 -67 174 -64 q 247 -46 238 -67 q 274 19 263 -21 q 292 108 285 60 q 303 208 299 156 q 310 308 307 260 q 313 400 313 357 q 314 472 314 443 q 312 583 314 517 q 305 719 310 649 q 290 853 300 789 q 264 960 281 918 z "},"<":{"ha":399,"x_min":-60,"x_max":519,"o":"m 394 669 q 439 643 417 660 q 479 604 461 626 q 508 557 497 582 q 519 506 519 532 q 502 458 519 481 q 467 424 485 435 q 428 397 456 417 q 372 356 401 378 l 354 342 q 378 322 360 338 q 418 290 397 307 l 454 258 q 488 213 481 235 q 494 186 494 190 q 490 160 494 174 q 476 132 485 146 q 458 106 468 118 q 440 88 449 94 q 400 61 424 72 q 346 50 376 50 q 282 68 310 50 l 217 94 q 139 150 186 114 q 47 231 92 186 q -28 323 3 275 q -60 413 -60 371 q -49 464 -60 439 q -13 523 -39 492 q 44 585 13 554 q 107 642 75 615 q 163 685 139 668 q 250 711 204 711 q 329 694 294 711 l 394 669 m 374 550 q 261 633 343 625 q 249 635 254 635 q 204 621 224 635 q 32 453 106 556 q 17 413 17 433 q 33 368 17 390 q 134 253 78 304 q 257 160 190 201 q 282 153 268 153 q 325 169 310 153 q 351 207 340 186 q 354 213 354 210 q 352 217 354 215 q 346 222 350 219 q 297 264 321 242 q 246 306 274 286 q 210 335 226 319 q 178 365 193 350 q 186 378 181 374 q 197 389 192 383 q 277 455 236 424 q 361 514 318 486 q 378 526 376 524 q 379 532 379 529 q 374 550 379 538 m 308 382 q 294 372 303 379 l 308 382 z "},">":{"ha":399,"x_min":-58,"x_max":521,"o":"m 107 400 q 50 446 75 424 q 27 467 39 457 q 3 486 15 476 q -22 517 -12 500 q -32 557 -32 533 q -28 580 -32 569 q -22 597 -25 590 q -5 626 -17 610 q 24 658 7 643 q 63 682 40 672 q 115 692 86 692 q 151 686 135 692 q 181 674 167 681 l 206 664 q 281 625 240 654 q 363 560 322 596 q 437 486 403 524 q 490 419 471 449 q 511 381 501 404 q 521 331 521 358 q 510 279 521 304 q 474 218 499 250 q 418 156 449 186 q 356 100 388 126 q 299 57 324 74 q 213 31 260 31 q 133 47 169 31 l 68 72 q -46 188 -11 107 q -55 212 -51 199 q -58 236 -58 225 q -40 285 -58 263 q -4 318 -22 307 q 34 345 7 326 q 89 386 61 364 l 107 400 m 364 401 q 263 515 319 464 q 140 608 207 567 q 115 615 131 615 q 74 599 89 615 q 46 563 58 583 q 44 557 44 560 q 51 546 44 550 q 100 504 76 526 q 151 463 124 482 q 188 434 171 450 q 221 403 204 418 q 211 390 217 394 q 200 379 206 385 q 120 313 161 344 q 36 254 79 282 q 19 242 21 244 q 18 236 18 239 q 24 218 18 231 q 136 135 57 143 q 149 133 143 133 q 193 147 174 133 q 287 224 244 182 q 365 315 329 267 q 381 357 381 336 q 364 401 381 379 z "},"-":{"ha":579,"x_min":-54,"x_max":696,"o":"m 588 553 q 670 483 644 529 q 696 371 696 436 q 663 260 696 304 q 558 210 629 215 q 469 206 514 207 q 381 201 425 206 q 288 191 333 197 q 194 174 242 185 q 173 169 183 171 q 151 168 163 168 q 126 171 138 168 q 103 178 114 174 l 39 204 q -32 272 -10 224 q -54 369 -54 321 q -25 485 -54 439 q 51 558 4 531 q 156 596 99 585 q 272 607 214 607 q 367 604 318 607 q 463 596 417 601 q 494 590 479 593 q 524 579 510 586 l 588 553 m 453 519 q 375 526 414 524 q 297 531 336 528 q 267 532 282 532 q 199 527 236 532 q 118 507 163 522 q 65 474 86 496 q 33 426 43 453 q 22 372 22 400 q 32 318 22 343 q 58 278 44 286 q 86 271 72 271 q 114 275 99 271 q 212 293 163 286 q 310 304 261 300 q 399 309 354 308 q 489 313 444 310 q 531 326 517 315 q 551 365 544 338 q 556 397 556 381 q 531 483 556 454 q 453 519 507 513 z "},"=":{"ha":582,"x_min":-53,"x_max":699,"o":"m -53 483 q -11 608 -53 558 q 100 681 31 657 q 208 701 153 699 q 300 704 264 704 q 399 696 350 704 q 494 668 447 688 l 560 643 q 607 619 585 631 q 646 592 629 608 q 674 556 663 576 q 692 503 686 535 l 696 481 q 697 471 697 476 q 699 450 699 461 q 697 425 699 439 q 688 396 694 411 q 665 360 682 379 q 690 281 690 324 q 665 206 690 238 q 597 168 640 175 q 573 165 585 165 q 553 164 561 164 l 525 164 q 398 153 467 164 q 271 135 329 143 l 192 124 l 172 119 l 136 117 q 96 124 117 117 l 32 150 q -6 178 10 160 q -29 215 -21 196 q -40 250 -37 233 q -43 274 -43 267 q -32 326 -43 300 q -11 361 -25 347 q -44 425 -35 390 q -53 483 -53 460 m 94 390 q 113 390 104 390 q 132 393 122 390 q 284 420 208 408 q 439 433 360 432 q 474 432 457 432 q 510 429 492 432 q 518 429 514 429 q 547 441 536 429 q 558 476 558 453 q 556 497 558 488 q 551 518 553 507 q 518 572 547 551 q 449 606 489 593 q 368 623 410 618 q 300 628 326 628 q 199 624 251 628 q 101 600 146 619 q 39 544 54 579 q 24 483 24 508 q 32 438 24 461 q 55 403 40 415 q 94 390 69 390 m 626 529 q 631 514 629 518 l 626 529 m 503 363 q 468 367 486 367 q 376 369 410 368 q 332 369 342 369 q 235 364 283 369 q 155 355 194 360 q 76 335 115 350 q 51 318 61 329 q 36 292 42 307 q 33 274 33 282 q 49 233 33 251 q 60 222 54 226 q 71 218 65 218 q 78 219 74 218 q 98 222 89 221 q 117 225 107 224 l 196 236 q 199 236 197 236 l 203 238 q 206 238 204 238 l 225 240 q 228 240 226 240 l 232 242 q 235 242 233 242 q 347 256 292 249 q 461 267 403 264 q 478 266 472 267 q 489 265 485 265 q 503 267 496 265 q 541 281 532 267 q 550 306 550 294 q 544 331 550 317 q 503 363 532 358 m 128 150 q 110 146 121 149 l 128 150 z "},"+":{"ha":601,"x_min":-56,"x_max":718,"o":"m 460 738 q 532 691 503 722 q 561 611 561 660 q 560 588 561 600 q 556 567 558 576 l 599 550 q 642 526 621 540 q 681 490 664 511 q 708 442 697 469 q 718 381 718 415 q 715 353 718 372 q 704 313 713 335 q 666 260 692 285 q 593 235 640 235 l 568 238 q 510 242 539 242 l 504 172 q 501 150 503 163 q 492 125 499 138 q 449 73 478 93 q 378 53 421 53 q 350 56 363 53 q 329 61 338 58 q 325 63 328 63 l 317 67 q 315 67 315 67 q 313 68 314 68 l 264 88 q 192 135 218 104 q 153 199 167 165 q 123 200 138 199 q 94 208 108 201 l 29 235 q -14 266 3 246 q -40 308 -31 286 q -52 352 -49 331 q -56 386 -56 374 q -5 526 -56 474 q 129 599 46 578 q 190 728 146 682 q 328 775 235 775 q 373 770 347 775 q 422 753 399 765 l 460 738 m 538 488 q 481 513 510 506 q 421 522 453 519 q 398 527 400 525 q 396 532 396 529 q 400 551 396 539 l 417 614 q 421 638 421 626 q 416 659 421 647 q 388 685 411 671 q 352 697 368 696 q 325 699 336 699 q 301 697 314 699 q 254 681 272 694 q 226 648 236 668 q 210 604 215 628 q 200 557 204 581 q 194 535 197 539 q 174 529 192 532 q 117 515 144 525 q 67 488 89 506 q 33 444 46 469 q 21 386 21 419 q 28 343 21 367 q 82 301 44 301 q 100 303 90 301 q 139 310 119 306 q 178 318 158 314 q 194 321 189 321 q 201 318 199 321 q 207 299 204 315 q 213 256 208 278 q 228 215 218 235 q 254 181 239 196 q 290 160 269 167 q 314 156 303 156 q 349 169 335 156 q 365 207 363 183 l 365 214 l 367 229 l 367 236 l 369 294 l 369 301 l 371 317 q 373 335 371 328 q 390 343 375 343 q 453 344 422 344 q 517 339 485 344 q 529 338 524 338 q 563 357 550 338 q 578 407 578 381 q 573 441 578 417 q 538 488 568 465 m 490 589 q 501 586 493 589 l 490 592 l 490 589 m 444 250 l 443 242 l 443 232 l 444 250 z "},":":{"ha":285,"x_min":-53,"x_max":401,"o":"m -53 543 q -35 615 -53 583 q 10 670 -18 647 q 74 706 38 693 q 147 718 110 718 q 221 703 182 718 l 285 676 q 364 619 329 658 q 399 521 399 581 q 386 461 399 486 q 347 406 374 428 q 386 358 371 386 q 401 290 401 329 q 382 216 401 247 q 331 164 363 185 q 263 133 300 143 q 188 124 225 124 q 118 138 151 124 l 54 164 q -17 216 14 181 q -49 308 -49 251 q -36 371 -49 342 q 3 421 -24 400 q -37 476 -22 444 q -53 543 -53 508 m 117 450 q 173 457 149 450 q 215 475 197 464 q 238 495 228 485 q 253 521 247 506 q 258 547 258 535 q 251 579 258 560 q 219 617 243 599 q 147 642 186 642 q 67 617 111 642 q 26 570 29 593 q 24 542 24 547 q 51 481 24 508 q 86 457 68 464 q 117 450 104 450 m 244 361 q 204 392 229 381 q 153 403 179 403 q 112 395 132 403 q 74 378 92 388 q 42 351 53 368 q 30 322 31 333 q 29 308 29 311 q 37 274 29 292 q 64 244 44 257 q 122 226 89 226 q 131 226 126 226 q 184 233 158 226 q 232 260 210 240 q 258 297 256 279 q 261 318 261 314 q 244 361 261 342 z "},";":{"ha":299,"x_min":-54,"x_max":414,"o":"m 153 736 q 233 719 192 736 l 299 693 q 378 635 343 674 q 414 535 414 597 q 354 414 414 461 q 393 365 378 394 q 408 296 408 336 q 401 249 408 269 q 383 211 394 228 l 378 194 q 366 160 374 179 q 348 124 358 142 q 326 90 338 106 q 301 61 314 74 q 272 40 292 53 q 222 26 253 26 q 182 33 203 26 l 118 60 q 69 99 89 72 q 49 161 49 125 q 50 176 49 172 q -12 233 14 197 q -39 319 -39 269 q -28 382 -39 351 q 6 432 -15 410 q -37 482 -21 451 q -54 557 -54 513 q -36 630 -54 597 q 12 686 -18 663 q 78 723 42 710 q 153 736 115 736 m 56 490 q 92 472 72 476 q 140 467 113 467 q 187 474 163 467 q 235 496 211 481 q 270 535 267 515 q 274 563 274 556 q 256 611 274 588 q 210 647 239 635 q 153 660 182 660 q 110 652 131 660 q 69 633 89 644 q 37 604 49 622 q 24 574 25 586 q 22 558 22 563 q 30 524 22 542 q 56 490 38 506 m 193 404 q 166 408 179 407 q 138 410 153 408 q 114 407 125 410 q 92 400 103 404 q 53 369 68 388 q 38 324 39 351 q 38 318 38 321 q 50 276 38 294 q 86 244 63 257 q 114 233 97 238 q 131 214 131 232 q 132 203 132 208 q 131 191 132 199 q 126 172 129 183 q 125 161 125 167 q 133 140 125 149 q 158 129 147 129 q 184 143 171 129 q 209 175 197 157 q 229 212 221 193 q 240 240 238 231 q 246 260 243 250 q 254 278 249 269 q 267 306 267 294 q 268 321 268 318 q 261 355 268 338 q 237 386 254 372 q 193 404 219 400 m 319 238 q 317 231 318 235 l 315 225 l 319 238 z "},"~":{"ha":639,"x_min":-35,"x_max":750,"o":"m 192 226 q 160 213 175 217 q 135 210 146 210 q 97 217 113 210 q 68 236 81 225 q 19 250 39 236 q -12 283 0 264 q -30 320 -25 301 q -35 349 -35 339 q -23 401 -35 376 q 6 444 -11 425 q 24 469 15 457 q 43 493 33 482 q 66 519 54 506 q 93 544 78 533 q 161 589 122 571 q 251 607 200 607 q 303 601 279 607 q 347 586 326 596 l 411 561 q 447 544 431 553 q 475 526 463 535 l 482 531 q 496 540 489 536 q 510 549 503 544 q 535 559 521 554 q 569 564 550 564 q 614 554 593 564 l 678 529 q 728 490 707 517 q 750 424 750 464 q 743 383 750 400 q 728 356 736 367 q 709 328 718 342 q 690 300 700 315 q 647 245 669 271 q 597 201 624 219 q 538 171 569 182 q 467 160 506 160 q 405 166 433 160 q 353 182 376 172 l 289 208 q 222 244 251 224 l 192 226 m 603 471 q 571 488 589 488 q 558 486 565 488 q 545 480 551 483 q 532 472 539 476 q 467 446 500 446 q 401 469 436 446 q 331 512 369 493 q 251 531 292 531 q 162 502 207 531 q 94 435 117 474 l 65 397 q 59 388 63 393 q 51 378 56 383 q 43 358 46 369 q 42 349 42 353 q 46 333 42 340 q 60 317 50 325 q 69 313 64 313 q 78 315 72 313 q 92 321 85 317 l 103 326 q 106 328 104 328 l 143 350 q 146 351 144 351 q 176 361 160 361 q 211 347 196 361 q 221 340 219 342 l 242 324 q 243 323 243 324 q 244 322 243 322 l 249 318 q 251 317 251 318 q 319 278 283 293 q 399 263 354 263 q 404 263 401 263 q 472 279 438 263 q 533 331 506 296 q 568 378 551 354 q 601 426 585 403 q 610 449 610 438 q 603 471 610 461 z "},"":{"ha":260,"x_min":-54,"x_max":379,"o":"m 178 181 q 225 169 206 181 q 261 138 244 157 q 282 110 268 126 q 310 74 296 93 q 324 51 317 63 q 336 29 331 40 q 348 3 342 19 q 354 -33 354 -14 q 352 -56 354 -46 q 347 -75 350 -65 q 371 -111 363 -90 q 379 -160 379 -132 q 369 -208 379 -189 q 346 -247 361 -231 q 313 -273 331 -262 q 275 -288 294 -283 q 238 -293 256 -293 q 143 -274 194 -293 l 78 -247 q -14 -182 26 -226 q -54 -67 -54 -137 q -42 -6 -54 -33 q 8 63 -28 33 q 4 100 4 79 q 35 176 4 144 q 113 207 67 207 l 178 181 m 238 -122 q 219 -92 233 -103 q 181 -81 204 -81 l 176 -82 l 160 -82 l 156 -83 l 154 -83 q 143 -85 149 -85 q 110 -75 125 -85 q 133 -55 121 -60 q 160 -49 146 -50 q 207 -31 200 -46 q 214 -7 214 -15 q 199 31 214 10 q 168 74 183 53 q 136 117 153 96 q 114 131 126 131 q 99 126 107 131 q 81 100 81 119 q 81 92 81 96 q 92 58 83 74 q 108 26 101 42 q 101 19 106 19 q 99 20 100 19 q 97 21 99 21 q 89 18 93 21 q 55 1 69 14 q 31 -29 40 -11 q 22 -67 22 -49 q 29 -103 22 -85 q 91 -170 50 -150 q 172 -190 132 -190 q 178 -190 175 -190 q 204 -183 190 -190 q 231 -161 224 -175 q 239 -135 239 -147 q 238 -122 239 -128 z "},"":{"ha":260,"x_min":-56,"x_max":378,"o":"m 254 171 q 301 135 281 160 q 321 74 321 111 q 319 53 321 63 q 315 36 318 44 q 360 -20 343 13 q 378 -93 378 -53 q 358 -176 378 -139 q 307 -238 339 -212 q 234 -278 275 -264 q 150 -293 193 -293 q 93 -282 124 -293 l 29 -256 q -30 -212 -4 -242 q -56 -133 -56 -182 q -46 -83 -56 -110 q -24 -49 -36 -61 q -31 -7 -31 -31 q -15 49 -31 21 q 15 100 0 78 q 42 136 29 119 q 64 164 56 153 q 92 191 72 175 q 147 207 113 207 q 189 197 169 207 l 254 171 m 171 18 q 163 21 167 21 q 160 20 161 21 q 158 19 160 19 q 151 26 154 19 q 167 58 158 42 q 179 92 176 74 q 179 100 179 96 q 161 126 179 119 q 146 131 153 131 q 124 117 133 131 q 92 74 107 96 q 61 31 76 53 q 46 -7 46 10 q 53 -31 46 -15 q 100 -49 60 -46 q 128 -55 115 -50 q 150 -75 140 -60 q 117 -85 135 -85 q 106 -83 111 -85 q 103 -83 104 -83 q 99 -82 101 -82 l 85 -82 l 81 -81 q 42 -92 57 -81 q 22 -122 26 -103 q 21 -135 21 -128 q 28 -161 21 -147 q 56 -185 36 -175 q 69 -189 63 -187 q 82 -190 75 -190 q 88 -190 85 -190 q 169 -170 128 -190 q 231 -103 210 -150 q 238 -67 238 -85 q 229 -29 238 -49 q 205 1 219 -11 q 171 18 190 14 z "},"*":{"ha":543,"x_min":-56,"x_max":663,"o":"m 571 938 q 616 904 599 926 q 644 858 633 882 q 658 813 654 835 q 663 782 663 792 q 615 688 663 722 q 642 656 632 674 q 653 613 653 638 q 643 569 653 592 q 617 527 633 546 q 579 497 600 508 q 535 485 558 485 q 512 487 524 485 q 493 492 500 489 l 464 499 l 464 446 q 426 365 457 396 q 342 333 394 333 q 314 336 326 333 q 290 343 301 339 l 226 369 q 174 408 194 383 q 140 463 154 432 q 85 488 110 465 l 82 489 q 38 501 58 489 q 3 531 18 513 q -19 573 -11 550 q -26 618 -26 596 q -17 667 -26 643 q 8 710 -7 690 q -35 760 -15 729 q -56 838 -56 792 q -47 890 -56 864 q -24 936 -39 915 q 15 969 -8 957 q 67 982 38 982 q 115 971 93 982 q 156 1026 129 1001 q 231 1058 183 1051 q 260 1060 246 1060 q 289 1061 274 1061 q 317 1058 304 1061 q 342 1051 329 1056 l 406 1025 q 441 1003 425 1017 q 468 972 457 989 q 507 964 488 971 l 571 938 m 497 657 q 452 683 474 669 q 407 708 431 697 q 394 714 400 711 q 383 722 389 717 q 399 731 390 729 q 414 735 407 732 q 454 750 433 743 q 494 768 475 757 q 522 810 522 782 q 519 826 522 818 q 503 867 513 849 q 481 892 492 888 q 463 896 471 896 q 439 892 451 896 q 405 878 421 886 q 374 860 389 869 q 360 851 367 856 q 344 843 354 846 q 343 853 343 847 q 344 859 343 854 q 346 871 344 864 q 350 890 349 881 q 351 908 351 899 q 351 917 351 913 q 336 963 351 943 q 289 985 321 982 q 264 985 276 985 q 240 982 251 985 q 193 953 208 979 q 175 900 178 928 q 172 877 172 889 q 168 853 171 865 q 130 874 149 864 q 94 896 111 883 q 67 906 81 906 q 31 879 43 906 q 21 839 21 858 q 22 824 21 836 q 38 789 22 811 q 81 751 53 768 l 132 722 q 124 713 129 715 q 114 706 119 710 q 61 651 83 682 q 50 617 50 635 q 58 588 50 603 q 82 565 71 565 q 107 575 92 565 q 124 585 115 581 q 140 594 132 590 q 160 608 150 601 q 181 619 169 615 q 185 613 185 617 q 186 606 185 608 q 192 560 189 582 q 203 515 196 538 q 228 463 211 486 q 278 436 244 439 q 313 449 304 436 q 322 486 322 463 l 324 499 l 324 563 l 325 575 l 325 604 q 328 625 325 614 q 333 625 331 625 q 342 624 338 625 q 353 619 346 622 l 454 590 q 471 589 464 589 q 483 592 478 589 q 499 610 489 594 q 506 621 504 618 q 511 638 511 631 q 497 657 511 650 z "},"":{"ha":519,"x_min":-54,"x_max":638,"o":"m 35 749 q -28 803 -1 768 q -54 890 -54 838 q -40 957 -54 926 q -3 1010 -26 988 q 53 1044 21 1032 q 121 1057 85 1057 q 177 1053 144 1057 q 242 1033 210 1049 l 261 1025 q 365 1057 310 1057 q 422 1053 389 1057 q 486 1033 454 1049 l 526 1017 q 608 962 578 1000 q 638 867 638 924 q 611 779 638 819 l 606 763 q 583 709 597 738 q 549 656 569 681 q 504 614 529 631 q 449 597 479 597 q 410 606 429 597 l 344 632 q 307 658 322 640 q 263 615 289 633 q 204 597 236 597 q 164 606 183 597 l 100 632 q 52 671 71 643 q 33 732 33 699 q 35 749 33 743 m 176 976 q 150 979 164 979 q 121 981 136 979 q 53 958 83 981 q 22 894 24 935 q 22 889 22 892 q 35 847 22 865 q 71 815 47 829 q 85 810 78 813 q 99 806 92 807 q 115 785 115 801 q 111 744 115 764 q 110 733 110 739 q 117 711 110 719 q 140 700 128 700 q 167 714 153 700 q 192 746 181 728 q 212 783 203 764 q 224 811 221 801 q 229 831 226 821 q 239 849 232 840 q 252 878 251 867 q 253 893 253 890 q 245 926 253 910 q 220 957 238 943 q 176 976 203 971 m 421 976 q 394 979 408 979 q 365 981 381 979 q 298 958 328 981 q 267 894 268 935 q 267 889 267 892 q 279 847 267 865 q 315 815 292 829 q 329 810 322 813 q 343 806 336 807 q 356 798 353 803 q 360 785 358 793 q 356 744 360 764 q 353 729 353 736 q 353 723 353 728 q 361 711 354 718 q 385 700 372 700 q 411 714 397 700 q 436 746 425 728 q 456 783 447 764 q 468 811 465 801 q 474 831 471 821 q 483 849 476 840 q 497 878 496 867 q 497 893 497 890 q 490 926 497 910 q 465 957 482 943 q 421 976 447 971 m 547 804 q 546 801 546 803 l 547 804 z "},"":{"ha":519,"x_min":-54,"x_max":638,"o":"m 482 1024 q 531 983 513 1011 q 550 922 550 956 l 550 907 q 612 851 586 888 q 638 764 638 814 q 624 697 638 728 q 586 644 610 667 q 531 610 563 622 q 463 597 499 597 q 406 602 438 597 q 342 622 374 607 l 322 629 q 218 597 275 597 q 160 602 193 597 q 97 622 128 607 l 32 649 q -28 701 -3 667 q -54 788 -54 735 q -28 875 -54 836 l -21 892 q -1 944 -15 915 q 34 999 14 974 q 79 1040 54 1024 q 133 1057 104 1057 q 175 1049 157 1057 l 239 1022 q 276 997 263 1013 q 321 1039 296 1021 q 378 1057 346 1057 q 418 1049 400 1057 l 482 1024 m 449 865 q 435 872 442 869 q 421 876 428 874 q 404 896 404 878 q 408 936 404 918 q 410 949 410 943 q 409 957 410 951 q 401 969 408 963 q 378 981 390 981 q 352 967 365 981 q 327 935 339 953 q 307 898 315 917 q 296 869 299 879 q 290 850 293 860 q 281 832 288 840 q 267 803 268 815 q 267 789 267 792 q 274 755 267 772 q 298 724 281 738 q 342 706 315 710 q 369 702 356 703 q 399 700 383 701 q 444 710 418 700 q 482 740 468 722 q 497 786 496 758 q 497 792 497 789 q 485 834 497 815 q 449 865 472 853 m 204 865 q 190 872 197 869 q 176 876 183 874 q 164 883 167 878 q 160 896 161 888 q 164 936 160 918 q 165 947 165 943 q 158 969 165 961 q 133 981 147 981 q 108 967 121 981 q 83 935 94 953 q 63 898 71 917 q 51 869 54 879 q 46 850 49 860 q 36 832 43 840 q 23 803 24 815 q 22 789 22 792 q 30 755 22 772 q 55 724 38 738 q 99 706 72 710 q 125 702 111 703 q 154 700 139 701 q 200 710 174 700 q 238 740 224 722 q 253 786 251 758 q 253 792 253 789 q 240 834 253 815 q 204 865 228 853 z "},"\"":{"ha":394,"x_min":-56,"x_max":514,"o":"m 204 1046 l 208 1043 q 290 1063 240 1063 q 324 1060 303 1063 q 365 1051 344 1058 l 429 1025 q 451 1016 436 1022 q 479 997 465 1010 q 503 966 493 985 q 514 921 514 947 q 507 878 514 901 q 485 761 489 824 q 483 742 485 751 l 482 703 q 481 683 482 693 q 469 639 479 657 q 444 610 458 621 q 413 596 429 600 q 381 592 396 592 q 335 597 365 592 q 276 619 306 601 q 241 598 261 604 q 204 592 221 592 q 169 594 192 592 q 122 608 146 597 l 69 631 q 21 656 40 640 q -10 690 1 671 q -30 734 -22 710 q -44 785 -37 758 q -56 868 -56 825 q -44 942 -56 907 q -12 1003 -33 976 q 40 1047 8 1031 q 114 1063 72 1063 q 147 1060 126 1063 q 189 1051 168 1058 q 195 1049 192 1050 q 204 1046 199 1049 m 163 979 q 125 986 144 986 q 111 986 118 986 q 67 976 85 986 q 36 939 49 967 q 23 897 25 915 q 21 867 21 879 q 22 843 21 856 q 33 792 25 817 q 49 742 40 767 q 63 720 53 729 q 87 706 74 711 q 115 697 100 700 q 140 694 129 694 q 164 714 164 694 q 165 753 165 733 q 168 793 165 774 q 176 861 169 828 q 193 928 182 894 q 197 946 197 939 q 192 963 197 954 q 163 979 186 971 m 339 979 q 301 986 321 986 q 288 986 294 986 q 243 976 261 986 q 213 939 225 967 q 199 897 201 915 q 197 867 197 879 q 199 843 197 856 q 209 792 201 817 q 225 742 217 767 q 240 720 229 729 q 263 706 250 711 q 291 697 276 700 q 317 694 306 694 q 340 714 340 694 q 342 753 342 733 q 344 793 342 774 q 352 861 346 828 q 369 928 358 894 q 374 946 374 939 q 368 963 374 954 q 339 979 363 971 z "},"":{"ha":304,"x_min":-54,"x_max":422,"o":"m 264 936 q 295 919 282 929 q 318 897 308 908 q 356 849 338 878 q 390 788 375 819 q 413 723 404 756 q 422 663 422 690 q 406 585 422 619 q 362 527 390 551 q 297 490 333 503 q 218 476 260 476 q 129 494 169 476 l 64 521 q -19 585 15 540 q -54 699 -54 629 q -33 801 -54 753 q 28 888 -11 849 q 74 945 42 919 q 154 971 106 971 q 200 963 179 971 l 264 936 m 272 739 q 256 781 264 760 q 236 821 247 801 q 222 844 231 832 q 202 868 213 857 q 180 887 192 879 q 154 894 168 894 q 111 875 132 894 q 94 851 99 865 q 82 833 90 842 q 45 786 58 813 q 25 728 32 760 q 22 696 22 711 q 53 616 22 653 q 154 579 85 579 q 163 579 157 579 q 176 581 169 579 q 261 625 240 590 q 282 688 282 660 q 272 739 282 713 m 176 664 q 165 663 171 663 q 134 674 146 663 q 122 707 122 686 q 122 715 122 711 q 128 744 125 731 q 139 771 132 757 q 196 692 185 739 q 197 683 197 688 q 176 664 197 667 z "},"":{"ha":361,"x_min":-54,"x_max":478,"o":"m 397 907 q 459 845 440 889 q 478 758 478 801 q 442 617 478 675 q 329 524 407 558 q 244 506 289 506 q 156 524 199 506 l 90 550 q -15 635 25 576 q -54 767 -54 693 q -45 832 -54 800 q -17 889 -36 864 q 29 930 1 914 q 94 946 57 946 q 126 942 113 946 l 192 915 q 213 908 199 914 q 292 940 244 940 q 332 933 314 940 l 397 907 m 322 844 q 292 864 311 864 q 285 864 289 864 q 254 833 261 858 q 253 823 253 828 q 251 814 253 818 q 247 784 249 799 q 238 756 244 769 q 200 724 226 729 q 192 722 196 722 q 167 746 172 722 q 165 763 165 754 q 165 782 165 772 q 154 837 165 815 q 108 868 143 858 q 92 871 100 871 q 38 832 58 871 q 25 799 29 815 q 22 767 22 782 q 26 727 22 750 q 50 676 31 704 q 107 626 71 644 q 181 608 143 608 q 242 622 214 608 q 292 660 271 636 q 326 713 314 683 q 338 776 338 743 q 338 786 338 782 q 322 844 338 819 z "},"":{"ha":329,"x_min":-56,"x_max":449,"o":"m 272 917 q 292 907 283 913 q 307 896 300 901 q 354 855 329 879 q 400 801 379 831 q 435 734 421 771 q 449 656 449 697 q 440 610 449 632 q 417 570 432 588 q 381 542 401 553 q 336 532 361 532 q 297 540 313 532 q 269 558 281 547 q 252 560 260 558 q 238 564 244 561 q 195 536 219 547 q 142 525 171 525 q 92 535 113 525 l 28 561 q -33 611 -10 576 q -56 686 -56 646 q -46 741 -56 713 q -22 797 -36 769 q 10 850 -7 825 q 44 896 28 875 q 93 934 63 915 q 161 953 124 953 q 208 943 185 953 l 272 917 m 307 689 q 270 788 300 749 q 196 863 240 826 q 161 876 181 876 q 129 867 149 876 q 99 842 115 861 q 69 801 83 824 q 44 757 56 779 q 28 721 33 735 q 22 703 24 713 q 21 686 21 694 q 38 644 22 661 q 78 628 53 628 q 117 643 103 628 q 142 678 131 658 q 164 719 153 697 q 189 765 175 740 l 239 672 q 250 648 242 661 q 272 635 258 635 q 293 644 283 635 q 307 681 307 658 q 307 689 307 685 z "},"":{"ha":318,"x_min":-56,"x_max":438,"o":"m 158 918 q 124 939 142 933 q 93 944 107 944 q 125 939 108 944 q 158 918 142 933 q 185 914 172 918 q 217 938 199 929 q 260 946 235 946 q 303 938 282 946 l 367 911 q 418 870 399 899 q 438 806 438 842 q 426 749 438 782 q 396 682 414 715 q 359 619 378 649 q 325 574 340 589 q 283 542 308 554 q 226 529 258 529 q 172 540 199 529 l 108 565 q 40 613 71 581 q -11 681 10 644 q -44 754 -32 718 q -56 814 -56 790 q -44 870 -56 846 q -11 911 -32 894 q 37 936 10 928 q 93 944 64 944 l 158 918 m 268 868 q 260 869 264 869 q 232 847 242 869 q 229 842 232 847 l 224 829 q 222 826 222 828 q 221 822 222 825 l 193 756 q 183 762 186 758 q 178 769 181 765 l 122 846 q 109 861 115 854 q 93 868 103 868 q 90 868 92 868 q 38 851 54 865 q 21 815 21 838 q 25 788 21 803 q 42 744 31 768 q 71 697 54 719 q 107 656 88 674 q 147 633 126 639 q 163 632 156 632 q 204 651 186 632 q 253 724 233 685 q 290 804 274 763 q 297 829 297 818 q 297 833 297 831 q 290 855 297 844 q 268 868 282 865 z "},"":{"ha":429,"x_min":-57,"x_max":547,"o":"m 296 919 q 332 945 311 935 q 376 956 353 956 q 418 947 400 956 l 482 921 q 533 874 518 906 q 547 807 547 843 q 544 782 547 797 q 536 750 540 767 q 527 719 532 733 q 518 694 522 704 q 490 639 507 667 q 449 590 472 611 q 398 554 426 568 q 338 540 369 540 q 295 547 314 540 q 261 561 276 553 l 197 586 q 188 592 193 589 q 182 588 185 590 q 151 567 169 576 q 110 558 133 558 q 42 585 71 558 q -29 618 -1 588 q -57 689 -57 649 q -53 714 -57 701 q -4 835 -36 782 q 90 926 28 888 q 131 945 108 938 q 181 953 154 953 q 214 949 199 953 q 243 940 229 946 l 296 919 m 389 876 q 376 879 382 879 q 347 863 361 879 q 322 825 333 844 q 306 808 313 808 q 286 818 297 808 l 278 825 q 276 826 276 825 q 275 826 276 826 l 244 853 q 243 853 243 853 q 242 854 243 854 q 181 876 214 876 q 131 861 154 876 q 58 790 83 833 q 21 696 32 747 q 19 688 19 692 q 23 675 19 682 q 35 664 26 668 q 46 661 40 661 q 69 674 58 661 l 76 683 q 79 686 79 686 q 117 710 90 706 q 131 711 124 711 q 175 696 154 711 q 200 676 188 686 q 225 658 213 667 q 272 643 249 643 q 326 664 303 643 q 365 715 349 685 q 392 777 382 744 q 407 833 401 810 q 389 876 407 868 m 118 614 q 127 622 122 618 q 136 631 132 625 q 133 632 133 632 q 126 622 129 626 q 118 614 122 618 z "},"":{"ha":282,"x_min":-56,"x_max":403,"o":"m 301 906 q 374 844 346 886 q 403 757 403 801 q 388 706 403 729 q 350 667 374 682 q 267 610 306 640 q 185 553 228 579 q 152 538 169 544 q 117 531 135 531 q 78 538 94 531 q 51 557 63 546 q 13 566 29 557 q -15 586 -4 575 q -33 609 -26 597 q -40 625 -39 621 q -56 690 -56 658 q -19 804 -56 756 q 64 890 17 853 q 115 924 83 906 q 185 942 147 942 q 236 932 210 942 l 301 906 m 260 796 q 233 844 253 822 q 185 865 214 865 q 149 855 168 865 q 110 830 129 844 q 76 799 92 815 q 51 771 61 782 q 30 733 36 753 q 21 690 24 714 l 22 676 q 26 661 24 672 q 53 633 39 633 q 81 644 63 633 q 163 702 124 671 q 246 758 201 733 q 261 783 261 767 q 260 796 261 789 z "},"`":{"ha":300,"x_min":-57,"x_max":419,"o":"m 228 893 q 322 831 281 872 q 394 744 363 789 q 415 703 410 725 q 419 663 419 682 q 412 616 419 640 q 390 572 404 592 q 355 540 375 553 q 310 526 335 526 q 280 532 294 526 q 253 546 265 538 l 188 572 q 103 629 143 604 q 19 672 64 654 q 1 681 14 675 q -24 700 -11 688 q -47 731 -37 713 q -57 776 -57 750 q -45 834 -57 806 q -14 885 -33 863 q 33 921 6 907 q 90 935 60 935 q 164 919 129 935 l 228 893 m 117 854 q 92 858 103 858 q 65 853 79 858 q 35 824 51 847 q 22 794 28 813 q 19 776 19 785 q 24 760 19 768 q 49 743 28 751 q 110 715 81 731 q 168 679 140 699 q 201 657 185 668 q 232 635 217 646 q 246 629 239 629 q 260 639 253 629 q 274 662 268 650 q 279 689 279 674 q 262 738 279 711 q 219 788 244 764 q 166 830 194 811 q 117 854 138 849 z "},"":{"ha":967,"x_min":-56,"x_max":1086,"o":"m 32 690 q -13 723 4 701 q -40 768 -31 744 q -52 813 -49 792 q -56 846 -56 835 q -30 938 -56 900 q 36 998 -4 975 q 124 1031 76 1021 q 218 1042 172 1042 q 275 1038 247 1042 q 331 1031 303 1035 l 372 1022 q 392 1019 378 1022 q 435 1007 413 1017 l 500 981 l 501 981 l 503 979 q 548 1014 522 999 q 613 1029 574 1029 q 668 1026 640 1029 q 719 1008 696 1024 l 744 997 q 767 992 758 994 l 763 1025 q 788 1034 774 1031 q 817 1038 801 1038 q 868 1026 843 1038 l 932 1001 q 991 958 968 985 q 1029 894 1014 931 q 1072 739 1057 819 q 1086 579 1086 658 q 1060 463 1086 513 q 968 385 1033 413 q 949 378 961 382 q 918 374 936 374 q 878 382 897 374 l 814 408 q 789 424 800 414 q 769 444 778 433 q 767 449 768 447 l 765 450 q 763 454 765 453 q 751 488 753 475 q 719 504 732 494 q 711 456 719 479 q 688 413 703 432 q 651 383 672 394 q 601 371 629 371 q 543 381 567 371 l 478 407 q 461 417 467 413 q 416 378 443 389 q 357 367 389 367 q 281 382 318 367 l 217 408 q 121 488 156 432 q 86 607 86 544 q 90 651 86 631 q 91 659 90 656 q 92 665 92 663 l 32 690 m 481 867 q 453 908 472 890 q 411 933 435 925 q 395 940 403 936 q 379 944 388 943 q 297 959 335 951 q 225 967 258 967 q 203 965 214 967 q 128 955 164 964 q 61 922 93 946 q 21 847 21 890 q 28 808 21 829 q 53 765 39 774 q 82 757 67 757 q 111 761 94 757 q 130 766 121 764 q 149 769 139 768 q 182 776 165 772 q 215 781 199 781 q 213 769 215 778 q 181 708 192 740 q 165 640 171 676 q 163 600 163 621 q 169 560 163 579 q 221 494 183 518 q 293 469 258 469 q 307 471 300 469 q 335 496 335 474 q 333 507 335 501 q 328 538 329 522 q 326 569 328 554 q 326 590 326 579 q 329 647 326 615 q 333 714 332 678 q 333 740 333 731 q 331 757 333 750 q 324 772 329 764 q 311 792 319 779 q 326 797 318 796 q 343 797 335 797 q 355 799 350 799 q 367 799 360 799 l 414 801 l 419 801 l 432 803 l 438 803 q 475 818 465 804 q 485 844 485 832 q 481 867 485 854 m 946 606 q 932 751 943 681 q 893 893 921 822 q 865 939 883 917 q 817 961 846 961 q 778 942 794 961 q 749 897 761 924 q 731 843 738 871 q 719 799 724 815 q 717 786 718 792 q 710 774 717 781 q 703 838 707 807 q 697 901 700 869 q 682 941 694 931 q 646 951 669 951 q 639 951 642 951 l 625 951 q 611 953 618 953 q 578 943 593 953 q 550 913 563 933 q 480 760 503 839 q 454 594 457 681 q 454 582 454 588 q 476 506 454 542 q 528 474 494 478 q 538 472 533 472 q 553 476 546 472 q 569 494 560 481 q 579 533 579 513 q 581 578 579 546 q 585 648 582 611 q 592 717 588 685 q 601 757 596 749 q 609 744 608 750 q 613 733 610 739 q 628 696 617 721 q 656 647 640 671 q 688 603 671 622 q 721 585 706 585 q 743 597 736 585 q 753 621 750 610 q 767 665 761 643 q 781 711 774 688 q 785 731 783 721 q 794 751 788 740 q 797 740 796 744 q 800 729 799 735 q 812 651 807 689 q 818 572 817 613 q 820 542 819 557 q 824 513 821 528 q 854 476 828 476 q 907 500 882 476 q 939 549 932 524 q 946 606 946 579 z "},"":{"ha":526,"x_min":-53,"x_max":643,"o":"m 442 1013 q 526 959 489 993 q 590 883 564 925 q 629 792 615 840 q 643 697 643 744 q 619 573 643 632 q 552 469 594 514 q 452 399 510 425 q 328 372 394 372 q 213 394 268 372 l 147 421 q 65 472 101 440 q 1 544 28 504 q -39 632 -25 585 q -53 728 -53 679 q -28 856 -53 796 q 38 962 -4 917 q 140 1033 81 1007 q 269 1060 199 1060 q 378 1039 328 1060 l 442 1013 m 269 983 q 150 953 206 983 q 63 867 94 922 q 22 728 22 797 q 61 593 22 661 q 149 505 94 535 q 263 475 203 475 q 358 495 315 475 q 433 549 401 515 q 483 628 465 583 q 503 724 501 674 q 485 819 503 772 q 438 902 468 865 q 364 961 407 939 q 269 983 321 983 m 407 614 q 347 558 382 578 q 272 539 311 539 q 172 574 217 539 q 119 635 139 599 q 96 697 99 672 q 93 732 93 722 q 103 797 93 763 q 142 864 114 832 q 193 905 165 890 q 257 919 221 919 q 264 919 261 919 q 328 907 297 919 q 382 872 358 894 q 421 817 406 849 q 440 749 436 786 q 442 728 442 738 q 407 614 442 667 m 363 672 q 356 672 358 672 q 338 674 347 672 q 317 686 328 676 q 367 742 347 706 q 378 790 378 765 q 367 835 378 814 q 338 870 357 856 q 294 889 319 885 q 265 892 279 892 q 174 860 218 892 q 144 818 154 846 q 142 806 142 813 q 151 778 142 793 q 163 771 157 771 q 169 773 164 771 q 182 775 175 775 q 188 774 186 775 q 178 750 182 763 q 165 708 168 726 q 161 674 161 689 q 163 654 161 664 q 170 628 164 643 q 186 601 176 614 q 208 581 196 589 q 235 572 221 572 q 256 600 253 572 l 256 644 q 270 627 261 638 q 290 608 279 617 q 313 592 301 599 q 335 586 325 586 q 367 601 349 586 q 386 624 379 610 q 397 653 397 639 q 396 664 397 656 q 368 672 394 672 q 363 672 365 672 m 300 757 q 246 717 282 732 q 244 742 244 729 q 245 753 244 749 q 246 761 246 758 q 243 790 246 776 q 243 792 243 792 q 251 797 243 797 q 267 799 260 799 q 286 796 276 799 q 308 775 308 789 q 300 757 308 768 m 497 715 l 442 725 l 443 726 l 497 715 m 483 706 l 442 724 l 442 725 l 486 707 l 483 706 z "},"":{"ha":526,"x_min":-53,"x_max":642,"o":"m 442 1013 q 527 958 490 993 q 590 881 564 924 q 628 789 615 838 q 642 692 642 740 q 617 569 642 628 q 548 467 592 511 q 447 398 504 424 q 325 372 390 372 q 210 394 265 372 l 144 421 q 62 472 99 440 q 0 545 25 504 q -39 633 -25 586 q -53 729 -53 681 q -29 856 -53 796 q 38 960 -6 915 q 139 1033 81 1006 q 265 1060 197 1060 q 378 1039 328 1060 l 442 1013 m 265 983 q 157 957 208 983 q 71 882 106 931 q 35 810 47 849 q 24 730 24 771 q 35 650 24 689 q 69 578 47 611 q 155 501 104 526 q 261 475 206 475 q 354 494 311 475 q 430 547 397 514 q 481 625 463 581 q 501 718 500 669 q 485 816 501 768 q 437 901 468 864 q 363 961 406 939 q 265 983 319 983 m 357 565 q 269 539 315 539 q 198 556 231 539 q 142 601 165 572 q 106 665 119 629 q 92 738 93 700 q 104 803 92 771 q 140 862 117 836 q 193 903 163 888 q 258 919 224 919 q 349 894 306 919 q 416 825 393 869 q 440 756 439 781 q 440 729 440 731 q 420 639 440 683 q 357 565 400 594 m 324 856 q 294 864 308 863 q 265 867 279 865 q 182 842 211 865 q 139 769 153 819 q 133 731 133 750 q 135 710 133 725 q 143 671 136 694 q 188 605 156 626 q 256 583 219 583 q 328 604 294 583 q 358 658 358 624 q 358 664 358 661 q 350 690 358 685 q 335 696 342 696 q 317 692 326 696 q 294 683 306 688 q 271 676 283 679 q 251 674 261 674 q 222 681 236 674 q 210 688 215 683 q 204 701 204 693 q 204 704 204 703 q 209 716 204 711 q 221 724 214 721 l 233 728 q 260 733 244 733 q 276 732 268 733 q 292 728 283 731 q 307 726 300 726 q 343 739 325 726 q 365 779 361 751 q 365 789 365 783 q 356 826 365 807 q 324 856 346 844 z "},"":{"ha":360,"x_min":-60,"x_max":482,"o":"m 322 997 q 369 961 353 986 q 394 907 386 936 q 411 844 404 875 q 426 781 418 813 l 432 757 q 467 728 451 746 q 482 689 482 711 q 479 666 482 676 q 474 646 476 656 q 460 621 467 631 q 446 604 453 611 q 433 549 446 576 q 401 501 421 522 q 355 467 381 481 q 301 454 329 454 q 235 481 261 454 q 214 483 228 481 q 195 480 203 481 q 185 479 188 479 q 140 488 161 479 l 76 514 q 28 546 49 525 q -3 586 8 567 q -31 610 -19 596 q -48 640 -42 625 q -57 669 -54 656 q -60 692 -60 683 q -45 744 -60 725 q -11 775 -31 764 q 25 878 4 828 q 71 975 46 928 q 99 1008 79 990 q 156 1026 119 1026 q 174 1025 168 1026 q 215 1032 192 1032 q 257 1024 239 1032 l 322 997 m 322 726 l 311 728 l 306 728 q 303 728 304 728 q 297 735 297 728 q 294 749 297 740 l 290 775 q 289 778 290 778 l 289 786 q 288 789 288 786 q 274 851 281 821 q 257 913 267 882 q 244 940 253 926 q 215 956 235 956 q 203 954 210 956 q 190 948 196 951 q 179 940 185 944 l 168 947 q 156 950 161 950 q 138 938 144 950 q 129 919 132 926 q 108 876 119 900 q 87 828 97 853 q 69 778 76 803 q 57 733 61 754 q 56 724 56 729 q 53 715 56 719 q 46 711 50 711 q 44 712 46 711 q 40 713 43 713 q 33 711 38 713 q 17 692 17 706 q 26 664 17 675 q 32 656 29 660 q 40 650 35 651 q 61 629 56 644 q 110 583 74 597 q 121 582 115 582 q 135 585 128 582 q 143 597 143 589 q 141 610 142 606 q 140 618 140 615 q 142 629 140 624 q 147 635 142 635 q 175 638 161 638 q 204 642 189 639 q 213 635 213 642 q 214 626 214 632 q 217 599 217 613 q 219 572 218 586 q 238 557 221 557 q 251 560 247 557 q 296 599 286 576 q 306 656 306 621 q 306 660 306 658 q 313 669 306 667 q 330 687 324 676 q 340 708 336 697 q 342 714 342 711 q 328 726 342 725 l 322 726 m 183 724 q 168 723 176 724 q 150 722 160 722 q 157 754 154 739 l 169 815 q 176 847 174 832 q 182 831 182 840 q 183 825 182 826 l 183 813 q 185 806 185 810 l 190 757 q 192 751 190 753 l 192 739 q 193 732 193 736 q 192 724 193 725 q 183 724 190 724 z "},"":{"ha":272,"x_min":-53,"x_max":389,"o":"m -31 768 q -46 801 -39 782 q -53 843 -53 819 q -38 914 -53 881 q 1 972 -24 947 q 60 1010 26 996 q 132 1025 94 1025 q 199 1014 165 1025 l 263 988 q 319 948 296 975 q 359 887 343 921 q 382 816 375 853 q 389 746 389 779 q 377 653 389 703 q 342 563 365 604 q 281 495 318 522 q 190 468 243 468 q 131 479 154 468 l 67 504 q 15 541 36 517 q -18 592 -6 565 q -36 646 -31 619 q -42 692 -42 672 q -31 768 -42 731 m 207 911 q 175 940 194 932 q 132 949 156 949 q 79 935 103 949 q 40 899 53 921 q 24 851 28 878 q 24 844 24 849 q 28 821 24 832 q 56 786 36 799 q 60 779 60 783 q 57 774 60 776 q 44 750 49 763 q 36 690 36 719 q 38 661 36 683 q 63 604 39 639 q 91 578 74 588 q 126 569 108 569 q 183 592 160 569 q 220 645 206 614 q 241 711 235 676 q 249 772 247 746 q 239 844 249 810 q 207 911 229 879 m 156 699 q 140 681 151 688 q 135 689 136 685 q 133 699 135 693 q 131 729 131 714 q 139 781 131 756 l 139 782 l 140 783 l 140 794 l 142 796 l 142 797 q 158 788 151 797 q 171 751 171 774 q 156 699 168 721 z "},"":{"ha":213,"x_min":-54,"x_max":328,"o":"m 249 988 q 258 983 254 985 q 307 944 286 971 q 328 875 328 917 q 324 849 328 861 q 315 826 321 838 l 317 818 l 315 800 q 310 760 313 781 q 308 719 308 740 q 313 671 308 694 l 318 646 q 322 626 321 639 q 324 599 324 614 q 311 546 324 569 q 278 506 299 522 q 230 480 257 489 q 175 471 203 471 q 126 479 147 471 l 63 506 q -4 570 17 525 q -25 663 -25 615 q -20 717 -25 686 q -7 776 -15 747 q -22 792 -15 783 q -35 813 -28 801 q -48 847 -42 828 q -54 886 -54 867 q -40 949 -54 922 q -1 992 -25 975 q 52 1016 22 1008 q 114 1024 82 1024 q 149 1022 126 1024 q 193 1010 171 1021 l 249 988 m 172 685 q 168 746 168 715 q 169 776 168 753 q 175 836 169 799 q 176 844 176 840 q 175 853 176 849 q 164 864 174 858 q 174 872 168 867 q 186 901 186 886 q 183 918 186 910 q 169 936 179 931 q 147 944 160 942 q 113 949 131 949 q 65 942 90 949 q 32 919 42 935 q 22 888 22 904 q 24 875 22 882 q 49 828 28 851 q 61 822 54 822 q 69 824 65 822 l 85 832 q 90 835 88 833 q 94 836 92 836 q 94 835 94 836 q 92 826 94 832 q 60 725 68 776 q 54 692 57 707 q 51 665 51 678 q 51 656 51 661 q 71 593 51 621 q 111 574 86 574 q 119 574 115 574 q 157 586 140 578 q 183 625 183 600 q 182 638 183 631 q 177 662 179 650 q 172 685 175 674 z "},"":{"ha":289,"x_min":-53,"x_max":404,"o":"m -12 738 q -42 790 -33 761 q -51 838 -51 818 q -32 913 -51 879 q 19 972 -12 947 q 90 1009 50 996 q 168 1022 129 1022 q 203 1019 186 1022 q 236 1008 219 1015 l 300 982 q 370 926 343 964 q 397 832 397 888 q 390 778 397 804 q 369 728 382 751 q 394 696 385 715 q 404 650 404 676 q 383 573 404 607 q 328 515 361 539 q 254 478 294 492 q 175 465 214 465 q 136 468 158 465 q 93 479 114 471 l 28 506 q -28 549 -4 519 q -53 636 -53 579 q -42 691 -53 663 q -12 738 -32 719 m 232 703 q 221 701 226 701 q 208 697 215 700 q 179 690 193 693 q 150 683 165 686 l 167 696 q 182 710 178 704 q 250 821 228 760 q 257 858 257 840 q 246 903 257 882 q 190 943 231 935 q 168 946 179 946 q 144 943 157 946 q 35 874 69 932 q 24 839 24 857 q 28 815 24 832 q 54 779 32 797 q 78 769 67 769 q 82 768 79 768 q 92 774 86 768 q 101 784 96 779 q 111 794 106 789 q 146 811 126 807 q 153 811 150 811 q 167 797 167 811 q 167 790 167 794 q 133 731 156 757 q 82 686 110 706 q 75 685 79 685 q 67 686 72 685 q 56 689 61 689 q 39 681 46 689 l 35 675 q 33 674 33 675 q 24 638 24 657 q 25 619 24 633 q 42 586 26 604 q 65 572 49 576 q 111 568 89 568 q 160 575 133 568 q 209 596 186 582 q 248 630 232 610 q 264 676 264 650 q 238 703 264 703 q 232 703 235 703 z "},"":{"ha":299,"x_min":-53,"x_max":415,"o":"m 311 985 q 379 932 351 968 q 407 835 407 896 q 389 756 407 788 q 408 719 400 739 q 415 676 415 700 q 395 592 415 631 q 342 526 375 554 q 266 483 308 499 q 181 468 224 468 q 144 471 167 468 q 99 485 122 474 l 35 511 q -26 554 1 525 q -53 639 -53 583 q -40 703 -53 671 q -1 754 -28 735 q -33 809 -24 779 q -43 857 -43 839 q -24 928 -43 897 q 25 982 -6 960 q 93 1015 56 1004 q 167 1026 131 1026 q 247 1011 208 1026 l 311 985 m 258 742 q 218 768 240 763 q 228 779 224 775 q 236 788 232 783 q 267 860 267 818 q 265 876 267 868 q 243 924 261 906 q 193 947 225 943 q 164 950 178 950 q 127 945 149 950 q 79 925 106 940 q 39 883 53 911 q 33 858 33 871 q 41 826 33 846 q 75 794 49 806 q 85 792 79 792 q 90 792 86 792 q 99 797 94 793 q 107 804 103 800 q 117 811 111 808 q 161 825 138 825 q 178 818 174 824 q 182 808 182 813 q 178 797 182 803 q 175 794 176 796 l 171 786 q 168 783 169 785 q 151 774 164 774 q 124 765 136 771 q 110 756 115 763 q 106 746 106 750 q 117 736 106 739 q 129 735 124 735 q 142 736 136 735 l 146 736 l 154 739 l 158 739 q 167 740 163 740 q 181 736 174 740 q 192 725 189 732 q 194 714 194 719 q 181 693 194 703 q 135 676 158 676 q 76 697 108 676 q 64 701 69 701 q 57 700 60 701 q 35 682 42 693 q 25 653 28 669 q 24 638 24 644 q 35 601 24 619 q 75 576 47 583 q 111 571 90 571 q 119 571 115 571 q 163 578 142 571 q 207 597 185 586 q 274 693 265 631 q 275 703 275 699 q 258 742 275 725 z "},"":{"ha":1072,"x_min":-58,"x_max":1142,"o":"m -36 711 q -29 750 -36 729 q -10 790 -22 771 q 15 827 1 810 q 43 857 29 844 q 100 892 69 886 q 167 899 131 899 q 225 888 196 899 l 289 861 q 345 823 319 850 q 390 771 371 796 q 422 808 406 790 q 454 842 438 825 q 500 877 469 857 q 571 897 531 897 q 592 894 582 897 q 613 889 603 892 l 676 863 q 723 828 701 850 q 759 778 744 806 q 782 722 774 751 q 790 665 790 693 q 774 585 790 621 q 725 517 757 549 q 665 456 694 486 q 606 394 635 426 l 621 388 q 655 364 638 376 q 688 336 672 351 q 696 351 693 347 q 747 410 714 383 q 832 436 779 436 q 876 430 856 436 q 913 414 897 424 l 933 406 q 956 398 946 403 q 976 388 967 393 q 1040 342 1010 369 q 1092 281 1069 315 q 1128 208 1115 247 q 1142 124 1142 168 q 1122 29 1142 72 q 1067 -44 1101 -14 q 987 -92 1032 -75 q 893 -110 942 -110 q 808 -93 849 -110 l 744 -67 q 724 -58 733 -62 q 707 -47 715 -54 q 626 -93 672 -76 q 536 -110 581 -110 q 451 -93 492 -110 l 388 -67 q 294 4 332 -44 l 283 -26 q 276 -44 282 -32 q 259 -69 271 -57 q 230 -92 247 -82 q 186 -101 213 -101 q 144 -94 165 -101 l 81 -68 q 18 -8 40 -50 q -4 78 -4 35 q -3 101 -4 90 q 1 119 -1 111 q 8 146 3 131 q 49 256 25 201 q 103 358 72 310 q 121 389 113 371 l 119 390 l 118 390 l 54 417 q -26 478 7 436 q -58 586 -58 519 q -43 668 -58 629 l -36 690 l -36 711 m 268 539 q 308 636 308 583 q 293 704 308 669 q 264 753 282 731 q 226 796 246 775 q 165 822 200 822 q 161 822 163 822 q 128 820 144 821 q 97 804 111 819 q 69 772 82 789 q 49 736 57 756 q 43 723 46 729 q 40 713 40 717 q 40 708 40 710 q 42 696 42 701 q 38 674 42 686 q 29 647 35 663 q 26 638 28 643 l 22 618 q 19 608 21 614 q 18 586 18 597 q 38 522 18 551 q 103 481 57 492 q 142 476 124 476 q 268 539 214 476 m 551 817 q 510 789 526 807 q 326 563 408 683 q 168 318 244 442 q 82 125 114 225 q 76 101 79 113 q 72 78 72 89 q 100 11 72 35 q 121 1 110 1 q 147 25 140 1 q 171 83 154 50 q 208 148 188 115 q 251 210 229 181 q 289 257 272 239 q 445 430 367 344 q 607 597 524 515 q 629 624 619 610 q 644 654 639 638 q 650 692 650 674 q 639 744 650 715 q 600 806 628 774 q 571 821 588 821 q 551 817 561 821 m 129 633 q 135 638 132 638 q 142 635 138 638 l 168 618 q 183 594 183 606 q 165 569 183 581 q 138 560 156 560 q 135 560 136 560 q 117 575 121 560 q 114 592 114 583 q 118 609 114 599 q 129 633 122 619 m 518 347 q 475 360 497 360 q 435 348 454 360 q 406 314 417 336 q 392 293 399 303 q 379 274 386 283 q 331 167 343 225 q 328 136 328 151 q 334 94 328 119 q 360 46 340 69 q 408 8 379 22 q 472 -7 438 -7 q 512 -1 492 -6 q 551 11 532 4 q 624 75 604 35 q 644 149 644 115 q 639 190 644 168 q 518 347 613 292 m 996 190 q 875 347 972 292 q 832 360 854 360 q 792 348 811 360 q 763 314 774 336 q 749 293 756 303 q 736 274 743 283 q 688 167 700 225 q 685 136 685 151 q 691 94 685 119 q 717 46 697 69 q 765 8 736 22 q 829 -7 794 -7 q 869 -1 850 -6 q 908 11 889 4 q 981 75 961 35 q 1001 149 1001 115 q 996 190 1001 168 m 500 136 q 463 101 493 106 l 456 101 q 431 107 438 101 q 421 129 425 113 q 419 146 419 138 q 420 158 419 150 q 424 181 421 167 q 433 190 425 190 q 439 189 436 190 q 460 183 450 186 q 479 174 469 179 q 501 144 501 161 q 500 136 501 140 m 857 136 q 819 101 850 106 l 813 101 q 788 107 794 101 q 778 129 782 113 q 776 146 776 138 q 777 158 776 150 q 781 181 778 167 q 790 190 782 190 q 796 189 793 190 q 817 183 807 186 q 836 174 826 179 q 858 144 858 161 q 857 136 858 140 m 231 31 l 225 17 q 219 0 222 8 l 236 43 l 233 38 q 231 31 232 35 z "},"":{"ha":611,"x_min":-62,"x_max":731,"o":"m -8 679 q -42 730 -28 699 q -56 789 -56 761 q -41 851 -56 825 q -3 894 -26 878 q 51 919 21 911 q 113 926 81 926 q 148 925 126 926 q 192 913 169 924 l 249 889 q 257 886 251 889 q 306 846 285 874 q 328 775 328 818 l 347 790 q 372 817 360 804 q 396 843 383 831 q 440 877 410 857 q 511 897 471 897 q 534 894 524 897 q 553 889 544 892 l 617 863 q 642 847 632 856 q 660 832 653 839 q 709 761 688 803 q 731 667 731 719 q 667 517 731 581 q 615 465 640 490 q 564 413 589 439 l 563 413 q 567 411 564 411 q 658 360 621 400 q 694 253 694 319 q 687 200 694 226 q 667 149 679 174 q 703 69 703 119 q 682 -8 703 26 q 628 -65 661 -42 q 554 -101 594 -89 q 475 -114 514 -114 q 436 -112 458 -114 q 390 -100 414 -110 l 326 -74 q 276 -39 299 -62 q 247 28 254 -15 q 235 1 240 14 q 224 -28 229 -12 q 190 -81 213 -60 q 126 -101 167 -101 q 86 -94 107 -101 l 22 -68 q -40 -10 -18 -51 q -62 72 -62 31 q -51 142 -62 104 q -24 219 -40 181 q 10 295 -8 258 q 44 358 29 332 l 72 404 q 23 433 42 413 q -7 478 4 454 q -22 524 -18 501 q -26 558 -26 546 q -22 616 -26 585 q -8 679 -17 647 m 47 731 q 60 725 53 725 q 68 726 64 725 l 83 735 q 88 738 86 736 q 93 739 90 739 q 93 738 93 739 q 90 729 93 735 q 63 645 75 692 q 50 558 50 599 q 71 496 50 524 q 110 476 83 476 q 119 476 114 476 q 157 489 139 481 q 183 528 183 503 q 182 540 183 535 q 176 565 179 553 q 172 588 174 576 q 167 650 167 619 q 167 679 167 657 q 174 739 168 701 q 175 747 175 743 q 174 756 175 751 q 163 767 172 761 q 165 769 165 769 l 172 775 q 174 775 174 775 q 186 804 186 789 q 183 821 186 813 q 168 839 178 833 q 147 847 158 844 q 113 851 131 851 q 65 844 89 851 q 31 822 42 838 q 21 790 21 806 q 22 778 21 783 q 32 753 25 764 q 47 731 39 742 m 540 806 q 511 821 528 821 q 493 817 503 821 q 450 789 471 810 q 267 563 349 683 q 110 318 185 443 q 83 269 99 300 q 51 202 67 238 q 25 133 36 167 q 14 78 14 100 q 14 74 14 76 q 40 11 14 36 q 63 1 50 1 q 88 25 81 1 q 113 85 96 53 q 149 148 129 117 q 190 208 168 179 q 231 257 213 236 q 386 431 307 346 q 549 597 465 515 q 571 624 561 610 q 585 654 581 638 q 590 694 590 675 q 580 745 590 717 q 540 806 569 774 m 531 122 q 507 117 517 119 q 477 109 492 113 q 447 103 463 106 q 465 116 456 110 q 481 129 474 122 q 519 182 503 154 q 547 240 536 210 q 554 279 554 260 q 544 324 554 301 q 489 363 528 356 q 465 365 478 365 q 442 363 454 365 q 333 293 368 351 q 322 258 322 276 q 326 234 322 251 q 353 199 331 217 q 364 193 358 196 q 376 189 369 190 q 379 189 378 189 q 389 193 385 189 l 410 214 q 425 225 417 221 q 443 231 433 229 q 450 231 447 231 q 465 219 465 231 q 464 211 465 215 q 431 152 457 179 q 381 107 406 125 q 374 103 376 103 q 372 103 374 103 q 365 106 369 104 q 354 108 360 108 q 336 100 344 108 l 332 94 q 322 58 322 79 q 324 39 322 54 q 340 7 325 24 q 374 -9 351 -7 q 411 -11 396 -11 q 495 8 456 -11 q 556 67 535 26 q 563 96 563 83 q 538 122 563 122 q 531 122 535 122 z "}}}
